<?xml version="1.0" encoding="UTF-8" standalone="no"?>
<svg width="50px" height="51px" viewBox="0 0 50 51" version="1.1" xmlns="http://www.w3.org/2000/svg" xmlns:xlink="http://www.w3.org/1999/xlink" xmlns:sketch="http://www.bohemiancoding.com/sketch/ns">
    <!-- Generator: Sketch 3.2 (9964) - http://www.bohemiancoding.com/sketch -->
    <title>badminton</title>
    <desc>Created with Sketch.</desc>
    <defs></defs>
    <g id="Page-1" stroke="none" stroke-width="1" fill="none" fill-rule="evenodd" sketch:type="MSPage">
        <g id="badminton" sketch:type="MSLayerGroup" fill="#4A90E2">
            <path d="M3.08489902,36.2972683 C-0.513080919,39.8952482 -1.04219562,45.2922181 2.02666963,48.3610834 C5.09553488,51.4299486 10.3866819,50.9008339 14.0904847,47.302854 L15.8894747,45.503864 C16.3127665,45.0805722 16.3127665,44.3398117 15.8894747,43.9165199 L6.57705603,34.6041012 C6.15376427,34.1808095 5.41300369,34.1808095 4.98971194,34.6041012 L3.08489902,36.2972683 L3.08489902,36.2972683 Z" id="Shape" sketch:type="MSShapeGroup"></path>
            <path d="M49.4353465,25.7149743 L48.8004089,25.0800367 C48.588763,24.8683908 48.2712942,24.7625678 47.9538254,24.7625678 L43.9325537,24.7625678 C43.297616,24.7625678 42.7685013,24.2334531 42.7685013,23.5985155 L42.7685013,21.6937026 C42.7685013,21.058765 42.2393866,20.5296503 41.604449,20.5296503 L39.805459,20.5296503 C39.1705214,20.5296503 38.6414067,20.0005356 38.6414067,19.3655979 L38.6414067,17.460785 C38.6414067,16.8258474 38.112292,16.2967327 37.4773544,16.2967327 L35.6783644,16.2967327 C35.0434268,16.2967327 34.5143121,15.767618 34.5143121,15.1326803 L34.5143121,13.2278674 C34.5143121,12.5929298 33.9851974,12.0638151 33.3502597,12.0638151 L31.2338009,12.0638151 C30.5988633,12.0638151 30.0697486,11.5347004 30.0697486,10.8997628 L30.0697486,8.67748104 C30.0697486,8.0425434 29.5406339,7.51342871 28.9056963,7.51342871 L27.1067063,7.51342871 C26.4717687,7.51342871 25.942654,6.98431401 25.942654,6.34937637 L25.942654,2.64557349 C25.942654,2.32810467 25.836831,2.01063585 25.6251851,1.79898997 L24.6727787,0.846583516 C24.037841,0.211645879 23.0854346,0.423291758 22.7679658,1.16405233 L8.69351482,30.6886525 L7.63528542,31.7468819 C7.52946248,31.8527048 7.52946248,32.0643507 7.63528542,32.1701736 L18.1117564,42.6466446 C18.2175794,42.7524676 18.4292253,42.7524676 18.5350482,42.6466446 L19.5932776,41.5884152 L49.1178777,27.6197872 C49.8586383,27.3023184 49.9644612,26.244089 49.4353465,25.7149743 L49.4353465,25.7149743 Z M17.6884647,39.3661335 C17.5826417,39.4719564 17.3709959,39.3661335 17.3709959,39.2603106 L17.3709959,39.2603106 C17.2651729,39.1544876 17.2651729,38.9428417 17.4768188,38.8370188 L20.7573299,36.8263829 C20.9689758,36.72056 21.1806217,36.72056 21.2864446,36.9322059 L21.2864446,36.9322059 C21.3922676,37.1438518 21.3922676,37.3554976 21.1806217,37.4613206 L17.6884647,39.3661335 L17.6884647,39.3661335 Z M22.8737887,36.1914453 L22.8737887,36.1914453 C22.7679658,35.9797994 22.7679658,35.6623306 22.9796117,35.5565077 L26.4717687,33.5458718 C26.6834145,33.4400489 26.8950604,33.4400489 27.0008834,33.6516948 L27.1067063,33.7575177 C27.2125292,33.9691636 27.2125292,34.2866324 27.0008834,34.3924553 L23.4029034,36.2972683 C23.2970805,36.4030912 22.9796117,36.4030912 22.8737887,36.1914453 L22.8737887,36.1914453 Z M38.5355838,26.9848496 C38.6414067,27.1964955 38.7472296,27.4081413 38.8530526,27.6197872 C38.9588755,27.8314331 38.8530526,28.043079 38.6414067,28.1489019 L35.2550726,29.9478919 C35.0434268,30.0537148 34.8317809,29.9478919 34.7259579,29.736246 C34.620135,29.5246001 34.5143121,29.4187772 34.4084891,29.2071313 C34.3026662,28.9954854 34.3026662,28.7838395 34.5143121,28.5721937 L37.9006461,26.5615578 C38.112292,26.6673808 38.4297608,26.7732037 38.5355838,26.9848496 L38.5355838,26.9848496 Z M32.926968,30.2653607 C33.0327909,30.3711836 33.1386138,30.5828295 33.1386138,30.6886525 C33.2444368,30.9002983 33.1386138,31.1119442 32.926968,31.3235901 L29.434811,33.228403 C29.2231651,33.3342259 29.0115192,33.228403 28.9056963,33.1225801 C28.9056963,33.0167571 28.7998733,33.0167571 28.7998733,32.9109342 C28.6940504,32.6992883 28.6940504,32.3818195 28.9056963,32.2759966 L32.3978533,30.2653607 C32.5036762,29.9478919 32.7153221,30.0537148 32.926968,30.2653607 L32.926968,30.2653607 Z M35.8900103,22.6461091 C35.9958332,22.8577549 36.2074791,23.0694008 36.313302,23.2810467 C36.419125,23.4926926 36.419125,23.7043384 36.2074791,23.9159843 L32.821145,26.244089 C32.6094991,26.3499119 32.3978533,26.3499119 32.2920303,26.1382661 C32.1862074,26.0324431 32.0803844,25.8207972 31.9745615,25.7149743 C31.8687386,25.5033284 31.8687386,25.2916825 32.0803844,25.0800367 L35.3608956,22.6461091 C35.5725415,22.4344632 35.7841873,22.5402861 35.8900103,22.6461091 L35.8900103,22.6461091 Z M30.4930404,26.7732037 C30.5988633,26.8790266 30.7046862,26.9848496 30.8105092,27.1964955 C30.9163321,27.4081413 30.9163321,27.6197872 30.7046862,27.8314331 L27.3183522,30.1595378 C27.1067063,30.2653607 26.8950604,30.2653607 26.7892375,30.0537148 C26.6834145,29.9478919 26.6834145,29.8420689 26.5775916,29.8420689 C26.4717687,29.6304231 26.4717687,29.4187772 26.6834145,29.2071313 L29.9639257,26.7732037 C30.0697486,26.5615578 30.2813945,26.5615578 30.4930404,26.7732037 L30.4930404,26.7732037 Z M24.9902475,30.9002983 C24.9902475,31.0061213 25.0960704,31.0061213 25.0960704,31.1119442 C25.2018934,31.3235901 25.2018934,31.6410589 24.9902475,31.7468819 L21.7097364,34.0749865 C21.4980905,34.1808095 21.2864446,34.1808095 21.1806217,33.9691636 L21.1806217,33.9691636 C20.9689758,33.7575177 21.0747987,33.5458718 21.2864446,33.3342259 L24.5669557,30.9002983 C24.5669557,30.6886525 24.8844246,30.6886525 24.9902475,30.9002983 L24.9902475,30.9002983 Z M19.4874546,35.027393 C19.5932776,35.2390389 19.5932776,35.4506847 19.3816317,35.5565077 L16.1011206,37.8846123 C15.9952976,37.9904353 15.7836518,37.9904353 15.6778288,37.8846123 L15.6778288,37.8846123 C15.5720059,37.7787894 15.5720059,37.5671435 15.6778288,37.4613206 L18.852517,35.027393 C19.1699858,34.8157471 19.3816317,34.8157471 19.4874546,35.027393 L19.4874546,35.027393 L19.4874546,35.027393 Z M23.6145493,26.6673808 C23.5087263,26.5615578 23.5087263,26.5615578 23.4029034,26.4557349 C23.1912575,26.244089 23.1912575,26.0324431 23.4029034,25.8207972 L26.2601228,22.8577549 C26.4717687,22.6461091 26.6834145,22.6461091 26.8950604,22.8577549 C27.0008834,22.9635779 27.1067063,23.0694008 27.2125292,23.1752238 L27.3183522,23.2810467 C27.4241751,23.3868696 27.4241751,23.5985155 27.3183522,23.7043384 L24.143664,26.7732037 C24.037841,26.8790266 23.8261952,26.8790266 23.7203722,26.7732037 C23.7203722,26.6673808 23.7203722,26.6673808 23.6145493,26.6673808 L23.6145493,26.6673808 Z M22.344674,28.5721937 L19.2758088,31.535236 C19.1699858,31.6410589 18.95834,31.6410589 18.852517,31.535236 L18.852517,31.535236 L18.7466941,31.429413 C18.5350482,31.2177672 18.5350482,31.0061213 18.7466941,30.7944754 L21.6039134,27.8314331 C21.8155593,27.6197872 22.0272052,27.6197872 22.2388511,27.8314331 C22.344674,27.937256 22.344674,27.937256 22.450497,28.043079 L22.450497,28.043079 C22.450497,28.1489019 22.450497,28.3605478 22.344674,28.5721937 L22.344674,28.5721937 Z M16.9477041,32.5934654 C17.053527,32.4876424 17.2651729,32.4876424 17.3709959,32.5934654 C17.4768188,32.6992883 17.4768188,32.6992883 17.5826417,32.8051112 L17.5826417,32.8051112 C17.6884647,32.9109342 17.6884647,33.1225801 17.5826417,33.228403 L14.6195994,36.0856224 C14.5137765,36.1914453 14.3021306,36.1914453 14.1963077,36.0856224 L14.1963077,36.0856224 C14.0904847,35.9797994 14.0904847,35.7681536 14.1963077,35.6623306 L16.9477041,32.5934654 L16.9477041,32.5934654 Z M32.2920303,18.9423062 L29.2231651,21.9053485 C29.0115192,22.1169944 28.7998733,22.0111714 28.5882274,21.9053485 L28.4824045,21.7995255 C28.3765816,21.6937026 28.2707586,21.5878797 28.1649357,21.4820567 C27.9532898,21.2704108 27.9532898,21.058765 28.1649357,20.8471191 L31.127978,17.7782538 C31.3396239,17.566608 31.5512698,17.566608 31.7629156,17.7782538 L32.2920303,18.3073685 C32.3978533,18.5190144 32.3978533,18.8364832 32.2920303,18.9423062 L32.2920303,18.9423062 Z M15.1487141,30.5828295 C15.2545371,30.6886525 15.36036,30.9002983 15.2545371,31.1119442 L12.8206095,34.2866324 C12.7147865,34.3924553 12.5031406,34.4982783 12.3973177,34.2866324 L12.3973177,34.2866324 C12.2914948,34.1808095 12.2914948,33.9691636 12.3973177,33.8633406 L14.7254224,30.5828295 C14.6195994,30.4770066 14.9370682,30.4770066 15.1487141,30.5828295 C15.0428912,30.5828295 15.1487141,30.5828295 15.1487141,30.5828295 L15.1487141,30.5828295 Z M16.2069435,28.9954854 C16.2069435,28.9954854 16.1011206,28.9954854 16.2069435,28.9954854 C15.9952976,28.7838395 15.9952976,28.5721937 16.1011206,28.3605478 L18.4292253,24.9742137 C18.5350482,24.7625678 18.852517,24.7625678 19.0641629,24.8683908 C19.1699858,24.8683908 19.1699858,24.9742137 19.2758088,24.9742137 C19.4874546,25.0800367 19.4874546,25.3975055 19.3816317,25.6091514 L16.9477041,28.8896625 C16.6302353,29.2071313 16.3127665,29.2071313 16.2069435,28.9954854 L16.2069435,28.9954854 Z M20.3340382,23.5985155 C20.2282152,23.4926926 20.1223923,23.4926926 20.1223923,23.3868696 C19.9107464,23.2810467 19.9107464,22.9635779 20.0165693,22.8577549 L22.344674,19.4714209 C22.450497,19.259775 22.7679658,19.259775 22.9796117,19.3655979 C23.0854346,19.4714209 23.1912575,19.5772438 23.4029034,19.6830667 C23.6145493,19.7888897 23.6145493,20.1063585 23.5087263,20.3180044 L21.0747987,23.5985155 C20.7573299,23.7043384 20.4398611,23.7043384 20.3340382,23.5985155 L20.3340382,23.5985155 Z M27.635821,14.6035657 L25.0960704,17.9898997 C24.9902475,18.2015456 24.6727787,18.2015456 24.4611328,18.0957227 C24.3553099,17.9898997 24.143664,17.8840768 24.037841,17.7782538 C23.8261952,17.6724309 23.8261952,17.3549621 23.9320181,17.1433162 L26.3659457,13.6511592 C26.4717687,13.4395133 26.7892375,13.4395133 27.0008834,13.5453363 C27.2125292,13.6511592 27.4241751,13.8628051 27.635821,13.968628 C27.7416439,14.1802739 27.7416439,14.4977427 27.635821,14.6035657 L27.635821,14.6035657 Z M22.6621428,11.0055857 C22.8737887,11.1114086 23.0854346,11.2172316 23.2970805,11.3230545 C23.5087263,11.4288775 23.6145493,11.7463463 23.5087263,11.9579922 L21.3922676,15.5559721 C21.2864446,15.767618 20.9689758,15.8734409 20.8631529,15.661795 C20.651507,15.5559721 20.545684,15.4501492 20.3340382,15.3443262 C20.1223923,15.2385033 20.0165693,15.0268574 20.1223923,14.8152115 L22.1330281,11.1114086 C22.1330281,10.8997628 22.450497,10.8997628 22.6621428,11.0055857 L22.6621428,11.0055857 Z M19.3816317,17.0374933 C19.4874546,17.1433162 19.6991005,17.1433162 19.8049235,17.2491391 C20.0165693,17.3549621 20.1223923,17.6724309 19.9107464,17.8840768 L17.9001106,21.3762338 C17.7942876,21.5878797 17.4768188,21.6937026 17.2651729,21.4820567 C17.15935,21.4820567 17.15935,21.3762338 17.053527,21.3762338 C16.8418812,21.2704108 16.8418812,21.058765 16.9477041,20.8471191 L18.852517,17.3549621 C18.95834,17.0374933 19.1699858,16.9316703 19.3816317,17.0374933 L19.3816317,17.0374933 Z M16.5244123,23.5985155 L14.5137765,27.0906725 C14.4079536,27.3023184 14.0904847,27.4081413 13.8788389,27.1964955 L13.8788389,27.1964955 C13.667193,27.0906725 13.667193,26.8790266 13.7730159,26.6673808 L15.6778288,23.0694008 C15.7836518,22.8577549 16.1011206,22.751932 16.3127665,22.9635779 L16.4185894,23.0694008 C16.6302353,23.1752238 16.6302353,23.3868696 16.5244123,23.5985155 L16.5244123,23.5985155 Z M13.0322553,28.8896625 L13.0322553,28.8896625 C13.1380783,28.9954854 13.2439012,29.2071313 13.1380783,29.4187772 L11.1274424,32.8051112 C11.0216195,32.9109342 10.9157965,32.9109342 10.7041507,32.8051112 L10.7041507,32.8051112 C10.5983277,32.6992883 10.5983277,32.5934654 10.5983277,32.4876424 L12.3973177,29.1013084 C12.6089636,28.8896625 12.8206095,28.7838395 13.0322553,28.8896625 L13.0322553,28.8896625 Z" id="Shape" sketch:type="MSShapeGroup"></path>
        </g>
    </g>
</svg>