<?xml version="1.0" encoding="UTF-8" standalone="no"?>
<svg width="140px" height="40px" viewBox="0 0 140 40" version="1.1" xmlns="http://www.w3.org/2000/svg" xmlns:xlink="http://www.w3.org/1999/xlink" xmlns:sketch="http://www.bohemiancoding.com/sketch/ns">
    <!-- Generator: Sketch 3.2 (9964) - http://www.bohemiancoding.com/sketch -->
    <title>Imported Layers 2</title>
    <desc>Created with Sketch.</desc>
    <defs></defs>
    <g id="Page-1" stroke="none" stroke-width="1" fill="none" fill-rule="evenodd" sketch:type="MSPage">
        <g id="Web-4" sketch:type="MSLayerGroup" transform="translate(-30.000000, -23.000000)">
            <g id="Imported-Layers-2" transform="translate(30.000000, 23.000000)" sketch:type="MSShapeGroup">
                <path d="M0.600212766,0.394814815 L4.21265957,0.394814815 L4.21265957,8.95111111 C4.21265957,9.87703704 4.13744681,10.5437037 4.13744681,10.5437037 L4.21265957,10.5437037 C4.21265957,10.5437037 5.8137234,7.35851852 10.2445745,7.35851852 C15.3084043,7.35851852 18.5112766,11.3585185 18.5112766,17.1733333 C18.5112766,23.137037 14.8995745,26.9888889 9.94670213,26.9888889 C5.73925532,26.9888889 4.02648936,23.7666667 4.02648936,23.7666667 L3.9512766,23.7666667 C3.9512766,23.7666667 4.02648936,24.3592593 4.02648936,25.1740741 L4.02648936,26.5444444 L0.600212766,26.5444444 L0.600212766,0.394814815 L0.600212766,0.394814815 Z M9.42542553,23.9148148 C12.4048936,23.9148148 14.8615957,21.4703704 14.8615957,17.2111111 C14.8615957,13.1362963 12.6647872,10.5066667 9.53712766,10.5066667 C6.70734043,10.5066667 4.10095745,12.4696296 4.10095745,17.2474074 C4.10095745,20.5814815 5.85095745,23.9148148 9.42542553,23.9148148 L9.42542553,23.9148148 Z" id="Fill-1" fill="#4A90E2"></path>
                <path d="M28.0052128,4.39555556 C33.6275532,4.39555556 38.1708511,8.50666667 38.1708511,14.1740741 C38.1708511,19.8777778 33.6275532,24.0259259 28.0052128,24.0259259 C22.3821277,24.0259259 17.8395745,19.8777778 17.8395745,14.1740741 C17.8395745,8.50666667 22.3821277,4.39555556 28.0052128,4.39555556 L28.0052128,4.39555556 Z M28.0052128,20.9148148 C31.5796809,20.9148148 34.4839362,18.1 34.4839362,14.1740741 C34.4839362,10.2844444 31.5796809,7.50666667 28.0052128,7.50666667 C24.467234,7.50666667 21.5257447,10.2844444 21.5257447,14.1740741 C21.5257447,18.1 24.467234,20.9148148 28.0052128,20.9148148 L28.0052128,20.9148148 Z" id="Fill-2" fill="#4A90E2"></path>
                <path d="M47.5151064,0.691851852 C53.1381915,0.691851852 57.6814894,4.80296296 57.6814894,10.4703704 C57.6814894,16.1740741 53.1381915,20.3222222 47.5151064,20.3222222 C41.892766,20.3222222 37.3502128,16.1740741 37.3502128,10.4703704 C37.3502128,4.80296296 41.892766,0.691851852 47.5151064,0.691851852 L47.5151064,0.691851852 Z M47.5151064,17.2111111 C51.0903191,17.2111111 53.9953191,14.3962963 53.9953191,10.4703704 C53.9953191,6.58074074 51.0903191,3.80296296 47.5151064,3.80296296 C43.9778723,3.80296296 41.036383,6.58074074 41.036383,10.4703704 C41.036383,14.3962963 43.9778723,17.2111111 47.5151064,17.2111111 L47.5151064,17.2111111 Z" id="Fill-3" fill="#4A90E2"></path>
                <path d="M57.4930851,0.394814815 L61.1055319,0.394814815 L61.1055319,14.6918519 L63.7491489,14.6918519 L68.8881915,7.80296296 L72.9839362,7.80296296 L66.7278723,16.0622222 L66.7278723,16.1362963 L73.691383,26.5444444 L69.4831915,26.5444444 L63.823617,17.7288889 L61.1055319,17.7288889 L61.1055319,26.5444444 L57.4930851,26.5444444 L57.4930851,0.394814815" id="Fill-4" fill="#4A90E2"></path>
                <path d="M107.038936,39.4518519 C105.289681,39.4518519 99.9659574,39.4518519 99.9659574,32.0896296 L99.9659574,1.52888889 L104.530851,1.52888889 L104.530851,31.1644444 C104.530851,34.1318519 105.557766,35.4555556 107.860319,35.4555556 C108.063617,35.4555556 108.257234,35.4466667 108.418085,35.4355556 L108.418085,39.3822222 C108.100851,39.4125926 107.587766,39.4518519 107.038936,39.4518519" id="Fill-5" fill="#F59F49"></path>
                <path d="M104.158511,1.89925926 L104.158511,31.1637037 C104.158511,34.3444444 105.335106,35.8259259 107.860319,35.8259259 C107.922872,35.8259259 107.985426,35.8251852 108.045745,35.8237037 L108.045745,39.0422222 C107.762021,39.0637037 107.409043,39.0814815 107.038936,39.0814815 C104.162234,39.0814815 100.338298,38.357037 100.338298,32.0896296 L100.338298,1.89925926 L104.158511,1.89925926 M104.903191,1.15851852 L99.593617,1.15851852 L99.593617,32.0896296 C99.593617,39.0059259 104.027447,39.8222222 107.038936,39.8222222 C107.969043,39.8222222 108.790426,39.7140741 108.790426,39.7140741 L108.790426,35.0303704 C108.790426,35.0303704 108.352553,35.0851852 107.860319,35.0851852 C106.217553,35.0851852 104.903191,34.4859259 104.903191,31.1637037 L104.903191,1.15851852" id="Fill-6" fill="#FFFFFF"></path>
                <path d="M81.5001064,7.70814815 L84.8139362,7.70814815 L84.8139362,9.30074074 C84.8139362,10.0414815 84.7394681,10.6711111 84.7394681,10.6711111 L84.8139362,10.6711111 C84.8139362,10.6711111 86.415,7.2637037 91.1444681,7.2637037 C96.2082979,7.2637037 99.4104255,11.2644444 99.4104255,17.0792593 C99.4104255,23.0422222 95.7987234,26.8940741 90.8830851,26.8940741 C86.7508511,26.8940741 85.1118085,23.82 85.1118085,23.82 L85.0380851,23.82 C85.0373404,23.82 85.1118085,24.4866667 85.1118085,25.4496296 L85.1118085,33.857037 L81.5001064,33.857037 L81.5001064,7.70814815 L81.5001064,7.70814815 Z M90.3253191,23.82 C93.3040426,23.82 95.7614894,21.3755556 95.7614894,17.1162963 C95.7614894,13.0414815 93.5639362,10.4125926 90.4370213,10.4125926 C87.607234,10.4125926 85.0001064,12.3748148 85.0001064,17.1533333 C85.0001064,20.4866667 86.8618085,23.82 90.3253191,23.82 L90.3253191,23.82 Z" id="Fill-7" fill="#F59F49"></path>
                <path d="M116.934255,18.8488889 L117.828617,18.8488889 L117.828617,18.4851852 C117.828617,15.1288889 115.918511,13.997037 113.316596,13.997037 C110.146489,13.997037 107.586277,15.9785185 107.586277,15.9785185 L105.960638,13.1074074 C105.960638,13.1074074 108.927447,10.6814815 113.642021,10.6814815 C118.845106,10.6814815 121.770957,13.5118519 121.770957,18.6874074 L121.770957,31.6244444 L118.113085,31.6244444 L118.113085,29.6837037 C118.113085,28.7540741 118.194255,28.0666667 118.194255,28.0666667 L118.113085,28.0666667 C118.113085,28.0666667 116.446489,32.1096296 111.528617,32.1096296 C107.992872,32.1096296 104.537553,29.9674074 104.537553,25.8837037 C104.537553,19.1318519 113.479681,18.8488889 116.934255,18.8488889 L116.934255,18.8488889 Z M112.382021,28.9562963 C115.715213,28.9562963 117.869574,25.4792593 117.869574,22.4474074 L117.869574,21.8 L116.853085,21.8 C113.886277,21.8 108.520851,22.0022222 108.520851,25.6814815 C108.520851,27.3392593 109.821809,28.9562963 112.382021,28.9562963 L112.382021,28.9562963 Z" id="Fill-8" fill="#F59F49"></path>
                <path d="M120.76117,32.5274074 C120.76117,32.5274074 121.899787,33.3762963 123.159043,33.3762963 C124.744468,33.3762963 126.085638,32.2444444 126.857872,30.3851852 L127.874362,28.04 L119.25766,7.82518519 L123.687766,7.82518519 L128.849894,21.2074074 C129.256489,22.2585185 129.622128,23.6733333 129.622128,23.6733333 L129.703298,23.6733333 C129.703298,23.6733333 130.028723,22.2985185 130.394362,21.2474074 L135.393404,7.82518519 L139.66117,7.82518519 L130.028723,31.9614815 C128.768723,35.1155556 126.248723,36.7725926 123.363085,36.7725926 C121.045638,36.7725926 119.379043,35.5192593 119.379043,35.5192593 L120.76117,32.5274074" id="Fill-9" fill="#F59F49"></path>
                <path d="M71.7388298,12.1214815 L74.2245745,12.1214815 L77.0059574,16.7881481 C77.3991489,17.4444444 77.8481915,18.4925926 77.8481915,18.4925926 L77.8764894,18.4925926 C77.8764894,18.4925926 77.7640426,17.4162963 77.7640426,16.7881481 L77.7640426,12.1214815 L80.222234,12.1214815 L80.222234,22.1103704 L77.7498936,22.1103704 L74.9551064,17.4585185 C74.5619149,16.8022222 74.1128723,15.7540741 74.1128723,15.7540741 L74.0845745,15.7540741 C74.0845745,15.7540741 74.1970213,16.8296296 74.1970213,17.4585185 L74.1970213,22.1103704 L71.7388298,22.1103704 L71.7388298,12.1214815" id="Fill-10" fill="#454543"></path>
            </g>
        </g>
    </g>
</svg>