<?xml version="1.0" encoding="UTF-8" standalone="no"?>
<svg width="14px" height="14px" viewBox="0 0 14 14" version="1.1" xmlns="http://www.w3.org/2000/svg" xmlns:xlink="http://www.w3.org/1999/xlink" xmlns:sketch="http://www.bohemiancoding.com/sketch/ns">
    <!-- Generator: Sketch 3.3.3 (12081) - http://www.bohemiancoding.com/sketch -->
    <title>night</title>
    <desc>Created with Sketch.</desc>
    <defs></defs>
    <g id="Page-2" stroke="none" stroke-width="1" fill="none" fill-rule="evenodd" sketch:type="MSPage">
        <g id="Page2-Pricing" sketch:type="MSLayerGroup" transform="translate(-167.000000, -507.000000)" fill="#4A90E2">
            <g id="night" transform="translate(167.000000, 507.000000)" sketch:type="MSShapeGroup">
                <path d="M0.0338765432,6.08229136 C-0.340217284,9.92389136 2.43669136,13.3521975 6.27635556,13.7441975 C8.65400494,13.9871407 10.8593679,12.9916543 12.3131556,11.3137975 C13.660958,9.76660741 12.1534519,9.77435062 11.6012642,9.71724444 C5.91968395,8.97099259 4.99146667,3.31990123 5.8780642,1.03129877 C6.15972346,-0.0687209877 5.57753086,-0.0740444444 5.11535802,0.0590419753 C5.11535802,0.0590419753 0.468948148,1.32263704 0.0338765432,6.08229136 L0.0338765432,6.08229136 Z M6.44089877,12.1316741 C3.4917037,11.8301728 1.34586667,9.19506173 1.6464,6.24683457 C1.81771852,4.57526914 2.75222716,3.11373827 4.05599012,2.25811358 C3.4142716,6.04405926 6.28845432,10.4664 10.398163,10.8985679 C9.35234568,11.6970864 7.85355062,12.2754074 6.44089877,12.1316741 L6.44089877,12.1316741 Z" id="_x30_2"></path>
                <path d="M13.6584,4.44826667 L12.7745333,3.93586667 L13.6584,3.42533333 C13.9645333,3.24986667 14.0681333,2.8616 13.8917333,2.5536 C13.7162667,2.24746667 13.3270667,2.1448 13.0218667,2.32026667 L12.138,2.8308 L12.138,1.81066667 C12.138,1.4588 11.8514667,1.17226667 11.4986667,1.17226667 C11.1468,1.17226667 10.8621333,1.4588 10.8621333,1.81066667 L10.8621333,2.83173333 L9.9764,2.3212 C9.67213333,2.1448 9.28386667,2.25026667 9.10653333,2.55453333 C8.93013333,2.86066667 9.03373333,3.24893333 9.33986667,3.42626667 L10.2218667,3.9368 L9.33986667,4.4492 C9.03373333,4.62466667 8.93013333,5.01293333 9.10653333,5.32093333 C9.282,5.6252 9.67026667,5.72973333 9.9764,5.55426667 L10.8621333,5.04373333 L10.8621333,6.0648 C10.8621333,6.41666667 11.1468,6.7032 11.4986667,6.7032 C11.8514667,6.7032 12.138,6.41666667 12.138,6.0648 L12.138,5.04373333 L13.0218667,5.55426667 C13.3252,5.72973333 13.7153333,5.6252 13.8917333,5.32093333 C14.0690667,5.01573333 13.9645333,4.6256 13.6584,4.44826667 L13.6584,4.44826667 Z" id="Shape"></path>
            </g>
        </g>
    </g>
</svg>