<?xml version="1.0" encoding="UTF-8" standalone="no"?>
<svg width="300px" height="120px" viewBox="0 0 300 120" version="1.1" xmlns="http://www.w3.org/2000/svg" xmlns:xlink="http://www.w3.org/1999/xlink" xmlns:sketch="http://www.bohemiancoding.com/sketch/ns">
    <!-- Generator: Sketch 3.2 (9964) - http://www.bohemiancoding.com/sketch -->
    <title>icons_sprite</title>
    <desc>Created with Sketch.</desc>
    <defs></defs>
    <g id="Page-1" stroke="none" stroke-width="1" fill="none" fill-rule="evenodd" sketch:type="MSPage">
        <path d="M12.7764917,30.7522491 C11.6862521,29.66093 11.1778203,28.2193253 11.2246192,26.7904372 C12.6863606,26.6251209 14.2064561,27.0806078 15.3261616,28.2008284 C16.4452893,29.3204709 16.9005668,30.8406876 16.7353265,32.3048355 C15.3076731,32.3504998 13.8661534,31.8429902 12.7764917,30.7522491 L12.7764917,30.7522491 Z M21.9011091,27.1355206 C21.9473302,25.7072105 21.4388984,24.2650278 20.3492366,23.1754428 C19.2595748,22.0847017 17.8180551,21.5766141 16.3904018,21.6222784 C16.2257392,23.0852702 16.6810167,24.606643 17.8001445,25.7257075 C18.9181166,26.845928 20.4387899,27.300837 21.9011091,27.1355206 L21.9011091,27.1355206 Z M17.44482,32.23605 C18.5079046,32.058017 19.5293903,31.5724725 20.3492366,30.750515 C21.1696606,29.9314477 21.6561374,28.9083361 21.832933,27.8453404 C20.2105734,27.9858015 18.5414149,27.4632632 17.3026902,26.2233906 C16.0639654,24.984096 15.5410896,23.3141698 15.6814861,21.6910639 C14.6184014,21.8679408 13.5969157,22.3546414 12.7764917,23.1754428 C11.9566454,23.9956662 11.4690131,25.0181998 11.2927953,26.0811954 C12.9151549,25.9407343 14.5843134,26.4644287 15.8236159,27.7031453 C17.0623406,28.9424398 17.5857942,30.6141001 17.44482,32.23605 L17.44482,32.23605 Z M57.8264375,17.0737669 C57.5641329,18.7957158 57.0019691,20.5101503 56.2017668,22.1650478 C55.2057027,24.2910391 53.7971155,26.3141412 52.0176042,28.0933149 C49.2125629,30.9031147 45.8384247,32.8007845 42.4244207,33.5603148 C41.7859921,33.7406599 41.1360083,33.9071323 40.4594474,34.0475934 C32.2760065,35.7475772 26.4683288,38.3365698 22.6903339,41.9365355 C22.9381944,42.4891314 22.8451745,43.1579111 22.3933635,43.6093519 L21.9802627,44.0232208 L19.310418,41.3509919 C19.1740658,41.2145771 18.9498936,41.2145771 18.8135415,41.3509919 C18.675456,41.4885629 18.675456,41.7116821 18.8135415,41.847519 L21.4833862,44.5197478 L20.2342617,45.7700249 L17.5638392,43.0983741 C17.4274871,42.9608032 17.2033149,42.9608032 17.0669627,43.0983741 C16.929455,43.234789 16.929455,43.4590643 17.0669627,43.5949012 L19.7373852,46.26713 L18.4871051,47.516251 L15.8166827,44.8457563 C15.6803305,44.7081853 15.4561583,44.7081853 15.3198062,44.8457563 C15.1822985,44.9821712 15.1822985,45.2064465 15.3198062,45.3422833 L17.9902286,48.0127781 L16.7399486,49.2647893 L14.0689484,46.5931385 C13.9325962,46.4555675 13.708424,46.4555675 13.5720719,46.5931385 C13.4345642,46.7295533 13.4345642,46.9538287 13.5720719,47.0896655 L16.2430721,49.7618944 L14.9927921,51.0121714 L12.3223696,48.3405206 C12.1860175,48.2029497 11.9618453,48.2029497 11.8260709,48.3405206 C11.6879854,48.4769355 11.6879854,48.7006328 11.8260709,48.8370477 L14.4993821,51.5121667 C13.9239298,52.1058026 13.266435,53.1896073 13.0220411,53.9595422 L12.660939,55.0999937 C12.4113452,55.8861134 11.9000246,56.2219483 11.5250561,55.8456513 C11.1500877,55.4687763 10.3649072,54.6832347 9.78136619,54.1005813 L7.89554644,52.2144721 C7.3120054,51.6312407 6.52798047,50.8468551 6.15358978,50.4711361 C5.77804357,50.0954172 6.1154574,49.5850174 6.90121562,49.3335747 L8.03883176,48.9728845 C8.82458999,48.724332 9.945451,48.0422576 10.528992,47.4590261 L18.384841,39.5984075 C18.836652,39.1469667 19.5068576,39.0556381 20.0586216,39.3018785 C23.6586654,35.5204117 26.2464677,29.7106406 27.9433588,21.5240135 C28.9197789,16.8148098 30.8807079,13.0385453 33.9376541,9.98077097 C40.5559339,3.36407109 49.9873437,2.03344794 54.9670864,7.01432528 C57.4225809,9.47037122 58.4377112,13.0431695 57.8264375,17.0737669 L57.8264375,17.0737669 Z M53.0084685,9.53915669 L51.1266931,11.4217977 L53.0408232,13.3368083 L54.4765653,11.9004058 C54.1351071,11.011975 53.6422749,10.218919 53.0084685,9.53915669 L53.0084685,9.53915669 Z M35.5189925,26.0430455 L37.5411644,24.0199434 L35.627612,22.1060888 L33.6054401,24.1291909 L35.5189925,26.0430455 L35.5189925,26.0430455 Z M33.1085636,24.626296 L31.5780683,26.1574953 C31.8652167,26.9690482 32.2690734,27.7083475 32.7936825,28.3568962 L32.9993663,28.5632527 L35.0215382,26.5401506 L33.1085636,24.626296 L33.1085636,24.626296 Z M40.5559339,21.0037872 L42.5769502,18.9806851 L40.6651311,17.0662525 L38.6423815,19.0893546 L40.5559339,21.0037872 L40.5559339,21.0037872 Z M38.1460827,19.5858817 L36.1250663,21.6089837 L38.0386187,23.5228383 L40.0596351,21.4997362 L38.1460827,19.5858817 L38.1460827,19.5858817 Z M43.0738268,18.48358 L45.0959987,16.4604779 L43.1824463,14.5466234 L41.1614299,16.5697255 L43.0738268,18.48358 L43.0738268,18.48358 Z M41.0528104,21.5003143 L42.9663628,23.4147469 L44.9873792,21.3922228 L43.0738268,19.4777902 L41.0528104,21.5003143 L41.0528104,21.5003143 Z M45.4836779,20.8956957 L47.5064276,18.8725937 L45.5928752,16.9581611 L43.5701255,18.9812631 L45.4836779,20.8956957 L45.4836779,20.8956957 Z M48.0033041,18.3754886 L50.025476,16.3523865 L48.1119236,14.4373759 L46.089174,16.4604779 L48.0033041,18.3754886 L48.0033041,18.3754886 Z M48.1125014,13.4437437 L50.1335178,11.4212197 L48.2216987,9.50678705 L46.198949,11.5298891 L48.1125014,13.4437437 L48.1125014,13.4437437 Z M45.7020725,12.0269942 L43.6799006,14.0500963 L45.593453,15.9633729 L47.6162026,13.9408488 L45.7020725,12.0269942 L45.7020725,12.0269942 Z M45.205196,11.5298891 L43.2916436,9.61545654 L41.2706272,11.6385586 L43.1824463,13.5529912 L45.205196,11.5298891 L45.205196,11.5298891 Z M40.7743284,12.1356637 L38.7521565,14.1593438 L40.6657089,16.0726204 L42.6867253,14.0500963 L40.7743284,12.1356637 L40.7743284,12.1356637 Z M38.2547022,14.6558709 L36.2336858,16.678973 L38.1460827,18.5928275 L40.1682546,16.5697255 L38.2547022,14.6558709 L38.2547022,14.6558709 Z M35.7373871,17.1755 L33.7146374,19.1986021 L35.6281898,21.1130347 L37.6492062,19.0899326 L35.7373871,17.1755 L35.7373871,17.1755 Z M36.0152913,26.5401506 L37.9288437,28.4545832 L39.9515933,26.4314811 L38.0380409,24.5170485 L36.0152913,26.5401506 L36.0152913,26.5401506 Z M40.4478921,25.934954 L42.4689085,23.9118519 L40.5553561,21.9974193 L38.5343397,24.0205214 L40.4478921,25.934954 L40.4478921,25.934954 Z M40.9447686,26.4320591 L42.8565877,28.3459137 L44.8793374,26.3228116 L42.965785,24.408379 L40.9447686,26.4320591 L40.9447686,26.4320591 Z M45.3756362,25.8257065 L47.3972303,23.8026044 L45.4836779,21.8887499 L43.4626615,23.9106959 L45.3756362,25.8257065 L45.3756362,25.8257065 Z M47.8941068,23.3060774 L49.9168565,21.2829753 L48.0033041,19.3691207 L45.9805545,21.3922228 L47.8941068,23.3060774 L47.8941068,23.3060774 Z M50.4131553,20.7858702 L52.435905,18.7627681 L50.5223526,16.8494916 L48.4996029,18.8720156 L50.4131553,20.7858702 L50.4131553,20.7858702 Z M50.5229303,15.8552814 L52.5451022,13.8333354 L50.6309721,11.9183247 L48.6093779,13.9408488 L50.5229303,15.8552814 L50.5229303,15.8552814 Z M50.0832524,7.64437708 L48.7185752,9.01026 L50.6309721,10.9246926 L52.4907925,9.06459474 C51.7916988,8.44899368 50.9903409,7.96518326 50.0832524,7.64437708 L50.0832524,7.64437708 Z M46.8443107,7.1374455 L48.2216987,8.51373294 L49.3009607,7.4328184 C48.5735566,7.2524733 47.8120644,7.12819703 46.9904849,7.12819703 C46.941375,7.12819703 46.8916873,7.13628944 46.8443107,7.1374455 L46.8443107,7.1374455 Z M45.6997614,7.20796505 L43.7885201,9.11892948 L45.7020725,11.0333621 L47.7248222,9.01026 L45.9094896,7.19524841 C45.8384247,7.20218476 45.7702486,7.20045068 45.6997614,7.20796505 L45.6997614,7.20796505 Z M42.6121938,7.9420621 L43.2922213,8.6218244 L44.504369,7.41085329 C43.8734513,7.5438 43.2431114,7.71605269 42.6121938,7.9420621 L42.6121938,7.9420621 Z M39.2524996,9.61950274 L40.7743284,11.1420316 L42.7953448,9.11892948 L41.9055892,8.22818654 C41.0019672,8.60274944 40.1151004,9.06864095 39.2524996,9.61950274 L39.2524996,9.61950274 Z M36.4278143,11.8333545 L38.2547022,13.6622387 L40.2774519,11.6391367 L38.6452703,10.0062043 C37.8699118,10.5449274 37.1321079,11.1634186 36.4278143,11.8333545 L36.4278143,11.8333545 Z M34.0763173,14.5206121 L35.7373871,16.1818679 L37.7584035,14.1593438 L35.9228491,12.3212111 C35.2399328,13.0200483 34.6263481,13.7558795 34.0763173,14.5206121 L34.0763173,14.5206121 Z M32.240763,17.7240497 L33.2177609,18.701497 L35.2399328,16.6783949 L33.6707274,15.1090457 C33.1114524,15.9558585 32.6284422,16.8298386 32.240763,17.7240497 L32.240763,17.7240497 Z M31.3411853,20.5789358 L32.7208843,19.1986021 L31.9634365,18.4408059 C31.6982431,19.1483136 31.4908261,19.8610235 31.3411853,20.5789358 L31.3411853,20.5789358 Z M31.1961667,21.7182313 L33.1085636,23.6326639 L35.1313133,21.6095618 L33.2177609,19.6951292 L31.1961667,21.7182313 L31.1961667,21.7182313 Z M31.0777252,22.5939454 C31.0355485,23.5864215 31.1274129,24.5257189 31.3446519,25.3973869 L32.6116871,24.1297689 L31.0777252,22.5939454 L31.0777252,22.5939454 Z M35.0030498,33.2302602 C34.8880749,33.1892201 34.7725222,33.147602 34.6587028,33.1013597 C33.3263804,32.6048326 32.1350323,31.8533947 31.1355016,30.8539822 C30.042951,29.7603511 29.2618149,28.4326181 28.7712937,26.9465051 C27.3956391,31.7250722 25.6230609,35.5782146 23.4148492,38.5793421 C26.4065081,36.3753169 30.2428571,34.6065476 35.0030498,33.2302602 L35.0030498,33.2302602 Z M35.8286737,30.5551412 L37.4319671,28.9516883 L35.5184147,27.0366776 L33.4956651,29.0597797 L33.644728,29.2089112 C34.2877787,29.7730677 35.0082497,30.2395372 35.8286737,30.5551412 L35.8286737,30.5551412 Z M39.5899134,31.1112052 L37.9288437,29.4487933 L36.6040322,30.7736362 C37.395568,30.9921312 38.2287029,31.1383726 39.1352136,31.1383726 C39.2854321,31.1383726 39.4379617,31.1164075 39.5899134,31.1112052 L39.5899134,31.1112052 Z M42.360289,28.8424407 L40.4478921,26.9285862 L38.4257202,28.9516883 L40.3392726,30.8649648 L42.360289,28.8424407 L42.360289,28.8424407 Z M43.7463434,30.2291327 L42.8565877,29.3395458 L41.2804492,30.9169874 C42.1002954,30.7666998 42.9264971,30.5406904 43.7463434,30.2291327 L43.7463434,30.2291327 Z M47.0754161,28.5187444 L45.3762139,26.8199167 L43.354042,28.8430188 L44.4552591,29.9441643 C45.3473258,29.5563068 46.2249484,29.0776986 47.0754161,28.5187444 L47.0754161,28.5187444 Z M49.8070815,26.2147201 L47.8935291,24.3002875 L45.8725127,26.3228116 L47.6693569,28.1210603 C48.0096595,27.8782881 48.3436068,27.6216431 48.6694653,27.3522815 L49.8070815,26.2147201 L49.8070815,26.2147201 Z M52.1834223,23.5511617 L50.413733,21.7800804 L48.3909834,23.8031825 L50.3045358,25.7176151 L51.273445,24.7482601 C51.5952592,24.3580905 51.8980072,23.9580943 52.1834223,23.5511617 L52.1834223,23.5511617 Z M53.9762222,20.3043719 L52.9322037,19.2598732 L50.909454,21.2829753 L52.5878567,22.9627281 C53.1413541,22.1026206 53.6012537,21.2107216 53.9762222,20.3043719 L53.9762222,20.3043719 Z M54.8515337,17.3396603 L53.4290802,18.7627681 L54.2535486,19.5876157 C54.518742,18.8436922 54.7157593,18.0922543 54.8515337,17.3396603 L54.8515337,17.3396603 Z M54.9537979,16.243717 L53.041401,14.3304405 L51.0192291,16.3523865 L52.9327815,18.2662411 L54.9537979,16.243717 L54.9537979,16.243717 Z M55.0491288,15.3454597 C55.0612619,14.3893994 54.9624643,13.4790035 54.7284701,12.6420173 L53.5382775,13.8333354 L55.0491288,15.3454597 L55.0491288,15.3454597 Z" id="tennis" fill="#4A90E2" sketch:type="MSShapeGroup"></path>
        <g id="cricket" sketch:type="MSLayerGroup" transform="translate(74.000000, 4.000000)" fill="#4A90E2">
            <path d="M13.6119118,51.4851485 L13.0668382,11.2906931 C13.0668382,10.3876436 13.7982353,9.78217822 14.7010294,9.78217822 L16.3352206,9.78217822 C17.2380147,9.78217822 17.9699265,10.3876436 17.9699265,11.2906931 L18.5144853,51.5479604" id="Shape" sketch:type="MSShapeGroup"></path>
            <path d="M22.6470588,51.4851485 L22.6470588,10.6198416 C22.6470588,9.71679208 23.6033824,8.75247525 24.5061765,8.75247525 L26.1403676,8.75247525 C27.0431618,8.75247525 27.7941176,9.71679208 27.7941176,10.6198416 L27.7941176,51.4851485" id="Shape" sketch:type="MSShapeGroup"></path>
            <path d="M4.89691176,51.4851485 L2.17308824,11.8209901 C2.17308824,10.9179406 2.90448529,10.2970297 3.80727941,10.2970297 L5.44147059,10.2970297 C6.34426471,10.2970297 7.07617647,10.9179406 7.07617647,11.8209901 L9.79948529,51.5402376" id="Shape" sketch:type="MSShapeGroup"></path>
            <path d="M11.1665441,1.31184158 L9.14477941,1.98063366 C9.14477941,1.98063366 8.73558824,1.47041584 8.46691176,1.5589703 L2.64404412,3.484 C2.37588235,3.57306931 2.35220588,4.22693069 2.35220588,4.22693069 L0.330441176,4.89572277 C0.106544118,4.96934653 0.0509558824,5.40027723 0.143088235,5.67932673 L0.21,5.88217822 C0.301617647,6.16174257 0.684044118,6.71623762 0.907426471,6.64209901 L2.92919118,5.97382178 C2.92919118,5.97382178 3.33889706,6.4840396 3.60654412,6.3949703 L9.43044118,4.46994059 C9.69757353,4.38138614 9.72227941,3.72752475 9.72227941,3.72752475 L11.7430147,3.05873267 C11.9674265,2.98510891 11.9432353,2.31065347 11.8511029,2.03211881 L11.7841912,1.82875248 C11.6925735,1.55021782 11.3899265,1.23718812 11.1665441,1.31184158 L11.1665441,1.31184158 Z" id="Shape" sketch:type="MSShapeGroup"></path>
            <path d="M34.5980147,3.94376238 L32.5932353,3.22605941 C32.5932353,3.22605941 32.5839706,2.57168317 32.3178676,2.47643564 L26.5428676,0.409306931 C26.2772794,0.314574257 25.85625,0.815524752 25.85625,0.815524752 L23.8514706,0.0983366337 C23.6296324,0.019049505 23.3202941,0.324356436 23.2209559,0.600831683 L23.1488971,0.802138614 C23.0490441,1.07912871 23.0094118,1.75255446 23.23125,1.83081188 L25.2365441,2.54851485 C25.2365441,2.54851485 25.2458088,3.20289109 25.5113971,3.29762376 L31.2863971,5.36475248 C31.5519853,5.45948515 31.9740441,4.9590495 31.9740441,4.9590495 L33.9783088,5.67572277 C34.2006618,5.75552475 34.5964706,5.20926733 34.6952941,4.93330693 L34.7678676,4.73148515 C34.8651471,4.4550099 34.8193382,4.02253465 34.5980147,3.94376238 L34.5980147,3.94376238 Z" id="Shape" sketch:type="MSShapeGroup"></path>
        </g>
        <g id="badminton" sketch:type="MSLayerGroup" transform="translate(127.000000, 4.000000)" fill="#4A90E2">
            <path d="M3.08489902,36.2972683 C-0.513080919,39.8952482 -1.04219562,45.2922181 2.02666963,48.3610834 C5.09553488,51.4299486 10.3866819,50.9008339 14.0904847,47.302854 L15.8894747,45.503864 C16.3127665,45.0805722 16.3127665,44.3398117 15.8894747,43.9165199 L6.57705603,34.6041012 C6.15376427,34.1808095 5.41300369,34.1808095 4.98971194,34.6041012 L3.08489902,36.2972683 L3.08489902,36.2972683 Z" id="Shape" sketch:type="MSShapeGroup"></path>
            <path d="M49.4353465,25.7149743 L48.8004089,25.0800367 C48.588763,24.8683908 48.2712942,24.7625678 47.9538254,24.7625678 L43.9325537,24.7625678 C43.297616,24.7625678 42.7685013,24.2334531 42.7685013,23.5985155 L42.7685013,21.6937026 C42.7685013,21.058765 42.2393866,20.5296503 41.604449,20.5296503 L39.805459,20.5296503 C39.1705214,20.5296503 38.6414067,20.0005356 38.6414067,19.3655979 L38.6414067,17.460785 C38.6414067,16.8258474 38.112292,16.2967327 37.4773544,16.2967327 L35.6783644,16.2967327 C35.0434268,16.2967327 34.5143121,15.767618 34.5143121,15.1326803 L34.5143121,13.2278674 C34.5143121,12.5929298 33.9851974,12.0638151 33.3502597,12.0638151 L31.2338009,12.0638151 C30.5988633,12.0638151 30.0697486,11.5347004 30.0697486,10.8997628 L30.0697486,8.67748104 C30.0697486,8.0425434 29.5406339,7.51342871 28.9056963,7.51342871 L27.1067063,7.51342871 C26.4717687,7.51342871 25.942654,6.98431401 25.942654,6.34937637 L25.942654,2.64557349 C25.942654,2.32810467 25.836831,2.01063585 25.6251851,1.79898997 L24.6727787,0.846583516 C24.037841,0.211645879 23.0854346,0.423291758 22.7679658,1.16405233 L8.69351482,30.6886525 L7.63528542,31.7468819 C7.52946248,31.8527048 7.52946248,32.0643507 7.63528542,32.1701736 L18.1117564,42.6466446 C18.2175794,42.7524676 18.4292253,42.7524676 18.5350482,42.6466446 L19.5932776,41.5884152 L49.1178777,27.6197872 C49.8586383,27.3023184 49.9644612,26.244089 49.4353465,25.7149743 L49.4353465,25.7149743 Z M17.6884647,39.3661335 C17.5826417,39.4719564 17.3709959,39.3661335 17.3709959,39.2603106 L17.3709959,39.2603106 C17.2651729,39.1544876 17.2651729,38.9428417 17.4768188,38.8370188 L20.7573299,36.8263829 C20.9689758,36.72056 21.1806217,36.72056 21.2864446,36.9322059 L21.2864446,36.9322059 C21.3922676,37.1438518 21.3922676,37.3554976 21.1806217,37.4613206 L17.6884647,39.3661335 L17.6884647,39.3661335 Z M22.8737887,36.1914453 L22.8737887,36.1914453 C22.7679658,35.9797994 22.7679658,35.6623306 22.9796117,35.5565077 L26.4717687,33.5458718 C26.6834145,33.4400489 26.8950604,33.4400489 27.0008834,33.6516948 L27.1067063,33.7575177 C27.2125292,33.9691636 27.2125292,34.2866324 27.0008834,34.3924553 L23.4029034,36.2972683 C23.2970805,36.4030912 22.9796117,36.4030912 22.8737887,36.1914453 L22.8737887,36.1914453 Z M38.5355838,26.9848496 C38.6414067,27.1964955 38.7472296,27.4081413 38.8530526,27.6197872 C38.9588755,27.8314331 38.8530526,28.043079 38.6414067,28.1489019 L35.2550726,29.9478919 C35.0434268,30.0537148 34.8317809,29.9478919 34.7259579,29.736246 C34.620135,29.5246001 34.5143121,29.4187772 34.4084891,29.2071313 C34.3026662,28.9954854 34.3026662,28.7838395 34.5143121,28.5721937 L37.9006461,26.5615578 C38.112292,26.6673808 38.4297608,26.7732037 38.5355838,26.9848496 L38.5355838,26.9848496 Z M32.926968,30.2653607 C33.0327909,30.3711836 33.1386138,30.5828295 33.1386138,30.6886525 C33.2444368,30.9002983 33.1386138,31.1119442 32.926968,31.3235901 L29.434811,33.228403 C29.2231651,33.3342259 29.0115192,33.228403 28.9056963,33.1225801 C28.9056963,33.0167571 28.7998733,33.0167571 28.7998733,32.9109342 C28.6940504,32.6992883 28.6940504,32.3818195 28.9056963,32.2759966 L32.3978533,30.2653607 C32.5036762,29.9478919 32.7153221,30.0537148 32.926968,30.2653607 L32.926968,30.2653607 Z M35.8900103,22.6461091 C35.9958332,22.8577549 36.2074791,23.0694008 36.313302,23.2810467 C36.419125,23.4926926 36.419125,23.7043384 36.2074791,23.9159843 L32.821145,26.244089 C32.6094991,26.3499119 32.3978533,26.3499119 32.2920303,26.1382661 C32.1862074,26.0324431 32.0803844,25.8207972 31.9745615,25.7149743 C31.8687386,25.5033284 31.8687386,25.2916825 32.0803844,25.0800367 L35.3608956,22.6461091 C35.5725415,22.4344632 35.7841873,22.5402861 35.8900103,22.6461091 L35.8900103,22.6461091 Z M30.4930404,26.7732037 C30.5988633,26.8790266 30.7046862,26.9848496 30.8105092,27.1964955 C30.9163321,27.4081413 30.9163321,27.6197872 30.7046862,27.8314331 L27.3183522,30.1595378 C27.1067063,30.2653607 26.8950604,30.2653607 26.7892375,30.0537148 C26.6834145,29.9478919 26.6834145,29.8420689 26.5775916,29.8420689 C26.4717687,29.6304231 26.4717687,29.4187772 26.6834145,29.2071313 L29.9639257,26.7732037 C30.0697486,26.5615578 30.2813945,26.5615578 30.4930404,26.7732037 L30.4930404,26.7732037 Z M24.9902475,30.9002983 C24.9902475,31.0061213 25.0960704,31.0061213 25.0960704,31.1119442 C25.2018934,31.3235901 25.2018934,31.6410589 24.9902475,31.7468819 L21.7097364,34.0749865 C21.4980905,34.1808095 21.2864446,34.1808095 21.1806217,33.9691636 L21.1806217,33.9691636 C20.9689758,33.7575177 21.0747987,33.5458718 21.2864446,33.3342259 L24.5669557,30.9002983 C24.5669557,30.6886525 24.8844246,30.6886525 24.9902475,30.9002983 L24.9902475,30.9002983 Z M19.4874546,35.027393 C19.5932776,35.2390389 19.5932776,35.4506847 19.3816317,35.5565077 L16.1011206,37.8846123 C15.9952976,37.9904353 15.7836518,37.9904353 15.6778288,37.8846123 L15.6778288,37.8846123 C15.5720059,37.7787894 15.5720059,37.5671435 15.6778288,37.4613206 L18.852517,35.027393 C19.1699858,34.8157471 19.3816317,34.8157471 19.4874546,35.027393 L19.4874546,35.027393 L19.4874546,35.027393 Z M23.6145493,26.6673808 C23.5087263,26.5615578 23.5087263,26.5615578 23.4029034,26.4557349 C23.1912575,26.244089 23.1912575,26.0324431 23.4029034,25.8207972 L26.2601228,22.8577549 C26.4717687,22.6461091 26.6834145,22.6461091 26.8950604,22.8577549 C27.0008834,22.9635779 27.1067063,23.0694008 27.2125292,23.1752238 L27.3183522,23.2810467 C27.4241751,23.3868696 27.4241751,23.5985155 27.3183522,23.7043384 L24.143664,26.7732037 C24.037841,26.8790266 23.8261952,26.8790266 23.7203722,26.7732037 C23.7203722,26.6673808 23.7203722,26.6673808 23.6145493,26.6673808 L23.6145493,26.6673808 Z M22.344674,28.5721937 L19.2758088,31.535236 C19.1699858,31.6410589 18.95834,31.6410589 18.852517,31.535236 L18.852517,31.535236 L18.7466941,31.429413 C18.5350482,31.2177672 18.5350482,31.0061213 18.7466941,30.7944754 L21.6039134,27.8314331 C21.8155593,27.6197872 22.0272052,27.6197872 22.2388511,27.8314331 C22.344674,27.937256 22.344674,27.937256 22.450497,28.043079 L22.450497,28.043079 C22.450497,28.1489019 22.450497,28.3605478 22.344674,28.5721937 L22.344674,28.5721937 Z M16.9477041,32.5934654 C17.053527,32.4876424 17.2651729,32.4876424 17.3709959,32.5934654 C17.4768188,32.6992883 17.4768188,32.6992883 17.5826417,32.8051112 L17.5826417,32.8051112 C17.6884647,32.9109342 17.6884647,33.1225801 17.5826417,33.228403 L14.6195994,36.0856224 C14.5137765,36.1914453 14.3021306,36.1914453 14.1963077,36.0856224 L14.1963077,36.0856224 C14.0904847,35.9797994 14.0904847,35.7681536 14.1963077,35.6623306 L16.9477041,32.5934654 L16.9477041,32.5934654 Z M32.2920303,18.9423062 L29.2231651,21.9053485 C29.0115192,22.1169944 28.7998733,22.0111714 28.5882274,21.9053485 L28.4824045,21.7995255 C28.3765816,21.6937026 28.2707586,21.5878797 28.1649357,21.4820567 C27.9532898,21.2704108 27.9532898,21.058765 28.1649357,20.8471191 L31.127978,17.7782538 C31.3396239,17.566608 31.5512698,17.566608 31.7629156,17.7782538 L32.2920303,18.3073685 C32.3978533,18.5190144 32.3978533,18.8364832 32.2920303,18.9423062 L32.2920303,18.9423062 Z M15.1487141,30.5828295 C15.2545371,30.6886525 15.36036,30.9002983 15.2545371,31.1119442 L12.8206095,34.2866324 C12.7147865,34.3924553 12.5031406,34.4982783 12.3973177,34.2866324 L12.3973177,34.2866324 C12.2914948,34.1808095 12.2914948,33.9691636 12.3973177,33.8633406 L14.7254224,30.5828295 C14.6195994,30.4770066 14.9370682,30.4770066 15.1487141,30.5828295 C15.0428912,30.5828295 15.1487141,30.5828295 15.1487141,30.5828295 L15.1487141,30.5828295 Z M16.2069435,28.9954854 C16.2069435,28.9954854 16.1011206,28.9954854 16.2069435,28.9954854 C15.9952976,28.7838395 15.9952976,28.5721937 16.1011206,28.3605478 L18.4292253,24.9742137 C18.5350482,24.7625678 18.852517,24.7625678 19.0641629,24.8683908 C19.1699858,24.8683908 19.1699858,24.9742137 19.2758088,24.9742137 C19.4874546,25.0800367 19.4874546,25.3975055 19.3816317,25.6091514 L16.9477041,28.8896625 C16.6302353,29.2071313 16.3127665,29.2071313 16.2069435,28.9954854 L16.2069435,28.9954854 Z M20.3340382,23.5985155 C20.2282152,23.4926926 20.1223923,23.4926926 20.1223923,23.3868696 C19.9107464,23.2810467 19.9107464,22.9635779 20.0165693,22.8577549 L22.344674,19.4714209 C22.450497,19.259775 22.7679658,19.259775 22.9796117,19.3655979 C23.0854346,19.4714209 23.1912575,19.5772438 23.4029034,19.6830667 C23.6145493,19.7888897 23.6145493,20.1063585 23.5087263,20.3180044 L21.0747987,23.5985155 C20.7573299,23.7043384 20.4398611,23.7043384 20.3340382,23.5985155 L20.3340382,23.5985155 Z M27.635821,14.6035657 L25.0960704,17.9898997 C24.9902475,18.2015456 24.6727787,18.2015456 24.4611328,18.0957227 C24.3553099,17.9898997 24.143664,17.8840768 24.037841,17.7782538 C23.8261952,17.6724309 23.8261952,17.3549621 23.9320181,17.1433162 L26.3659457,13.6511592 C26.4717687,13.4395133 26.7892375,13.4395133 27.0008834,13.5453363 C27.2125292,13.6511592 27.4241751,13.8628051 27.635821,13.968628 C27.7416439,14.1802739 27.7416439,14.4977427 27.635821,14.6035657 L27.635821,14.6035657 Z M22.6621428,11.0055857 C22.8737887,11.1114086 23.0854346,11.2172316 23.2970805,11.3230545 C23.5087263,11.4288775 23.6145493,11.7463463 23.5087263,11.9579922 L21.3922676,15.5559721 C21.2864446,15.767618 20.9689758,15.8734409 20.8631529,15.661795 C20.651507,15.5559721 20.545684,15.4501492 20.3340382,15.3443262 C20.1223923,15.2385033 20.0165693,15.0268574 20.1223923,14.8152115 L22.1330281,11.1114086 C22.1330281,10.8997628 22.450497,10.8997628 22.6621428,11.0055857 L22.6621428,11.0055857 Z M19.3816317,17.0374933 C19.4874546,17.1433162 19.6991005,17.1433162 19.8049235,17.2491391 C20.0165693,17.3549621 20.1223923,17.6724309 19.9107464,17.8840768 L17.9001106,21.3762338 C17.7942876,21.5878797 17.4768188,21.6937026 17.2651729,21.4820567 C17.15935,21.4820567 17.15935,21.3762338 17.053527,21.3762338 C16.8418812,21.2704108 16.8418812,21.058765 16.9477041,20.8471191 L18.852517,17.3549621 C18.95834,17.0374933 19.1699858,16.9316703 19.3816317,17.0374933 L19.3816317,17.0374933 Z M16.5244123,23.5985155 L14.5137765,27.0906725 C14.4079536,27.3023184 14.0904847,27.4081413 13.8788389,27.1964955 L13.8788389,27.1964955 C13.667193,27.0906725 13.667193,26.8790266 13.7730159,26.6673808 L15.6778288,23.0694008 C15.7836518,22.8577549 16.1011206,22.751932 16.3127665,22.9635779 L16.4185894,23.0694008 C16.6302353,23.1752238 16.6302353,23.3868696 16.5244123,23.5985155 L16.5244123,23.5985155 Z M13.0322553,28.8896625 L13.0322553,28.8896625 C13.1380783,28.9954854 13.2439012,29.2071313 13.1380783,29.4187772 L11.1274424,32.8051112 C11.0216195,32.9109342 10.9157965,32.9109342 10.7041507,32.8051112 L10.7041507,32.8051112 C10.5983277,32.6992883 10.5983277,32.5934654 10.5983277,32.4876424 L12.3973177,29.1013084 C12.6089636,28.8896625 12.8206095,28.7838395 13.0322553,28.8896625 L13.0322553,28.8896625 Z" id="Shape" sketch:type="MSShapeGroup"></path>
        </g>
        <g id="tabletennis" sketch:type="MSLayerGroup" transform="translate(189.000000, 8.000000)" fill="#4A90E2">
            <ellipse id="Oval" sketch:type="MSShapeGroup" cx="4.87326733" cy="4.88888889" rx="4.55445545" ry="4.58333333"></ellipse>
            <path d="M8.77135491,19.0861455 L26.2880095,35.8944295 C24.2406083,35.8944295 21.9657181,35.4578507 19.9183169,34.8029825 C19.0083609,34.5846931 15.8235146,34.1481143 14.4585804,35.2395613 C11.5012232,38.0773235 8.99884393,41.7882434 7.6339098,43.0979798 C6.26897568,44.4077162 4.22157449,43.9711374 2.17417329,42.0065328 C0.354261125,40.2602176 -0.328205938,38.0773235 1.03672819,36.7675871 C2.62915134,35.6761401 6.4964647,33.0566673 9.45382197,30.4371944 C10.8187561,29.127458 10.136289,25.6348276 9.90880001,25.1982488 C8.99884393,23.2336441 8.77135491,21.0507501 8.77135491,19.0861455 L8.77135491,19.0861455 Z M40.6198179,5.33391308 C32.2027241,-2.96108423 20.828273,0.094967408 13.7761134,6.6436495 C11.2737341,9.04483293 9.45382197,12.1008846 8.99884393,15.3752256 L30.1553229,35.6761401 C33.5676582,35.0212719 36.7525045,33.4932461 39.2548837,31.0920626 C46.0795544,24.3250911 49.2644007,13.410621 40.6198179,5.33391308 L40.6198179,5.33391308 Z" id="Shape" sketch:type="MSShapeGroup"></path>
        </g>
        <g id="snooker" sketch:type="MSLayerGroup" transform="translate(250.000000, 8.000000)" fill="#4A90E2">
            <path d="M24.2018333,0.173554217 C12.6834643,-1.31383133 2.15307143,6.93077108 0.683904762,18.5894699 C-0.788845238,30.2471325 7.35658333,40.9018072 18.8754643,42.3891928 C30.3969048,43.8802048 40.9232024,35.6366386 42.3959524,23.9763855 C43.8687024,12.3187229 35.7196905,1.66145783 24.2018333,0.173554217 L24.2018333,0.173554217 Z M19.6233571,30.0507831 C13.8685238,30.5807711 8.78019048,26.3035663 8.25088095,20.4726627 C7.72669048,14.6562651 11.9662857,9.50610843 17.7185595,8.97145783 C23.4708333,8.43318072 28.5642857,12.7248916 29.0879643,18.5516506 C29.6126667,24.3706386 25.3766548,29.5176867 19.6233571,30.0507831 L19.6233571,30.0507831 Z" id="Shape" sketch:type="MSShapeGroup"></path>
            <path d="M19.9023452,18.1858916 C20.5309643,17.7413855 20.9855357,17.0373253 20.8954405,16.0452169 C20.7628571,14.6324337 19.4457262,13.4128916 17.484619,13.5973253 C15.5142976,13.7688072 14.4362262,15.2178554 14.5621548,16.6353012 C14.6507143,17.6237831 15.2240476,18.2309639 15.9038571,18.5537229 C14.7305714,19.1790361 13.9529881,20.2483373 14.0804524,21.6844337 C14.2626905,23.6924819 16.0569167,25.0420602 18.495119,24.8151446 C20.9292262,24.5897831 22.4557262,22.932988 22.2734881,20.9233855 C22.1419286,19.4940241 21.1846667,18.5863614 19.9023452,18.1858916 L19.9023452,18.1858916 Z M16.6445833,16.5612169 C16.5913452,15.9094819 16.9757857,15.4126506 17.6417738,15.358253 C18.3087857,15.2986747 18.775131,15.7058795 18.8355357,16.3602048 C18.8959405,17.020747 18.5099643,17.5362289 17.8434643,17.5958072 C17.1749167,17.659012 16.7101071,17.2233133 16.6445833,16.5612169 L16.6445833,16.5612169 Z M18.3318214,22.9708072 C17.1472738,23.0842651 16.3297619,22.3423855 16.2330119,21.2751566 C16.13575,20.2162169 16.813,19.364506 17.9960119,19.2588193 C19.1657143,19.1536506 19.9919286,19.8608193 20.0856071,20.9239036 C20.1838929,21.9812892 19.5025476,22.8682289 18.3318214,22.9708072 L18.3318214,22.9708072 Z" id="Shape" sketch:type="MSShapeGroup"></path>
        </g>
        <path d="M12.7764917,90.7522491 C11.6862521,89.66093 11.1778203,88.2193253 11.2246192,86.7904372 C12.6863606,86.6251209 14.2064561,87.0806078 15.3261616,88.2008284 C16.4452893,89.3204709 16.9005668,90.8406876 16.7353265,92.3048355 C15.3076731,92.3504998 13.8661534,91.8429902 12.7764917,90.7522491 L12.7764917,90.7522491 Z M21.9011091,87.1355206 C21.9473302,85.7072105 21.4388984,84.2650278 20.3492366,83.1754428 C19.2595748,82.0847017 17.8180551,81.5766141 16.3904018,81.6222784 C16.2257392,83.0852702 16.6810167,84.606643 17.8001445,85.7257075 C18.9181166,86.845928 20.4387899,87.300837 21.9011091,87.1355206 L21.9011091,87.1355206 Z M17.44482,92.23605 C18.5079046,92.058017 19.5293903,91.5724725 20.3492366,90.750515 C21.1696606,89.9314477 21.6561374,88.9083361 21.832933,87.8453404 C20.2105734,87.9858015 18.5414149,87.4632632 17.3026902,86.2233906 C16.0639654,84.984096 15.5410896,83.3141698 15.6814861,81.6910639 C14.6184014,81.8679408 13.5969157,82.3546414 12.7764917,83.1754428 C11.9566454,83.9956662 11.4690131,85.0181998 11.2927953,86.0811954 C12.9151549,85.9407343 14.5843134,86.4644287 15.8236159,87.7031453 C17.0623406,88.9424398 17.5857942,90.6141001 17.44482,92.23605 L17.44482,92.23605 Z M57.8264375,77.0737669 C57.5641329,78.7957158 57.0019691,80.5101503 56.2017668,82.1650478 C55.2057027,84.2910391 53.7971155,86.3141412 52.0176042,88.0933149 C49.2125629,90.9031147 45.8384247,92.8007845 42.4244207,93.5603148 C41.7859921,93.7406599 41.1360083,93.9071323 40.4594474,94.0475934 C32.2760065,95.7475772 26.4683288,98.3365698 22.6903339,101.936535 C22.9381944,102.489131 22.8451745,103.157911 22.3933635,103.609352 L21.9802627,104.023221 L19.310418,101.350992 C19.1740658,101.214577 18.9498936,101.214577 18.8135415,101.350992 C18.675456,101.488563 18.675456,101.711682 18.8135415,101.847519 L21.4833862,104.519748 L20.2342617,105.770025 L17.5638392,103.098374 C17.4274871,102.960803 17.2033149,102.960803 17.0669627,103.098374 C16.929455,103.234789 16.929455,103.459064 17.0669627,103.594901 L19.7373852,106.26713 L18.4871051,107.516251 L15.8166827,104.845756 C15.6803305,104.708185 15.4561583,104.708185 15.3198062,104.845756 C15.1822985,104.982171 15.1822985,105.206446 15.3198062,105.342283 L17.9902286,108.012778 L16.7399486,109.264789 L14.0689484,106.593138 C13.9325962,106.455568 13.708424,106.455568 13.5720719,106.593138 C13.4345642,106.729553 13.4345642,106.953829 13.5720719,107.089666 L16.2430721,109.761894 L14.9927921,111.012171 L12.3223696,108.340521 C12.1860175,108.20295 11.9618453,108.20295 11.8260709,108.340521 C11.6879854,108.476936 11.6879854,108.700633 11.8260709,108.837048 L14.4993821,111.512167 C13.9239298,112.105803 13.266435,113.189607 13.0220411,113.959542 L12.660939,115.099994 C12.4113452,115.886113 11.9000246,116.221948 11.5250561,115.845651 C11.1500877,115.468776 10.3649072,114.683235 9.78136619,114.100581 L7.89554644,112.214472 C7.3120054,111.631241 6.52798047,110.846855 6.15358978,110.471136 C5.77804357,110.095417 6.1154574,109.585017 6.90121562,109.333575 L8.03883176,108.972885 C8.82458999,108.724332 9.945451,108.042258 10.528992,107.459026 L18.384841,99.5984075 C18.836652,99.1469667 19.5068576,99.0556381 20.0586216,99.3018785 C23.6586654,95.5204117 26.2464677,89.7106406 27.9433588,81.5240135 C28.9197789,76.8148098 30.8807079,73.0385453 33.9376541,69.980771 C40.5559339,63.3640711 49.9873437,62.0334479 54.9670864,67.0143253 C57.4225809,69.4703712 58.4377112,73.0431695 57.8264375,77.0737669 L57.8264375,77.0737669 Z M53.0084685,69.5391567 L51.1266931,71.4217977 L53.0408232,73.3368083 L54.4765653,71.9004058 C54.1351071,71.011975 53.6422749,70.218919 53.0084685,69.5391567 L53.0084685,69.5391567 Z M35.5189925,86.0430455 L37.5411644,84.0199434 L35.627612,82.1060888 L33.6054401,84.1291909 L35.5189925,86.0430455 L35.5189925,86.0430455 Z M33.1085636,84.626296 L31.5780683,86.1574953 C31.8652167,86.9690482 32.2690734,87.7083475 32.7936825,88.3568962 L32.9993663,88.5632527 L35.0215382,86.5401506 L33.1085636,84.626296 L33.1085636,84.626296 Z M40.5559339,81.0037872 L42.5769502,78.9806851 L40.6651311,77.0662525 L38.6423815,79.0893546 L40.5559339,81.0037872 L40.5559339,81.0037872 Z M38.1460827,79.5858817 L36.1250663,81.6089837 L38.0386187,83.5228383 L40.0596351,81.4997362 L38.1460827,79.5858817 L38.1460827,79.5858817 Z M43.0738268,78.48358 L45.0959987,76.4604779 L43.1824463,74.5466234 L41.1614299,76.5697255 L43.0738268,78.48358 L43.0738268,78.48358 Z M41.0528104,81.5003143 L42.9663628,83.4147469 L44.9873792,81.3922228 L43.0738268,79.4777902 L41.0528104,81.5003143 L41.0528104,81.5003143 Z M45.4836779,80.8956957 L47.5064276,78.8725937 L45.5928752,76.9581611 L43.5701255,78.9812631 L45.4836779,80.8956957 L45.4836779,80.8956957 Z M48.0033041,78.3754886 L50.025476,76.3523865 L48.1119236,74.4373759 L46.089174,76.4604779 L48.0033041,78.3754886 L48.0033041,78.3754886 Z M48.1125014,73.4437437 L50.1335178,71.4212197 L48.2216987,69.5067871 L46.198949,71.5298891 L48.1125014,73.4437437 L48.1125014,73.4437437 Z M45.7020725,72.0269942 L43.6799006,74.0500963 L45.593453,75.9633729 L47.6162026,73.9408488 L45.7020725,72.0269942 L45.7020725,72.0269942 Z M45.205196,71.5298891 L43.2916436,69.6154565 L41.2706272,71.6385586 L43.1824463,73.5529912 L45.205196,71.5298891 L45.205196,71.5298891 Z M40.7743284,72.1356637 L38.7521565,74.1593438 L40.6657089,76.0726204 L42.6867253,74.0500963 L40.7743284,72.1356637 L40.7743284,72.1356637 Z M38.2547022,74.6558709 L36.2336858,76.678973 L38.1460827,78.5928275 L40.1682546,76.5697255 L38.2547022,74.6558709 L38.2547022,74.6558709 Z M35.7373871,77.1755 L33.7146374,79.1986021 L35.6281898,81.1130347 L37.6492062,79.0899326 L35.7373871,77.1755 L35.7373871,77.1755 Z M36.0152913,86.5401506 L37.9288437,88.4545832 L39.9515933,86.4314811 L38.0380409,84.5170485 L36.0152913,86.5401506 L36.0152913,86.5401506 Z M40.4478921,85.934954 L42.4689085,83.9118519 L40.5553561,81.9974193 L38.5343397,84.0205214 L40.4478921,85.934954 L40.4478921,85.934954 Z M40.9447686,86.4320591 L42.8565877,88.3459137 L44.8793374,86.3228116 L42.965785,84.408379 L40.9447686,86.4320591 L40.9447686,86.4320591 Z M45.3756362,85.8257065 L47.3972303,83.8026044 L45.4836779,81.8887499 L43.4626615,83.9106959 L45.3756362,85.8257065 L45.3756362,85.8257065 Z M47.8941068,83.3060774 L49.9168565,81.2829753 L48.0033041,79.3691207 L45.9805545,81.3922228 L47.8941068,83.3060774 L47.8941068,83.3060774 Z M50.4131553,80.7858702 L52.435905,78.7627681 L50.5223526,76.8494916 L48.4996029,78.8720156 L50.4131553,80.7858702 L50.4131553,80.7858702 Z M50.5229303,75.8552814 L52.5451022,73.8333354 L50.6309721,71.9183247 L48.6093779,73.9408488 L50.5229303,75.8552814 L50.5229303,75.8552814 Z M50.0832524,67.6443771 L48.7185752,69.01026 L50.6309721,70.9246926 L52.4907925,69.0645947 C51.7916988,68.4489937 50.9903409,67.9651833 50.0832524,67.6443771 L50.0832524,67.6443771 Z M46.8443107,67.1374455 L48.2216987,68.5137329 L49.3009607,67.4328184 C48.5735566,67.2524733 47.8120644,67.128197 46.9904849,67.128197 C46.941375,67.128197 46.8916873,67.1362894 46.8443107,67.1374455 L46.8443107,67.1374455 Z M45.6997614,67.2079651 L43.7885201,69.1189295 L45.7020725,71.0333621 L47.7248222,69.01026 L45.9094896,67.1952484 C45.8384247,67.2021848 45.7702486,67.2004507 45.6997614,67.2079651 L45.6997614,67.2079651 Z M42.6121938,67.9420621 L43.2922213,68.6218244 L44.504369,67.4108533 C43.8734513,67.5438 43.2431114,67.7160527 42.6121938,67.9420621 L42.6121938,67.9420621 Z M39.2524996,69.6195027 L40.7743284,71.1420316 L42.7953448,69.1189295 L41.9055892,68.2281865 C41.0019672,68.6027494 40.1151004,69.0686409 39.2524996,69.6195027 L39.2524996,69.6195027 Z M36.4278143,71.8333545 L38.2547022,73.6622387 L40.2774519,71.6391367 L38.6452703,70.0062043 C37.8699118,70.5449274 37.1321079,71.1634186 36.4278143,71.8333545 L36.4278143,71.8333545 Z M34.0763173,74.5206121 L35.7373871,76.1818679 L37.7584035,74.1593438 L35.9228491,72.3212111 C35.2399328,73.0200483 34.6263481,73.7558795 34.0763173,74.5206121 L34.0763173,74.5206121 Z M32.240763,77.7240497 L33.2177609,78.701497 L35.2399328,76.6783949 L33.6707274,75.1090457 C33.1114524,75.9558585 32.6284422,76.8298386 32.240763,77.7240497 L32.240763,77.7240497 Z M31.3411853,80.5789358 L32.7208843,79.1986021 L31.9634365,78.4408059 C31.6982431,79.1483136 31.4908261,79.8610235 31.3411853,80.5789358 L31.3411853,80.5789358 Z M31.1961667,81.7182313 L33.1085636,83.6326639 L35.1313133,81.6095618 L33.2177609,79.6951292 L31.1961667,81.7182313 L31.1961667,81.7182313 Z M31.0777252,82.5939454 C31.0355485,83.5864215 31.1274129,84.5257189 31.3446519,85.3973869 L32.6116871,84.1297689 L31.0777252,82.5939454 L31.0777252,82.5939454 Z M35.0030498,93.2302602 C34.8880749,93.1892201 34.7725222,93.147602 34.6587028,93.1013597 C33.3263804,92.6048326 32.1350323,91.8533947 31.1355016,90.8539822 C30.042951,89.7603511 29.2618149,88.4326181 28.7712937,86.9465051 C27.3956391,91.7250722 25.6230609,95.5782146 23.4148492,98.5793421 C26.4065081,96.3753169 30.2428571,94.6065476 35.0030498,93.2302602 L35.0030498,93.2302602 Z M35.8286737,90.5551412 L37.4319671,88.9516883 L35.5184147,87.0366776 L33.4956651,89.0597797 L33.644728,89.2089112 C34.2877787,89.7730677 35.0082497,90.2395372 35.8286737,90.5551412 L35.8286737,90.5551412 Z M39.5899134,91.1112052 L37.9288437,89.4487933 L36.6040322,90.7736362 C37.395568,90.9921312 38.2287029,91.1383726 39.1352136,91.1383726 C39.2854321,91.1383726 39.4379617,91.1164075 39.5899134,91.1112052 L39.5899134,91.1112052 Z M42.360289,88.8424407 L40.4478921,86.9285862 L38.4257202,88.9516883 L40.3392726,90.8649648 L42.360289,88.8424407 L42.360289,88.8424407 Z M43.7463434,90.2291327 L42.8565877,89.3395458 L41.2804492,90.9169874 C42.1002954,90.7666998 42.9264971,90.5406904 43.7463434,90.2291327 L43.7463434,90.2291327 Z M47.0754161,88.5187444 L45.3762139,86.8199167 L43.354042,88.8430188 L44.4552591,89.9441643 C45.3473258,89.5563068 46.2249484,89.0776986 47.0754161,88.5187444 L47.0754161,88.5187444 Z M49.8070815,86.2147201 L47.8935291,84.3002875 L45.8725127,86.3228116 L47.6693569,88.1210603 C48.0096595,87.8782881 48.3436068,87.6216431 48.6694653,87.3522815 L49.8070815,86.2147201 L49.8070815,86.2147201 Z M52.1834223,83.5511617 L50.413733,81.7800804 L48.3909834,83.8031825 L50.3045358,85.7176151 L51.273445,84.7482601 C51.5952592,84.3580905 51.8980072,83.9580943 52.1834223,83.5511617 L52.1834223,83.5511617 Z M53.9762222,80.3043719 L52.9322037,79.2598732 L50.909454,81.2829753 L52.5878567,82.9627281 C53.1413541,82.1026206 53.6012537,81.2107216 53.9762222,80.3043719 L53.9762222,80.3043719 Z M54.8515337,77.3396603 L53.4290802,78.7627681 L54.2535486,79.5876157 C54.518742,78.8436922 54.7157593,78.0922543 54.8515337,77.3396603 L54.8515337,77.3396603 Z M54.9537979,76.243717 L53.041401,74.3304405 L51.0192291,76.3523865 L52.9327815,78.2662411 L54.9537979,76.243717 L54.9537979,76.243717 Z M55.0491288,75.3454597 C55.0612619,74.3893994 54.9624643,73.4790035 54.7284701,72.6420173 L53.5382775,73.8333354 L55.0491288,75.3454597 L55.0491288,75.3454597 Z" id="tennis_white" fill="#FFFFFF" sketch:type="MSShapeGroup"></path>
        <g id="cricket_white" sketch:type="MSLayerGroup" transform="translate(74.000000, 64.000000)" fill="#FFFFFF">
            <path d="M13.6119118,51.4851485 L13.0668382,11.2906931 C13.0668382,10.3876436 13.7982353,9.78217822 14.7010294,9.78217822 L16.3352206,9.78217822 C17.2380147,9.78217822 17.9699265,10.3876436 17.9699265,11.2906931 L18.5144853,51.5479604" id="Shape" sketch:type="MSShapeGroup"></path>
            <path d="M22.6470588,51.4851485 L22.6470588,10.6198416 C22.6470588,9.71679208 23.6033824,8.75247525 24.5061765,8.75247525 L26.1403676,8.75247525 C27.0431618,8.75247525 27.7941176,9.71679208 27.7941176,10.6198416 L27.7941176,51.4851485" id="Shape" sketch:type="MSShapeGroup"></path>
            <path d="M4.89691176,51.4851485 L2.17308824,11.8209901 C2.17308824,10.9179406 2.90448529,10.2970297 3.80727941,10.2970297 L5.44147059,10.2970297 C6.34426471,10.2970297 7.07617647,10.9179406 7.07617647,11.8209901 L9.79948529,51.5402376" id="Shape" sketch:type="MSShapeGroup"></path>
            <path d="M11.1665441,1.31184158 L9.14477941,1.98063366 C9.14477941,1.98063366 8.73558824,1.47041584 8.46691176,1.5589703 L2.64404412,3.484 C2.37588235,3.57306931 2.35220588,4.22693069 2.35220588,4.22693069 L0.330441176,4.89572277 C0.106544118,4.96934653 0.0509558824,5.40027723 0.143088235,5.67932673 L0.21,5.88217822 C0.301617647,6.16174257 0.684044118,6.71623762 0.907426471,6.64209901 L2.92919118,5.97382178 C2.92919118,5.97382178 3.33889706,6.4840396 3.60654412,6.3949703 L9.43044118,4.46994059 C9.69757353,4.38138614 9.72227941,3.72752475 9.72227941,3.72752475 L11.7430147,3.05873267 C11.9674265,2.98510891 11.9432353,2.31065347 11.8511029,2.03211881 L11.7841912,1.82875248 C11.6925735,1.55021782 11.3899265,1.23718812 11.1665441,1.31184158 L11.1665441,1.31184158 Z" id="Shape" sketch:type="MSShapeGroup"></path>
            <path d="M34.5980147,3.94376238 L32.5932353,3.22605941 C32.5932353,3.22605941 32.5839706,2.57168317 32.3178676,2.47643564 L26.5428676,0.409306931 C26.2772794,0.314574257 25.85625,0.815524752 25.85625,0.815524752 L23.8514706,0.0983366337 C23.6296324,0.019049505 23.3202941,0.324356436 23.2209559,0.600831683 L23.1488971,0.802138614 C23.0490441,1.07912871 23.0094118,1.75255446 23.23125,1.83081188 L25.2365441,2.54851485 C25.2365441,2.54851485 25.2458088,3.20289109 25.5113971,3.29762376 L31.2863971,5.36475248 C31.5519853,5.45948515 31.9740441,4.9590495 31.9740441,4.9590495 L33.9783088,5.67572277 C34.2006618,5.75552475 34.5964706,5.20926733 34.6952941,4.93330693 L34.7678676,4.73148515 C34.8651471,4.4550099 34.8193382,4.02253465 34.5980147,3.94376238 L34.5980147,3.94376238 Z" id="Shape" sketch:type="MSShapeGroup"></path>
        </g>
        <g id="badminton_white" sketch:type="MSLayerGroup" transform="translate(127.000000, 64.000000)" fill="#FFFFFF">
            <path d="M3.08489902,36.2972683 C-0.513080919,39.8952482 -1.04219562,45.2922181 2.02666963,48.3610834 C5.09553488,51.4299486 10.3866819,50.9008339 14.0904847,47.302854 L15.8894747,45.503864 C16.3127665,45.0805722 16.3127665,44.3398117 15.8894747,43.9165199 L6.57705603,34.6041012 C6.15376427,34.1808095 5.41300369,34.1808095 4.98971194,34.6041012 L3.08489902,36.2972683 L3.08489902,36.2972683 Z" id="Shape" sketch:type="MSShapeGroup"></path>
            <path d="M49.4353465,25.7149743 L48.8004089,25.0800367 C48.588763,24.8683908 48.2712942,24.7625678 47.9538254,24.7625678 L43.9325537,24.7625678 C43.297616,24.7625678 42.7685013,24.2334531 42.7685013,23.5985155 L42.7685013,21.6937026 C42.7685013,21.058765 42.2393866,20.5296503 41.604449,20.5296503 L39.805459,20.5296503 C39.1705214,20.5296503 38.6414067,20.0005356 38.6414067,19.3655979 L38.6414067,17.460785 C38.6414067,16.8258474 38.112292,16.2967327 37.4773544,16.2967327 L35.6783644,16.2967327 C35.0434268,16.2967327 34.5143121,15.767618 34.5143121,15.1326803 L34.5143121,13.2278674 C34.5143121,12.5929298 33.9851974,12.0638151 33.3502597,12.0638151 L31.2338009,12.0638151 C30.5988633,12.0638151 30.0697486,11.5347004 30.0697486,10.8997628 L30.0697486,8.67748104 C30.0697486,8.0425434 29.5406339,7.51342871 28.9056963,7.51342871 L27.1067063,7.51342871 C26.4717687,7.51342871 25.942654,6.98431401 25.942654,6.34937637 L25.942654,2.64557349 C25.942654,2.32810467 25.836831,2.01063585 25.6251851,1.79898997 L24.6727787,0.846583516 C24.037841,0.211645879 23.0854346,0.423291758 22.7679658,1.16405233 L8.69351482,30.6886525 L7.63528542,31.7468819 C7.52946248,31.8527048 7.52946248,32.0643507 7.63528542,32.1701736 L18.1117564,42.6466446 C18.2175794,42.7524676 18.4292253,42.7524676 18.5350482,42.6466446 L19.5932776,41.5884152 L49.1178777,27.6197872 C49.8586383,27.3023184 49.9644612,26.244089 49.4353465,25.7149743 L49.4353465,25.7149743 Z M17.6884647,39.3661335 C17.5826417,39.4719564 17.3709959,39.3661335 17.3709959,39.2603106 L17.3709959,39.2603106 C17.2651729,39.1544876 17.2651729,38.9428417 17.4768188,38.8370188 L20.7573299,36.8263829 C20.9689758,36.72056 21.1806217,36.72056 21.2864446,36.9322059 L21.2864446,36.9322059 C21.3922676,37.1438518 21.3922676,37.3554976 21.1806217,37.4613206 L17.6884647,39.3661335 L17.6884647,39.3661335 Z M22.8737887,36.1914453 L22.8737887,36.1914453 C22.7679658,35.9797994 22.7679658,35.6623306 22.9796117,35.5565077 L26.4717687,33.5458718 C26.6834145,33.4400489 26.8950604,33.4400489 27.0008834,33.6516948 L27.1067063,33.7575177 C27.2125292,33.9691636 27.2125292,34.2866324 27.0008834,34.3924553 L23.4029034,36.2972683 C23.2970805,36.4030912 22.9796117,36.4030912 22.8737887,36.1914453 L22.8737887,36.1914453 Z M38.5355838,26.9848496 C38.6414067,27.1964955 38.7472296,27.4081413 38.8530526,27.6197872 C38.9588755,27.8314331 38.8530526,28.043079 38.6414067,28.1489019 L35.2550726,29.9478919 C35.0434268,30.0537148 34.8317809,29.9478919 34.7259579,29.736246 C34.620135,29.5246001 34.5143121,29.4187772 34.4084891,29.2071313 C34.3026662,28.9954854 34.3026662,28.7838395 34.5143121,28.5721937 L37.9006461,26.5615578 C38.112292,26.6673808 38.4297608,26.7732037 38.5355838,26.9848496 L38.5355838,26.9848496 Z M32.926968,30.2653607 C33.0327909,30.3711836 33.1386138,30.5828295 33.1386138,30.6886525 C33.2444368,30.9002983 33.1386138,31.1119442 32.926968,31.3235901 L29.434811,33.228403 C29.2231651,33.3342259 29.0115192,33.228403 28.9056963,33.1225801 C28.9056963,33.0167571 28.7998733,33.0167571 28.7998733,32.9109342 C28.6940504,32.6992883 28.6940504,32.3818195 28.9056963,32.2759966 L32.3978533,30.2653607 C32.5036762,29.9478919 32.7153221,30.0537148 32.926968,30.2653607 L32.926968,30.2653607 Z M35.8900103,22.6461091 C35.9958332,22.8577549 36.2074791,23.0694008 36.313302,23.2810467 C36.419125,23.4926926 36.419125,23.7043384 36.2074791,23.9159843 L32.821145,26.244089 C32.6094991,26.3499119 32.3978533,26.3499119 32.2920303,26.1382661 C32.1862074,26.0324431 32.0803844,25.8207972 31.9745615,25.7149743 C31.8687386,25.5033284 31.8687386,25.2916825 32.0803844,25.0800367 L35.3608956,22.6461091 C35.5725415,22.4344632 35.7841873,22.5402861 35.8900103,22.6461091 L35.8900103,22.6461091 Z M30.4930404,26.7732037 C30.5988633,26.8790266 30.7046862,26.9848496 30.8105092,27.1964955 C30.9163321,27.4081413 30.9163321,27.6197872 30.7046862,27.8314331 L27.3183522,30.1595378 C27.1067063,30.2653607 26.8950604,30.2653607 26.7892375,30.0537148 C26.6834145,29.9478919 26.6834145,29.8420689 26.5775916,29.8420689 C26.4717687,29.6304231 26.4717687,29.4187772 26.6834145,29.2071313 L29.9639257,26.7732037 C30.0697486,26.5615578 30.2813945,26.5615578 30.4930404,26.7732037 L30.4930404,26.7732037 Z M24.9902475,30.9002983 C24.9902475,31.0061213 25.0960704,31.0061213 25.0960704,31.1119442 C25.2018934,31.3235901 25.2018934,31.6410589 24.9902475,31.7468819 L21.7097364,34.0749865 C21.4980905,34.1808095 21.2864446,34.1808095 21.1806217,33.9691636 L21.1806217,33.9691636 C20.9689758,33.7575177 21.0747987,33.5458718 21.2864446,33.3342259 L24.5669557,30.9002983 C24.5669557,30.6886525 24.8844246,30.6886525 24.9902475,30.9002983 L24.9902475,30.9002983 Z M19.4874546,35.027393 C19.5932776,35.2390389 19.5932776,35.4506847 19.3816317,35.5565077 L16.1011206,37.8846123 C15.9952976,37.9904353 15.7836518,37.9904353 15.6778288,37.8846123 L15.6778288,37.8846123 C15.5720059,37.7787894 15.5720059,37.5671435 15.6778288,37.4613206 L18.852517,35.027393 C19.1699858,34.8157471 19.3816317,34.8157471 19.4874546,35.027393 L19.4874546,35.027393 L19.4874546,35.027393 Z M23.6145493,26.6673808 C23.5087263,26.5615578 23.5087263,26.5615578 23.4029034,26.4557349 C23.1912575,26.244089 23.1912575,26.0324431 23.4029034,25.8207972 L26.2601228,22.8577549 C26.4717687,22.6461091 26.6834145,22.6461091 26.8950604,22.8577549 C27.0008834,22.9635779 27.1067063,23.0694008 27.2125292,23.1752238 L27.3183522,23.2810467 C27.4241751,23.3868696 27.4241751,23.5985155 27.3183522,23.7043384 L24.143664,26.7732037 C24.037841,26.8790266 23.8261952,26.8790266 23.7203722,26.7732037 C23.7203722,26.6673808 23.7203722,26.6673808 23.6145493,26.6673808 L23.6145493,26.6673808 Z M22.344674,28.5721937 L19.2758088,31.535236 C19.1699858,31.6410589 18.95834,31.6410589 18.852517,31.535236 L18.852517,31.535236 L18.7466941,31.429413 C18.5350482,31.2177672 18.5350482,31.0061213 18.7466941,30.7944754 L21.6039134,27.8314331 C21.8155593,27.6197872 22.0272052,27.6197872 22.2388511,27.8314331 C22.344674,27.937256 22.344674,27.937256 22.450497,28.043079 L22.450497,28.043079 C22.450497,28.1489019 22.450497,28.3605478 22.344674,28.5721937 L22.344674,28.5721937 Z M16.9477041,32.5934654 C17.053527,32.4876424 17.2651729,32.4876424 17.3709959,32.5934654 C17.4768188,32.6992883 17.4768188,32.6992883 17.5826417,32.8051112 L17.5826417,32.8051112 C17.6884647,32.9109342 17.6884647,33.1225801 17.5826417,33.228403 L14.6195994,36.0856224 C14.5137765,36.1914453 14.3021306,36.1914453 14.1963077,36.0856224 L14.1963077,36.0856224 C14.0904847,35.9797994 14.0904847,35.7681536 14.1963077,35.6623306 L16.9477041,32.5934654 L16.9477041,32.5934654 Z M32.2920303,18.9423062 L29.2231651,21.9053485 C29.0115192,22.1169944 28.7998733,22.0111714 28.5882274,21.9053485 L28.4824045,21.7995255 C28.3765816,21.6937026 28.2707586,21.5878797 28.1649357,21.4820567 C27.9532898,21.2704108 27.9532898,21.058765 28.1649357,20.8471191 L31.127978,17.7782538 C31.3396239,17.566608 31.5512698,17.566608 31.7629156,17.7782538 L32.2920303,18.3073685 C32.3978533,18.5190144 32.3978533,18.8364832 32.2920303,18.9423062 L32.2920303,18.9423062 Z M15.1487141,30.5828295 C15.2545371,30.6886525 15.36036,30.9002983 15.2545371,31.1119442 L12.8206095,34.2866324 C12.7147865,34.3924553 12.5031406,34.4982783 12.3973177,34.2866324 L12.3973177,34.2866324 C12.2914948,34.1808095 12.2914948,33.9691636 12.3973177,33.8633406 L14.7254224,30.5828295 C14.6195994,30.4770066 14.9370682,30.4770066 15.1487141,30.5828295 C15.0428912,30.5828295 15.1487141,30.5828295 15.1487141,30.5828295 L15.1487141,30.5828295 Z M16.2069435,28.9954854 C16.2069435,28.9954854 16.1011206,28.9954854 16.2069435,28.9954854 C15.9952976,28.7838395 15.9952976,28.5721937 16.1011206,28.3605478 L18.4292253,24.9742137 C18.5350482,24.7625678 18.852517,24.7625678 19.0641629,24.8683908 C19.1699858,24.8683908 19.1699858,24.9742137 19.2758088,24.9742137 C19.4874546,25.0800367 19.4874546,25.3975055 19.3816317,25.6091514 L16.9477041,28.8896625 C16.6302353,29.2071313 16.3127665,29.2071313 16.2069435,28.9954854 L16.2069435,28.9954854 Z M20.3340382,23.5985155 C20.2282152,23.4926926 20.1223923,23.4926926 20.1223923,23.3868696 C19.9107464,23.2810467 19.9107464,22.9635779 20.0165693,22.8577549 L22.344674,19.4714209 C22.450497,19.259775 22.7679658,19.259775 22.9796117,19.3655979 C23.0854346,19.4714209 23.1912575,19.5772438 23.4029034,19.6830667 C23.6145493,19.7888897 23.6145493,20.1063585 23.5087263,20.3180044 L21.0747987,23.5985155 C20.7573299,23.7043384 20.4398611,23.7043384 20.3340382,23.5985155 L20.3340382,23.5985155 Z M27.635821,14.6035657 L25.0960704,17.9898997 C24.9902475,18.2015456 24.6727787,18.2015456 24.4611328,18.0957227 C24.3553099,17.9898997 24.143664,17.8840768 24.037841,17.7782538 C23.8261952,17.6724309 23.8261952,17.3549621 23.9320181,17.1433162 L26.3659457,13.6511592 C26.4717687,13.4395133 26.7892375,13.4395133 27.0008834,13.5453363 C27.2125292,13.6511592 27.4241751,13.8628051 27.635821,13.968628 C27.7416439,14.1802739 27.7416439,14.4977427 27.635821,14.6035657 L27.635821,14.6035657 Z M22.6621428,11.0055857 C22.8737887,11.1114086 23.0854346,11.2172316 23.2970805,11.3230545 C23.5087263,11.4288775 23.6145493,11.7463463 23.5087263,11.9579922 L21.3922676,15.5559721 C21.2864446,15.767618 20.9689758,15.8734409 20.8631529,15.661795 C20.651507,15.5559721 20.545684,15.4501492 20.3340382,15.3443262 C20.1223923,15.2385033 20.0165693,15.0268574 20.1223923,14.8152115 L22.1330281,11.1114086 C22.1330281,10.8997628 22.450497,10.8997628 22.6621428,11.0055857 L22.6621428,11.0055857 Z M19.3816317,17.0374933 C19.4874546,17.1433162 19.6991005,17.1433162 19.8049235,17.2491391 C20.0165693,17.3549621 20.1223923,17.6724309 19.9107464,17.8840768 L17.9001106,21.3762338 C17.7942876,21.5878797 17.4768188,21.6937026 17.2651729,21.4820567 C17.15935,21.4820567 17.15935,21.3762338 17.053527,21.3762338 C16.8418812,21.2704108 16.8418812,21.058765 16.9477041,20.8471191 L18.852517,17.3549621 C18.95834,17.0374933 19.1699858,16.9316703 19.3816317,17.0374933 L19.3816317,17.0374933 Z M16.5244123,23.5985155 L14.5137765,27.0906725 C14.4079536,27.3023184 14.0904847,27.4081413 13.8788389,27.1964955 L13.8788389,27.1964955 C13.667193,27.0906725 13.667193,26.8790266 13.7730159,26.6673808 L15.6778288,23.0694008 C15.7836518,22.8577549 16.1011206,22.751932 16.3127665,22.9635779 L16.4185894,23.0694008 C16.6302353,23.1752238 16.6302353,23.3868696 16.5244123,23.5985155 L16.5244123,23.5985155 Z M13.0322553,28.8896625 L13.0322553,28.8896625 C13.1380783,28.9954854 13.2439012,29.2071313 13.1380783,29.4187772 L11.1274424,32.8051112 C11.0216195,32.9109342 10.9157965,32.9109342 10.7041507,32.8051112 L10.7041507,32.8051112 C10.5983277,32.6992883 10.5983277,32.5934654 10.5983277,32.4876424 L12.3973177,29.1013084 C12.6089636,28.8896625 12.8206095,28.7838395 13.0322553,28.8896625 L13.0322553,28.8896625 Z" id="Shape" sketch:type="MSShapeGroup"></path>
        </g>
        <g id="tabletennis_white" sketch:type="MSLayerGroup" transform="translate(189.000000, 68.000000)" fill="#FFFFFF">
            <ellipse id="Oval" sketch:type="MSShapeGroup" cx="4.87326733" cy="4.88888889" rx="4.55445545" ry="4.58333333"></ellipse>
            <path d="M8.77135491,19.0861455 L26.2880095,35.8944295 C24.2406083,35.8944295 21.9657181,35.4578507 19.9183169,34.8029825 C19.0083609,34.5846931 15.8235146,34.1481143 14.4585804,35.2395613 C11.5012232,38.0773235 8.99884393,41.7882434 7.6339098,43.0979798 C6.26897568,44.4077162 4.22157449,43.9711374 2.17417329,42.0065328 C0.354261125,40.2602176 -0.328205938,38.0773235 1.03672819,36.7675871 C2.62915134,35.6761401 6.4964647,33.0566673 9.45382197,30.4371944 C10.8187561,29.127458 10.136289,25.6348276 9.90880001,25.1982488 C8.99884393,23.2336441 8.77135491,21.0507501 8.77135491,19.0861455 L8.77135491,19.0861455 Z M40.6198179,5.33391308 C32.2027241,-2.96108423 20.828273,0.094967408 13.7761134,6.6436495 C11.2737341,9.04483293 9.45382197,12.1008846 8.99884393,15.3752256 L30.1553229,35.6761401 C33.5676582,35.0212719 36.7525045,33.4932461 39.2548837,31.0920626 C46.0795544,24.3250911 49.2644007,13.410621 40.6198179,5.33391308 L40.6198179,5.33391308 Z" id="Shape" sketch:type="MSShapeGroup"></path>
        </g>
        <g id="snooker_white" sketch:type="MSLayerGroup" transform="translate(250.000000, 68.000000)" fill="#FFFFFF">
            <path d="M24.2018333,0.173554217 C12.6834643,-1.31383133 2.15307143,6.93077108 0.683904762,18.5894699 C-0.788845238,30.2471325 7.35658333,40.9018072 18.8754643,42.3891928 C30.3969048,43.8802048 40.9232024,35.6366386 42.3959524,23.9763855 C43.8687024,12.3187229 35.7196905,1.66145783 24.2018333,0.173554217 L24.2018333,0.173554217 Z M19.6233571,30.0507831 C13.8685238,30.5807711 8.78019048,26.3035663 8.25088095,20.4726627 C7.72669048,14.6562651 11.9662857,9.50610843 17.7185595,8.97145783 C23.4708333,8.43318072 28.5642857,12.7248916 29.0879643,18.5516506 C29.6126667,24.3706386 25.3766548,29.5176867 19.6233571,30.0507831 L19.6233571,30.0507831 Z" id="Shape" sketch:type="MSShapeGroup"></path>
            <path d="M19.9023452,18.1858916 C20.5309643,17.7413855 20.9855357,17.0373253 20.8954405,16.0452169 C20.7628571,14.6324337 19.4457262,13.4128916 17.484619,13.5973253 C15.5142976,13.7688072 14.4362262,15.2178554 14.5621548,16.6353012 C14.6507143,17.6237831 15.2240476,18.2309639 15.9038571,18.5537229 C14.7305714,19.1790361 13.9529881,20.2483373 14.0804524,21.6844337 C14.2626905,23.6924819 16.0569167,25.0420602 18.495119,24.8151446 C20.9292262,24.5897831 22.4557262,22.932988 22.2734881,20.9233855 C22.1419286,19.4940241 21.1846667,18.5863614 19.9023452,18.1858916 L19.9023452,18.1858916 Z M16.6445833,16.5612169 C16.5913452,15.9094819 16.9757857,15.4126506 17.6417738,15.358253 C18.3087857,15.2986747 18.775131,15.7058795 18.8355357,16.3602048 C18.8959405,17.020747 18.5099643,17.5362289 17.8434643,17.5958072 C17.1749167,17.659012 16.7101071,17.2233133 16.6445833,16.5612169 L16.6445833,16.5612169 Z M18.3318214,22.9708072 C17.1472738,23.0842651 16.3297619,22.3423855 16.2330119,21.2751566 C16.13575,20.2162169 16.813,19.364506 17.9960119,19.2588193 C19.1657143,19.1536506 19.9919286,19.8608193 20.0856071,20.9239036 C20.1838929,21.9812892 19.5025476,22.8682289 18.3318214,22.9708072 L18.3318214,22.9708072 Z" id="Shape" sketch:type="MSShapeGroup"></path>
        </g>
    </g>
</svg>