<?xml version="1.0" encoding="UTF-8" standalone="no"?>
<svg width="360px" height="120px" viewBox="0 0 360 120" version="1.1" xmlns="http://www.w3.org/2000/svg" xmlns:xlink="http://www.w3.org/1999/xlink" xmlns:sketch="http://www.bohemiancoding.com/sketch/ns">
    <!-- Generator: Sketch 3.4.4 (17249) - http://www.bohemiancoding.com/sketch -->
    <title>icons_sprite</title>
    <desc>Created with Sketch.</desc>
    <defs></defs>
    <g id="Page-1" stroke="none" stroke-width="1" fill="none" fill-rule="evenodd" sketch:type="MSPage">
        <g id="icons_sprite" sketch:type="MSLayerGroup" transform="translate(6.000000, 4.000000)">
            <g id="Page-1" sketch:type="MSShapeGroup">
                <path d="M6.7764917,26.7522491 C5.6862521,25.66093 5.1778203,24.2193253 5.2246192,22.7904372 C6.6863606,22.6251209 8.2064561,23.0806078 9.3261616,24.2008284 C10.4452893,25.3204709 10.9005668,26.8406876 10.7353265,28.3048355 C9.3076731,28.3504998 7.8661534,27.8429902 6.7764917,26.7522491 L6.7764917,26.7522491 L6.7764917,26.7522491 Z M15.9011091,23.1355206 C15.9473302,21.7072105 15.4388984,20.2650278 14.3492366,19.1754428 C13.2595748,18.0847017 11.8180551,17.5766141 10.3904018,17.6222784 C10.2257392,19.0852702 10.6810167,20.606643 11.8001445,21.7257075 C12.9181166,22.845928 14.4387899,23.300837 15.9011091,23.1355206 L15.9011091,23.1355206 L15.9011091,23.1355206 Z M11.44482,28.23605 C12.5079046,28.058017 13.5293903,27.5724725 14.3492366,26.750515 C15.1696606,25.9314477 15.6561374,24.9083361 15.832933,23.8453404 C14.2105734,23.9858015 12.5414149,23.4632632 11.3026902,22.2233906 C10.0639654,20.984096 9.5410896,19.3141698 9.6814861,17.6910639 C8.6184014,17.8679408 7.5969157,18.3546414 6.7764917,19.1754428 C5.9566454,19.9956662 5.4690131,21.0181998 5.2927953,22.0811954 C6.9151549,21.9407343 8.5843134,22.4644287 9.8236159,23.7031453 C11.0623406,24.9424398 11.5857942,26.6141001 11.44482,28.23605 L11.44482,28.23605 L11.44482,28.23605 Z M51.8264375,13.0737669 C51.5641329,14.7957158 51.0019691,16.5101503 50.2017668,18.1650478 C49.2057027,20.2910391 47.7971155,22.3141412 46.0176042,24.0933149 C43.2125629,26.9031147 39.8384247,28.8007845 36.4244207,29.5603148 C35.7859921,29.7406599 35.1360083,29.9071323 34.4594474,30.0475934 C26.2760065,31.7475772 20.4683288,34.3365698 16.6903339,37.9365355 C16.9381944,38.4891314 16.8451745,39.1579111 16.3933635,39.6093519 L15.9802627,40.0232208 L13.310418,37.3509919 C13.1740658,37.2145771 12.9498936,37.2145771 12.8135415,37.3509919 C12.675456,37.4885629 12.675456,37.7116821 12.8135415,37.847519 L15.4833862,40.5197478 L14.2342617,41.7700249 L11.5638392,39.0983741 C11.4274871,38.9608032 11.2033149,38.9608032 11.0669627,39.0983741 C10.929455,39.234789 10.929455,39.4590643 11.0669627,39.5949012 L13.7373852,42.26713 L12.4871051,43.516251 L9.8166827,40.8457563 C9.6803305,40.7081853 9.4561583,40.7081853 9.3198062,40.8457563 C9.1822985,40.9821712 9.1822985,41.2064465 9.3198062,41.3422833 L11.9902286,44.0127781 L10.7399486,45.2647893 L8.0689484,42.5931385 C7.9325962,42.4555675 7.708424,42.4555675 7.5720719,42.5931385 C7.4345642,42.7295533 7.4345642,42.9538287 7.5720719,43.0896655 L10.2430721,45.7618944 L8.9927921,47.0121714 L6.3223696,44.3405206 C6.1860175,44.2029497 5.9618453,44.2029497 5.8260709,44.3405206 C5.6879854,44.4769355 5.6879854,44.7006328 5.8260709,44.8370477 L8.4993821,47.5121667 C7.9239298,48.1058026 7.266435,49.1896073 7.0220411,49.9595422 L6.660939,51.0999937 C6.4113452,51.8861134 5.9000246,52.2219483 5.5250561,51.8456513 C5.1500877,51.4687763 4.3649072,50.6832347 3.78136619,50.1005813 L1.89554644,48.2144721 C1.3120054,47.6312407 0.52798047,46.8468551 0.15358978,46.4711361 C-0.22195643,46.0954172 0.1154574,45.5850174 0.90121562,45.3335747 L2.03883176,44.9728845 C2.82458999,44.724332 3.945451,44.0422576 4.528992,43.4590261 L12.384841,35.5984075 C12.836652,35.1469667 13.5068576,35.0556381 14.0586216,35.3018785 C17.6586654,31.5204117 20.2464677,25.7106406 21.9433588,17.5240135 C22.9197789,12.8148098 24.8807079,9.0385453 27.9376541,5.98077097 C34.5559339,-0.63592891 43.9873437,-1.96655206 48.9670864,3.01432528 C51.4225809,5.47037122 52.4377112,9.0431695 51.8264375,13.0737669 L51.8264375,13.0737669 L51.8264375,13.0737669 Z M47.0084685,5.53915669 L45.1266931,7.4217977 L47.0408232,9.3368083 L48.4765653,7.9004058 C48.1351071,7.011975 47.6422749,6.218919 47.0084685,5.53915669 L47.0084685,5.53915669 L47.0084685,5.53915669 Z M29.5189925,22.0430455 L31.5411644,20.0199434 L29.627612,18.1060888 L27.6054401,20.1291909 L29.5189925,22.0430455 L29.5189925,22.0430455 L29.5189925,22.0430455 Z M27.1085636,20.626296 L25.5780683,22.1574953 C25.8652167,22.9690482 26.2690734,23.7083475 26.7936825,24.3568962 L26.9993663,24.5632527 L29.0215382,22.5401506 L27.1085636,20.626296 L27.1085636,20.626296 L27.1085636,20.626296 Z M34.5559339,17.0037872 L36.5769502,14.9806851 L34.6651311,13.0662525 L32.6423815,15.0893546 L34.5559339,17.0037872 L34.5559339,17.0037872 L34.5559339,17.0037872 Z M32.1460827,15.5858817 L30.1250663,17.6089837 L32.0386187,19.5228383 L34.0596351,17.4997362 L32.1460827,15.5858817 L32.1460827,15.5858817 L32.1460827,15.5858817 Z M37.0738268,14.48358 L39.0959987,12.4604779 L37.1824463,10.5466234 L35.1614299,12.5697255 L37.0738268,14.48358 L37.0738268,14.48358 L37.0738268,14.48358 Z M35.0528104,17.5003143 L36.9663628,19.4147469 L38.9873792,17.3922228 L37.0738268,15.4777902 L35.0528104,17.5003143 L35.0528104,17.5003143 L35.0528104,17.5003143 Z M39.4836779,16.8956957 L41.5064276,14.8725937 L39.5928752,12.9581611 L37.5701255,14.9812631 L39.4836779,16.8956957 L39.4836779,16.8956957 L39.4836779,16.8956957 Z M42.0033041,14.3754886 L44.025476,12.3523865 L42.1119236,10.4373759 L40.089174,12.4604779 L42.0033041,14.3754886 L42.0033041,14.3754886 L42.0033041,14.3754886 Z M42.1125014,9.4437437 L44.1335178,7.4212197 L42.2216987,5.50678705 L40.198949,7.5298891 L42.1125014,9.4437437 L42.1125014,9.4437437 L42.1125014,9.4437437 Z M39.7020725,8.0269942 L37.6799006,10.0500963 L39.593453,11.9633729 L41.6162026,9.9408488 L39.7020725,8.0269942 L39.7020725,8.0269942 L39.7020725,8.0269942 Z M39.205196,7.5298891 L37.2916436,5.61545654 L35.2706272,7.6385586 L37.1824463,9.5529912 L39.205196,7.5298891 L39.205196,7.5298891 L39.205196,7.5298891 Z M34.7743284,8.1356637 L32.7521565,10.1593438 L34.6657089,12.0726204 L36.6867253,10.0500963 L34.7743284,8.1356637 L34.7743284,8.1356637 L34.7743284,8.1356637 Z M32.2547022,10.6558709 L30.2336858,12.678973 L32.1460827,14.5928275 L34.1682546,12.5697255 L32.2547022,10.6558709 L32.2547022,10.6558709 L32.2547022,10.6558709 Z M29.7373871,13.1755 L27.7146374,15.1986021 L29.6281898,17.1130347 L31.6492062,15.0899326 L29.7373871,13.1755 L29.7373871,13.1755 L29.7373871,13.1755 Z M30.0152913,22.5401506 L31.9288437,24.4545832 L33.9515933,22.4314811 L32.0380409,20.5170485 L30.0152913,22.5401506 L30.0152913,22.5401506 L30.0152913,22.5401506 Z M34.4478921,21.934954 L36.4689085,19.9118519 L34.5553561,17.9974193 L32.5343397,20.0205214 L34.4478921,21.934954 L34.4478921,21.934954 L34.4478921,21.934954 Z M34.9447686,22.4320591 L36.8565877,24.3459137 L38.8793374,22.3228116 L36.965785,20.408379 L34.9447686,22.4320591 L34.9447686,22.4320591 L34.9447686,22.4320591 Z M39.3756362,21.8257065 L41.3972303,19.8026044 L39.4836779,17.8887499 L37.4626615,19.9106959 L39.3756362,21.8257065 L39.3756362,21.8257065 L39.3756362,21.8257065 Z M41.8941068,19.3060774 L43.9168565,17.2829753 L42.0033041,15.3691207 L39.9805545,17.3922228 L41.8941068,19.3060774 L41.8941068,19.3060774 L41.8941068,19.3060774 Z M44.4131553,16.7858702 L46.435905,14.7627681 L44.5223526,12.8494916 L42.4996029,14.8720156 L44.4131553,16.7858702 L44.4131553,16.7858702 L44.4131553,16.7858702 Z M44.5229303,11.8552814 L46.5451022,9.8333354 L44.6309721,7.9183247 L42.6093779,9.9408488 L44.5229303,11.8552814 L44.5229303,11.8552814 L44.5229303,11.8552814 Z M44.0832524,3.64437708 L42.7185752,5.01026 L44.6309721,6.9246926 L46.4907925,5.06459474 C45.7916988,4.44899368 44.9903409,3.96518326 44.0832524,3.64437708 L44.0832524,3.64437708 L44.0832524,3.64437708 Z M40.8443107,3.1374455 L42.2216987,4.51373294 L43.3009607,3.4328184 C42.5735566,3.2524733 41.8120644,3.12819703 40.9904849,3.12819703 C40.941375,3.12819703 40.8916873,3.13628944 40.8443107,3.1374455 L40.8443107,3.1374455 L40.8443107,3.1374455 Z M39.6997614,3.20796505 L37.7885201,5.11892948 L39.7020725,7.0333621 L41.7248222,5.01026 L39.9094896,3.19524841 C39.8384247,3.20218476 39.7702486,3.20045068 39.6997614,3.20796505 L39.6997614,3.20796505 L39.6997614,3.20796505 Z M36.6121938,3.9420621 L37.2922213,4.6218244 L38.504369,3.41085329 C37.8734513,3.5438 37.2431114,3.71605269 36.6121938,3.9420621 L36.6121938,3.9420621 L36.6121938,3.9420621 Z M33.2524996,5.61950274 L34.7743284,7.1420316 L36.7953448,5.11892948 L35.9055892,4.22818654 C35.0019672,4.60274944 34.1151004,5.06864095 33.2524996,5.61950274 L33.2524996,5.61950274 L33.2524996,5.61950274 Z M30.4278143,7.8333545 L32.2547022,9.6622387 L34.2774519,7.6391367 L32.6452703,6.0062043 C31.8699118,6.5449274 31.1321079,7.1634186 30.4278143,7.8333545 L30.4278143,7.8333545 L30.4278143,7.8333545 Z M28.0763173,10.5206121 L29.7373871,12.1818679 L31.7584035,10.1593438 L29.9228491,8.3212111 C29.2399328,9.0200483 28.6263481,9.7558795 28.0763173,10.5206121 L28.0763173,10.5206121 L28.0763173,10.5206121 Z M26.240763,13.7240497 L27.2177609,14.701497 L29.2399328,12.6783949 L27.6707274,11.1090457 C27.1114524,11.9558585 26.6284422,12.8298386 26.240763,13.7240497 L26.240763,13.7240497 L26.240763,13.7240497 Z M25.3411853,16.5789358 L26.7208843,15.1986021 L25.9634365,14.4408059 C25.6982431,15.1483136 25.4908261,15.8610235 25.3411853,16.5789358 L25.3411853,16.5789358 L25.3411853,16.5789358 Z M25.1961667,17.7182313 L27.1085636,19.6326639 L29.1313133,17.6095618 L27.2177609,15.6951292 L25.1961667,17.7182313 L25.1961667,17.7182313 L25.1961667,17.7182313 Z M25.0777252,18.5939454 C25.0355485,19.5864215 25.1274129,20.5257189 25.3446519,21.3973869 L26.6116871,20.1297689 L25.0777252,18.5939454 L25.0777252,18.5939454 L25.0777252,18.5939454 Z M29.0030498,29.2302602 C28.8880749,29.1892201 28.7725222,29.147602 28.6587028,29.1013597 C27.3263804,28.6048326 26.1350323,27.8533947 25.1355016,26.8539822 C24.042951,25.7603511 23.2618149,24.4326181 22.7712937,22.9465051 C21.3956391,27.7250722 19.6230609,31.5782146 17.4148492,34.5793421 C20.4065081,32.3753169 24.2428571,30.6065476 29.0030498,29.2302602 L29.0030498,29.2302602 L29.0030498,29.2302602 Z M29.8286737,26.5551412 L31.4319671,24.9516883 L29.5184147,23.0366776 L27.4956651,25.0597797 L27.644728,25.2089112 C28.2877787,25.7730677 29.0082497,26.2395372 29.8286737,26.5551412 L29.8286737,26.5551412 L29.8286737,26.5551412 Z M33.5899134,27.1112052 L31.9288437,25.4487933 L30.6040322,26.7736362 C31.395568,26.9921312 32.2287029,27.1383726 33.1352136,27.1383726 C33.2854321,27.1383726 33.4379617,27.1164075 33.5899134,27.1112052 L33.5899134,27.1112052 L33.5899134,27.1112052 Z M36.360289,24.8424407 L34.4478921,22.9285862 L32.4257202,24.9516883 L34.3392726,26.8649648 L36.360289,24.8424407 L36.360289,24.8424407 L36.360289,24.8424407 Z M37.7463434,26.2291327 L36.8565877,25.3395458 L35.2804492,26.9169874 C36.1002954,26.7666998 36.9264971,26.5406904 37.7463434,26.2291327 L37.7463434,26.2291327 L37.7463434,26.2291327 Z M41.0754161,24.5187444 L39.3762139,22.8199167 L37.354042,24.8430188 L38.4552591,25.9441643 C39.3473258,25.5563068 40.2249484,25.0776986 41.0754161,24.5187444 L41.0754161,24.5187444 L41.0754161,24.5187444 Z M43.8070815,22.2147201 L41.8935291,20.3002875 L39.8725127,22.3228116 L41.6693569,24.1210603 C42.0096595,23.8782881 42.3436068,23.6216431 42.6694653,23.3522815 L43.8070815,22.2147201 L43.8070815,22.2147201 L43.8070815,22.2147201 Z M46.1834223,19.5511617 L44.413733,17.7800804 L42.3909834,19.8031825 L44.3045358,21.7176151 L45.273445,20.7482601 C45.5952592,20.3580905 45.8980072,19.9580943 46.1834223,19.5511617 L46.1834223,19.5511617 L46.1834223,19.5511617 Z M47.9762222,16.3043719 L46.9322037,15.2598732 L44.909454,17.2829753 L46.5878567,18.9627281 C47.1413541,18.1026206 47.6012537,17.2107216 47.9762222,16.3043719 L47.9762222,16.3043719 L47.9762222,16.3043719 Z M48.8515337,13.3396603 L47.4290802,14.7627681 L48.2535486,15.5876157 C48.518742,14.8436922 48.7157593,14.0922543 48.8515337,13.3396603 L48.8515337,13.3396603 L48.8515337,13.3396603 Z M48.9537979,12.243717 L47.041401,10.3304405 L45.0192291,12.3523865 L46.9327815,14.2662411 L48.9537979,12.243717 L48.9537979,12.243717 L48.9537979,12.243717 Z M49.0491288,11.3454597 C49.0612619,10.3893994 48.9624643,9.4790035 48.7284701,8.6420173 L47.5382775,9.8333354 L49.0491288,11.3454597 L49.0491288,11.3454597 L49.0491288,11.3454597 Z" id="tennis" fill="#4A90E2"></path>
                <g id="cricket" transform="translate(68.000000, 0.000000)" fill="#4A90E2">
                    <path d="M13.6119118,51.4851485 L13.0668382,11.2906931 C13.0668382,10.3876436 13.7982353,9.78217822 14.7010294,9.78217822 L16.3352206,9.78217822 C17.2380147,9.78217822 17.9699265,10.3876436 17.9699265,11.2906931 L18.5144853,51.5479604" id="Shape"></path>
                    <path d="M22.6470588,51.4851485 L22.6470588,10.6198416 C22.6470588,9.71679208 23.6033824,8.75247525 24.5061765,8.75247525 L26.1403676,8.75247525 C27.0431618,8.75247525 27.7941176,9.71679208 27.7941176,10.6198416 L27.7941176,51.4851485" id="Shape"></path>
                    <path d="M4.89691176,51.4851485 L2.17308824,11.8209901 C2.17308824,10.9179406 2.90448529,10.2970297 3.80727941,10.2970297 L5.44147059,10.2970297 C6.34426471,10.2970297 7.07617647,10.9179406 7.07617647,11.8209901 L9.79948529,51.5402376" id="Shape"></path>
                    <path d="M11.1665441,1.31184158 L9.14477941,1.98063366 C9.14477941,1.98063366 8.73558824,1.47041584 8.46691176,1.5589703 L2.64404412,3.484 C2.37588235,3.57306931 2.35220588,4.22693069 2.35220588,4.22693069 L0.330441176,4.89572277 C0.106544118,4.96934653 0.0509558824,5.40027723 0.143088235,5.67932673 L0.21,5.88217822 C0.301617647,6.16174257 0.684044118,6.71623762 0.907426471,6.64209901 L2.92919118,5.97382178 C2.92919118,5.97382178 3.33889706,6.4840396 3.60654412,6.3949703 L9.43044118,4.46994059 C9.69757353,4.38138614 9.72227941,3.72752475 9.72227941,3.72752475 L11.7430147,3.05873267 C11.9674265,2.98510891 11.9432353,2.31065347 11.8511029,2.03211881 L11.7841912,1.82875248 C11.6925735,1.55021782 11.3899265,1.23718812 11.1665441,1.31184158 L11.1665441,1.31184158 L11.1665441,1.31184158 Z" id="Shape"></path>
                    <path d="M34.5980147,3.94376238 L32.5932353,3.22605941 C32.5932353,3.22605941 32.5839706,2.57168317 32.3178676,2.47643564 L26.5428676,0.409306931 C26.2772794,0.314574257 25.85625,0.815524752 25.85625,0.815524752 L23.8514706,0.0983366337 C23.6296324,0.019049505 23.3202941,0.324356436 23.2209559,0.600831683 L23.1488971,0.802138614 C23.0490441,1.07912871 23.0094118,1.75255446 23.23125,1.83081188 L25.2365441,2.54851485 C25.2365441,2.54851485 25.2458088,3.20289109 25.5113971,3.29762376 L31.2863971,5.36475248 C31.5519853,5.45948515 31.9740441,4.9590495 31.9740441,4.9590495 L33.9783088,5.67572277 C34.2006618,5.75552475 34.5964706,5.20926733 34.6952941,4.93330693 L34.7678676,4.73148515 C34.8651471,4.4550099 34.8193382,4.02253465 34.5980147,3.94376238 L34.5980147,3.94376238 L34.5980147,3.94376238 Z" id="Shape"></path>
                </g>
                <g id="badminton" transform="translate(121.000000, 0.000000)" fill="#4A90E2">
                    <path d="M3.08489902,36.2972683 C-0.513080919,39.8952482 -1.04219562,45.2922181 2.02666963,48.3610834 C5.09553488,51.4299486 10.3866819,50.9008339 14.0904847,47.302854 L15.8894747,45.503864 C16.3127665,45.0805722 16.3127665,44.3398117 15.8894747,43.9165199 L6.57705603,34.6041012 C6.15376427,34.1808095 5.41300369,34.1808095 4.98971194,34.6041012 L3.08489902,36.2972683 L3.08489902,36.2972683 L3.08489902,36.2972683 Z" id="Shape"></path>
                    <path d="M49.4353465,25.7149743 L48.8004089,25.0800367 C48.588763,24.8683908 48.2712942,24.7625678 47.9538254,24.7625678 L43.9325537,24.7625678 C43.297616,24.7625678 42.7685013,24.2334531 42.7685013,23.5985155 L42.7685013,21.6937026 C42.7685013,21.058765 42.2393866,20.5296503 41.604449,20.5296503 L39.805459,20.5296503 C39.1705214,20.5296503 38.6414067,20.0005356 38.6414067,19.3655979 L38.6414067,17.460785 C38.6414067,16.8258474 38.112292,16.2967327 37.4773544,16.2967327 L35.6783644,16.2967327 C35.0434268,16.2967327 34.5143121,15.767618 34.5143121,15.1326803 L34.5143121,13.2278674 C34.5143121,12.5929298 33.9851974,12.0638151 33.3502597,12.0638151 L31.2338009,12.0638151 C30.5988633,12.0638151 30.0697486,11.5347004 30.0697486,10.8997628 L30.0697486,8.67748104 C30.0697486,8.0425434 29.5406339,7.51342871 28.9056963,7.51342871 L27.1067063,7.51342871 C26.4717687,7.51342871 25.942654,6.98431401 25.942654,6.34937637 L25.942654,2.64557349 C25.942654,2.32810467 25.836831,2.01063585 25.6251851,1.79898997 L24.6727787,0.846583516 C24.037841,0.211645879 23.0854346,0.423291758 22.7679658,1.16405233 L8.69351482,30.6886525 L7.63528542,31.7468819 C7.52946248,31.8527048 7.52946248,32.0643507 7.63528542,32.1701736 L18.1117564,42.6466446 C18.2175794,42.7524676 18.4292253,42.7524676 18.5350482,42.6466446 L19.5932776,41.5884152 L49.1178777,27.6197872 C49.8586383,27.3023184 49.9644612,26.244089 49.4353465,25.7149743 L49.4353465,25.7149743 L49.4353465,25.7149743 Z M17.6884647,39.3661335 C17.5826417,39.4719564 17.3709959,39.3661335 17.3709959,39.2603106 L17.3709959,39.2603106 C17.2651729,39.1544876 17.2651729,38.9428417 17.4768188,38.8370188 L20.7573299,36.8263829 C20.9689758,36.72056 21.1806217,36.72056 21.2864446,36.9322059 L21.2864446,36.9322059 C21.3922676,37.1438518 21.3922676,37.3554976 21.1806217,37.4613206 L17.6884647,39.3661335 L17.6884647,39.3661335 L17.6884647,39.3661335 Z M22.8737887,36.1914453 L22.8737887,36.1914453 C22.7679658,35.9797994 22.7679658,35.6623306 22.9796117,35.5565077 L26.4717687,33.5458718 C26.6834145,33.4400489 26.8950604,33.4400489 27.0008834,33.6516948 L27.1067063,33.7575177 C27.2125292,33.9691636 27.2125292,34.2866324 27.0008834,34.3924553 L23.4029034,36.2972683 C23.2970805,36.4030912 22.9796117,36.4030912 22.8737887,36.1914453 L22.8737887,36.1914453 L22.8737887,36.1914453 Z M38.5355838,26.9848496 C38.6414067,27.1964955 38.7472296,27.4081413 38.8530526,27.6197872 C38.9588755,27.8314331 38.8530526,28.043079 38.6414067,28.1489019 L35.2550726,29.9478919 C35.0434268,30.0537148 34.8317809,29.9478919 34.7259579,29.736246 C34.620135,29.5246001 34.5143121,29.4187772 34.4084891,29.2071313 C34.3026662,28.9954854 34.3026662,28.7838395 34.5143121,28.5721937 L37.9006461,26.5615578 C38.112292,26.6673808 38.4297608,26.7732037 38.5355838,26.9848496 L38.5355838,26.9848496 L38.5355838,26.9848496 Z M32.926968,30.2653607 C33.0327909,30.3711836 33.1386138,30.5828295 33.1386138,30.6886525 C33.2444368,30.9002983 33.1386138,31.1119442 32.926968,31.3235901 L29.434811,33.228403 C29.2231651,33.3342259 29.0115192,33.228403 28.9056963,33.1225801 C28.9056963,33.0167571 28.7998733,33.0167571 28.7998733,32.9109342 C28.6940504,32.6992883 28.6940504,32.3818195 28.9056963,32.2759966 L32.3978533,30.2653607 C32.5036762,29.9478919 32.7153221,30.0537148 32.926968,30.2653607 L32.926968,30.2653607 L32.926968,30.2653607 Z M35.8900103,22.6461091 C35.9958332,22.8577549 36.2074791,23.0694008 36.313302,23.2810467 C36.419125,23.4926926 36.419125,23.7043384 36.2074791,23.9159843 L32.821145,26.244089 C32.6094991,26.3499119 32.3978533,26.3499119 32.2920303,26.1382661 C32.1862074,26.0324431 32.0803844,25.8207972 31.9745615,25.7149743 C31.8687386,25.5033284 31.8687386,25.2916825 32.0803844,25.0800367 L35.3608956,22.6461091 C35.5725415,22.4344632 35.7841873,22.5402861 35.8900103,22.6461091 L35.8900103,22.6461091 L35.8900103,22.6461091 Z M30.4930404,26.7732037 C30.5988633,26.8790266 30.7046862,26.9848496 30.8105092,27.1964955 C30.9163321,27.4081413 30.9163321,27.6197872 30.7046862,27.8314331 L27.3183522,30.1595378 C27.1067063,30.2653607 26.8950604,30.2653607 26.7892375,30.0537148 C26.6834145,29.9478919 26.6834145,29.8420689 26.5775916,29.8420689 C26.4717687,29.6304231 26.4717687,29.4187772 26.6834145,29.2071313 L29.9639257,26.7732037 C30.0697486,26.5615578 30.2813945,26.5615578 30.4930404,26.7732037 L30.4930404,26.7732037 L30.4930404,26.7732037 Z M24.9902475,30.9002983 C24.9902475,31.0061213 25.0960704,31.0061213 25.0960704,31.1119442 C25.2018934,31.3235901 25.2018934,31.6410589 24.9902475,31.7468819 L21.7097364,34.0749865 C21.4980905,34.1808095 21.2864446,34.1808095 21.1806217,33.9691636 L21.1806217,33.9691636 C20.9689758,33.7575177 21.0747987,33.5458718 21.2864446,33.3342259 L24.5669557,30.9002983 C24.5669557,30.6886525 24.8844246,30.6886525 24.9902475,30.9002983 L24.9902475,30.9002983 L24.9902475,30.9002983 Z M19.4874546,35.027393 C19.5932776,35.2390389 19.5932776,35.4506847 19.3816317,35.5565077 L16.1011206,37.8846123 C15.9952976,37.9904353 15.7836518,37.9904353 15.6778288,37.8846123 L15.6778288,37.8846123 C15.5720059,37.7787894 15.5720059,37.5671435 15.6778288,37.4613206 L18.852517,35.027393 C19.1699858,34.8157471 19.3816317,34.8157471 19.4874546,35.027393 L19.4874546,35.027393 L19.4874546,35.027393 L19.4874546,35.027393 Z M23.6145493,26.6673808 C23.5087263,26.5615578 23.5087263,26.5615578 23.4029034,26.4557349 C23.1912575,26.244089 23.1912575,26.0324431 23.4029034,25.8207972 L26.2601228,22.8577549 C26.4717687,22.6461091 26.6834145,22.6461091 26.8950604,22.8577549 C27.0008834,22.9635779 27.1067063,23.0694008 27.2125292,23.1752238 L27.3183522,23.2810467 C27.4241751,23.3868696 27.4241751,23.5985155 27.3183522,23.7043384 L24.143664,26.7732037 C24.037841,26.8790266 23.8261952,26.8790266 23.7203722,26.7732037 C23.7203722,26.6673808 23.7203722,26.6673808 23.6145493,26.6673808 L23.6145493,26.6673808 L23.6145493,26.6673808 Z M22.344674,28.5721937 L19.2758088,31.535236 C19.1699858,31.6410589 18.95834,31.6410589 18.852517,31.535236 L18.852517,31.535236 L18.7466941,31.429413 C18.5350482,31.2177672 18.5350482,31.0061213 18.7466941,30.7944754 L21.6039134,27.8314331 C21.8155593,27.6197872 22.0272052,27.6197872 22.2388511,27.8314331 L22.450497,28.043079 L22.450497,28.043079 C22.450497,28.1489019 22.450497,28.3605478 22.344674,28.5721937 L22.344674,28.5721937 L22.344674,28.5721937 Z M16.9477041,32.5934654 C17.053527,32.4876424 17.2651729,32.4876424 17.3709959,32.5934654 L17.5826417,32.8051112 L17.5826417,32.8051112 C17.6884647,32.9109342 17.6884647,33.1225801 17.5826417,33.228403 L14.6195994,36.0856224 C14.5137765,36.1914453 14.3021306,36.1914453 14.1963077,36.0856224 L14.1963077,36.0856224 C14.0904847,35.9797994 14.0904847,35.7681536 14.1963077,35.6623306 L16.9477041,32.5934654 L16.9477041,32.5934654 L16.9477041,32.5934654 Z M32.2920303,18.9423062 L29.2231651,21.9053485 C29.0115192,22.1169944 28.7998733,22.0111714 28.5882274,21.9053485 L28.4824045,21.7995255 C28.3765816,21.6937026 28.2707586,21.5878797 28.1649357,21.4820567 C27.9532898,21.2704108 27.9532898,21.058765 28.1649357,20.8471191 L31.127978,17.7782538 C31.3396239,17.566608 31.5512698,17.566608 31.7629156,17.7782538 L32.2920303,18.3073685 C32.3978533,18.5190144 32.3978533,18.8364832 32.2920303,18.9423062 L32.2920303,18.9423062 L32.2920303,18.9423062 Z M15.1487141,30.5828295 C15.2545371,30.6886525 15.36036,30.9002983 15.2545371,31.1119442 L12.8206095,34.2866324 C12.7147865,34.3924553 12.5031406,34.4982783 12.3973177,34.2866324 L12.3973177,34.2866324 C12.2914948,34.1808095 12.2914948,33.9691636 12.3973177,33.8633406 L14.7254224,30.5828295 C14.6195994,30.4770066 14.9370682,30.4770066 15.1487141,30.5828295 C15.0428912,30.5828295 15.1487141,30.5828295 15.1487141,30.5828295 L15.1487141,30.5828295 L15.1487141,30.5828295 Z M16.2069435,28.9954854 C16.2069435,28.9954854 16.1011206,28.9954854 16.2069435,28.9954854 C15.9952976,28.7838395 15.9952976,28.5721937 16.1011206,28.3605478 L18.4292253,24.9742137 C18.5350482,24.7625678 18.852517,24.7625678 19.0641629,24.8683908 C19.1699858,24.8683908 19.1699858,24.9742137 19.2758088,24.9742137 C19.4874546,25.0800367 19.4874546,25.3975055 19.3816317,25.6091514 L16.9477041,28.8896625 C16.6302353,29.2071313 16.3127665,29.2071313 16.2069435,28.9954854 L16.2069435,28.9954854 L16.2069435,28.9954854 Z M20.3340382,23.5985155 C20.2282152,23.4926926 20.1223923,23.4926926 20.1223923,23.3868696 C19.9107464,23.2810467 19.9107464,22.9635779 20.0165693,22.8577549 L22.344674,19.4714209 C22.450497,19.259775 22.7679658,19.259775 22.9796117,19.3655979 C23.0854346,19.4714209 23.1912575,19.5772438 23.4029034,19.6830667 C23.6145493,19.7888897 23.6145493,20.1063585 23.5087263,20.3180044 L21.0747987,23.5985155 C20.7573299,23.7043384 20.4398611,23.7043384 20.3340382,23.5985155 L20.3340382,23.5985155 L20.3340382,23.5985155 Z M27.635821,14.6035657 L25.0960704,17.9898997 C24.9902475,18.2015456 24.6727787,18.2015456 24.4611328,18.0957227 C24.3553099,17.9898997 24.143664,17.8840768 24.037841,17.7782538 C23.8261952,17.6724309 23.8261952,17.3549621 23.9320181,17.1433162 L26.3659457,13.6511592 C26.4717687,13.4395133 26.7892375,13.4395133 27.0008834,13.5453363 C27.2125292,13.6511592 27.4241751,13.8628051 27.635821,13.968628 C27.7416439,14.1802739 27.7416439,14.4977427 27.635821,14.6035657 L27.635821,14.6035657 L27.635821,14.6035657 Z M22.6621428,11.0055857 C22.8737887,11.1114086 23.0854346,11.2172316 23.2970805,11.3230545 C23.5087263,11.4288775 23.6145493,11.7463463 23.5087263,11.9579922 L21.3922676,15.5559721 C21.2864446,15.767618 20.9689758,15.8734409 20.8631529,15.661795 C20.651507,15.5559721 20.545684,15.4501492 20.3340382,15.3443262 C20.1223923,15.2385033 20.0165693,15.0268574 20.1223923,14.8152115 L22.1330281,11.1114086 C22.1330281,10.8997628 22.450497,10.8997628 22.6621428,11.0055857 L22.6621428,11.0055857 L22.6621428,11.0055857 Z M19.3816317,17.0374933 C19.4874546,17.1433162 19.6991005,17.1433162 19.8049235,17.2491391 C20.0165693,17.3549621 20.1223923,17.6724309 19.9107464,17.8840768 L17.9001106,21.3762338 C17.7942876,21.5878797 17.4768188,21.6937026 17.2651729,21.4820567 C17.15935,21.4820567 17.15935,21.3762338 17.053527,21.3762338 C16.8418812,21.2704108 16.8418812,21.058765 16.9477041,20.8471191 L18.852517,17.3549621 C18.95834,17.0374933 19.1699858,16.9316703 19.3816317,17.0374933 L19.3816317,17.0374933 L19.3816317,17.0374933 Z M16.5244123,23.5985155 L14.5137765,27.0906725 C14.4079536,27.3023184 14.0904847,27.4081413 13.8788389,27.1964955 L13.8788389,27.1964955 C13.667193,27.0906725 13.667193,26.8790266 13.7730159,26.6673808 L15.6778288,23.0694008 C15.7836518,22.8577549 16.1011206,22.751932 16.3127665,22.9635779 L16.4185894,23.0694008 C16.6302353,23.1752238 16.6302353,23.3868696 16.5244123,23.5985155 L16.5244123,23.5985155 L16.5244123,23.5985155 Z M13.0322553,28.8896625 L13.0322553,28.8896625 C13.1380783,28.9954854 13.2439012,29.2071313 13.1380783,29.4187772 L11.1274424,32.8051112 C11.0216195,32.9109342 10.9157965,32.9109342 10.7041507,32.8051112 L10.7041507,32.8051112 C10.5983277,32.6992883 10.5983277,32.5934654 10.5983277,32.4876424 L12.3973177,29.1013084 C12.6089636,28.8896625 12.8206095,28.7838395 13.0322553,28.8896625 L13.0322553,28.8896625 L13.0322553,28.8896625 Z" id="Shape"></path>
                </g>
                <g id="tabletennis" transform="translate(183.000000, 4.000000)" fill="#4A90E2">
                    <ellipse id="Oval" cx="4.87326733" cy="4.88888889" rx="4.55445545" ry="4.58333333"></ellipse>
                    <path d="M8.77135491,19.0861455 L26.2880095,35.8944295 C24.2406083,35.8944295 21.9657181,35.4578507 19.9183169,34.8029825 C19.0083609,34.5846931 15.8235146,34.1481143 14.4585804,35.2395613 C11.5012232,38.0773235 8.99884393,41.7882434 7.6339098,43.0979798 C6.26897568,44.4077162 4.22157449,43.9711374 2.17417329,42.0065328 C0.354261125,40.2602176 -0.328205938,38.0773235 1.03672819,36.7675871 C2.62915134,35.6761401 6.4964647,33.0566673 9.45382197,30.4371944 C10.8187561,29.127458 10.136289,25.6348276 9.90880001,25.1982488 C8.99884393,23.2336441 8.77135491,21.0507501 8.77135491,19.0861455 L8.77135491,19.0861455 L8.77135491,19.0861455 Z M40.6198179,5.33391308 C32.2027241,-2.96108423 20.828273,0.094967408 13.7761134,6.6436495 C11.2737341,9.04483293 9.45382197,12.1008846 8.99884393,15.3752256 L30.1553229,35.6761401 C33.5676582,35.0212719 36.7525045,33.4932461 39.2548837,31.0920626 C46.0795544,24.3250911 49.2644007,13.410621 40.6198179,5.33391308 L40.6198179,5.33391308 L40.6198179,5.33391308 Z" id="Shape"></path>
                </g>
                <g id="snooker" transform="translate(244.000000, 4.000000)" fill="#4A90E2">
                    <path d="M24.2018333,0.173554217 C12.6834643,-1.31383133 2.15307143,6.93077108 0.683904762,18.5894699 C-0.788845238,30.2471325 7.35658333,40.9018072 18.8754643,42.3891928 C30.3969048,43.8802048 40.9232024,35.6366386 42.3959524,23.9763855 C43.8687024,12.3187229 35.7196905,1.66145783 24.2018333,0.173554217 L24.2018333,0.173554217 L24.2018333,0.173554217 Z M19.6233571,30.0507831 C13.8685238,30.5807711 8.78019048,26.3035663 8.25088095,20.4726627 C7.72669048,14.6562651 11.9662857,9.50610843 17.7185595,8.97145783 C23.4708333,8.43318072 28.5642857,12.7248916 29.0879643,18.5516506 C29.6126667,24.3706386 25.3766548,29.5176867 19.6233571,30.0507831 L19.6233571,30.0507831 L19.6233571,30.0507831 Z" id="Shape"></path>
                    <path d="M19.9023452,18.1858916 C20.5309643,17.7413855 20.9855357,17.0373253 20.8954405,16.0452169 C20.7628571,14.6324337 19.4457262,13.4128916 17.484619,13.5973253 C15.5142976,13.7688072 14.4362262,15.2178554 14.5621548,16.6353012 C14.6507143,17.6237831 15.2240476,18.2309639 15.9038571,18.5537229 C14.7305714,19.1790361 13.9529881,20.2483373 14.0804524,21.6844337 C14.2626905,23.6924819 16.0569167,25.0420602 18.495119,24.8151446 C20.9292262,24.5897831 22.4557262,22.932988 22.2734881,20.9233855 C22.1419286,19.4940241 21.1846667,18.5863614 19.9023452,18.1858916 L19.9023452,18.1858916 L19.9023452,18.1858916 Z M16.6445833,16.5612169 C16.5913452,15.9094819 16.9757857,15.4126506 17.6417738,15.358253 C18.3087857,15.2986747 18.775131,15.7058795 18.8355357,16.3602048 C18.8959405,17.020747 18.5099643,17.5362289 17.8434643,17.5958072 C17.1749167,17.659012 16.7101071,17.2233133 16.6445833,16.5612169 L16.6445833,16.5612169 L16.6445833,16.5612169 Z M18.3318214,22.9708072 C17.1472738,23.0842651 16.3297619,22.3423855 16.2330119,21.2751566 C16.13575,20.2162169 16.813,19.364506 17.9960119,19.2588193 C19.1657143,19.1536506 19.9919286,19.8608193 20.0856071,20.9239036 C20.1838929,21.9812892 19.5025476,22.8682289 18.3318214,22.9708072 L18.3318214,22.9708072 L18.3318214,22.9708072 Z" id="Shape"></path>
                </g>
                <path d="M6.7764917,86.7522491 C5.6862521,85.66093 5.1778203,84.2193253 5.2246192,82.7904372 C6.6863606,82.6251209 8.2064561,83.0806078 9.3261616,84.2008284 C10.4452893,85.3204709 10.9005668,86.8406876 10.7353265,88.3048355 C9.3076731,88.3504998 7.8661534,87.8429902 6.7764917,86.7522491 L6.7764917,86.7522491 L6.7764917,86.7522491 Z M15.9011091,83.1355206 C15.9473302,81.7072105 15.4388984,80.2650278 14.3492366,79.1754428 C13.2595748,78.0847017 11.8180551,77.5766141 10.3904018,77.6222784 C10.2257392,79.0852702 10.6810167,80.606643 11.8001445,81.7257075 C12.9181166,82.845928 14.4387899,83.300837 15.9011091,83.1355206 L15.9011091,83.1355206 L15.9011091,83.1355206 Z M11.44482,88.23605 C12.5079046,88.058017 13.5293903,87.5724725 14.3492366,86.750515 C15.1696606,85.9314477 15.6561374,84.9083361 15.832933,83.8453404 C14.2105734,83.9858015 12.5414149,83.4632632 11.3026902,82.2233906 C10.0639654,80.984096 9.5410896,79.3141698 9.6814861,77.6910639 C8.6184014,77.8679408 7.5969157,78.3546414 6.7764917,79.1754428 C5.9566454,79.9956662 5.4690131,81.0181998 5.2927953,82.0811954 C6.9151549,81.9407343 8.5843134,82.4644287 9.8236159,83.7031453 C11.0623406,84.9424398 11.5857942,86.6141001 11.44482,88.23605 L11.44482,88.23605 L11.44482,88.23605 Z M51.8264375,73.0737669 C51.5641329,74.7957158 51.0019691,76.5101503 50.2017668,78.1650478 C49.2057027,80.2910391 47.7971155,82.3141412 46.0176042,84.0933149 C43.2125629,86.9031147 39.8384247,88.8007845 36.4244207,89.5603148 C35.7859921,89.7406599 35.1360083,89.9071323 34.4594474,90.0475934 C26.2760065,91.7475772 20.4683288,94.3365698 16.6903339,97.936535 C16.9381944,98.489131 16.8451745,99.157911 16.3933635,99.609352 L15.9802627,100.023221 L13.310418,97.350992 C13.1740658,97.214577 12.9498936,97.214577 12.8135415,97.350992 C12.675456,97.488563 12.675456,97.711682 12.8135415,97.847519 L15.4833862,100.519748 L14.2342617,101.770025 L11.5638392,99.098374 C11.4274871,98.960803 11.2033149,98.960803 11.0669627,99.098374 C10.929455,99.234789 10.929455,99.459064 11.0669627,99.594901 L13.7373852,102.26713 L12.4871051,103.516251 L9.8166827,100.845756 C9.6803305,100.708185 9.4561583,100.708185 9.3198062,100.845756 C9.1822985,100.982171 9.1822985,101.206446 9.3198062,101.342283 L11.9902286,104.012778 L10.7399486,105.264789 L8.0689484,102.593138 C7.9325962,102.455568 7.708424,102.455568 7.5720719,102.593138 C7.4345642,102.729553 7.4345642,102.953829 7.5720719,103.089666 L10.2430721,105.761894 L8.9927921,107.012171 L6.3223696,104.340521 C6.1860175,104.20295 5.9618453,104.20295 5.8260709,104.340521 C5.6879854,104.476936 5.6879854,104.700633 5.8260709,104.837048 L8.4993821,107.512167 C7.9239298,108.105803 7.266435,109.189607 7.0220411,109.959542 L6.660939,111.099994 C6.4113452,111.886113 5.9000246,112.221948 5.5250561,111.845651 C5.1500877,111.468776 4.3649072,110.683235 3.78136619,110.100581 L1.89554644,108.214472 C1.3120054,107.631241 0.52798047,106.846855 0.15358978,106.471136 C-0.22195643,106.095417 0.1154574,105.585017 0.90121562,105.333575 L2.03883176,104.972885 C2.82458999,104.724332 3.945451,104.042258 4.528992,103.459026 L12.384841,95.5984075 C12.836652,95.1469667 13.5068576,95.0556381 14.0586216,95.3018785 C17.6586654,91.5204117 20.2464677,85.7106406 21.9433588,77.5240135 C22.9197789,72.8148098 24.8807079,69.0385453 27.9376541,65.980771 C34.5559339,59.3640711 43.9873437,58.0334479 48.9670864,63.0143253 C51.4225809,65.4703712 52.4377112,69.0431695 51.8264375,73.0737669 L51.8264375,73.0737669 L51.8264375,73.0737669 Z M47.0084685,65.5391567 L45.1266931,67.4217977 L47.0408232,69.3368083 L48.4765653,67.9004058 C48.1351071,67.011975 47.6422749,66.218919 47.0084685,65.5391567 L47.0084685,65.5391567 L47.0084685,65.5391567 Z M29.5189925,82.0430455 L31.5411644,80.0199434 L29.627612,78.1060888 L27.6054401,80.1291909 L29.5189925,82.0430455 L29.5189925,82.0430455 L29.5189925,82.0430455 Z M27.1085636,80.626296 L25.5780683,82.1574953 C25.8652167,82.9690482 26.2690734,83.7083475 26.7936825,84.3568962 L26.9993663,84.5632527 L29.0215382,82.5401506 L27.1085636,80.626296 L27.1085636,80.626296 L27.1085636,80.626296 Z M34.5559339,77.0037872 L36.5769502,74.9806851 L34.6651311,73.0662525 L32.6423815,75.0893546 L34.5559339,77.0037872 L34.5559339,77.0037872 L34.5559339,77.0037872 Z M32.1460827,75.5858817 L30.1250663,77.6089837 L32.0386187,79.5228383 L34.0596351,77.4997362 L32.1460827,75.5858817 L32.1460827,75.5858817 L32.1460827,75.5858817 Z M37.0738268,74.48358 L39.0959987,72.4604779 L37.1824463,70.5466234 L35.1614299,72.5697255 L37.0738268,74.48358 L37.0738268,74.48358 L37.0738268,74.48358 Z M35.0528104,77.5003143 L36.9663628,79.4147469 L38.9873792,77.3922228 L37.0738268,75.4777902 L35.0528104,77.5003143 L35.0528104,77.5003143 L35.0528104,77.5003143 Z M39.4836779,76.8956957 L41.5064276,74.8725937 L39.5928752,72.9581611 L37.5701255,74.9812631 L39.4836779,76.8956957 L39.4836779,76.8956957 L39.4836779,76.8956957 Z M42.0033041,74.3754886 L44.025476,72.3523865 L42.1119236,70.4373759 L40.089174,72.4604779 L42.0033041,74.3754886 L42.0033041,74.3754886 L42.0033041,74.3754886 Z M42.1125014,69.4437437 L44.1335178,67.4212197 L42.2216987,65.5067871 L40.198949,67.5298891 L42.1125014,69.4437437 L42.1125014,69.4437437 L42.1125014,69.4437437 Z M39.7020725,68.0269942 L37.6799006,70.0500963 L39.593453,71.9633729 L41.6162026,69.9408488 L39.7020725,68.0269942 L39.7020725,68.0269942 L39.7020725,68.0269942 Z M39.205196,67.5298891 L37.2916436,65.6154565 L35.2706272,67.6385586 L37.1824463,69.5529912 L39.205196,67.5298891 L39.205196,67.5298891 L39.205196,67.5298891 Z M34.7743284,68.1356637 L32.7521565,70.1593438 L34.6657089,72.0726204 L36.6867253,70.0500963 L34.7743284,68.1356637 L34.7743284,68.1356637 L34.7743284,68.1356637 Z M32.2547022,70.6558709 L30.2336858,72.678973 L32.1460827,74.5928275 L34.1682546,72.5697255 L32.2547022,70.6558709 L32.2547022,70.6558709 L32.2547022,70.6558709 Z M29.7373871,73.1755 L27.7146374,75.1986021 L29.6281898,77.1130347 L31.6492062,75.0899326 L29.7373871,73.1755 L29.7373871,73.1755 L29.7373871,73.1755 Z M30.0152913,82.5401506 L31.9288437,84.4545832 L33.9515933,82.4314811 L32.0380409,80.5170485 L30.0152913,82.5401506 L30.0152913,82.5401506 L30.0152913,82.5401506 Z M34.4478921,81.934954 L36.4689085,79.9118519 L34.5553561,77.9974193 L32.5343397,80.0205214 L34.4478921,81.934954 L34.4478921,81.934954 L34.4478921,81.934954 Z M34.9447686,82.4320591 L36.8565877,84.3459137 L38.8793374,82.3228116 L36.965785,80.408379 L34.9447686,82.4320591 L34.9447686,82.4320591 L34.9447686,82.4320591 Z M39.3756362,81.8257065 L41.3972303,79.8026044 L39.4836779,77.8887499 L37.4626615,79.9106959 L39.3756362,81.8257065 L39.3756362,81.8257065 L39.3756362,81.8257065 Z M41.8941068,79.3060774 L43.9168565,77.2829753 L42.0033041,75.3691207 L39.9805545,77.3922228 L41.8941068,79.3060774 L41.8941068,79.3060774 L41.8941068,79.3060774 Z M44.4131553,76.7858702 L46.435905,74.7627681 L44.5223526,72.8494916 L42.4996029,74.8720156 L44.4131553,76.7858702 L44.4131553,76.7858702 L44.4131553,76.7858702 Z M44.5229303,71.8552814 L46.5451022,69.8333354 L44.6309721,67.9183247 L42.6093779,69.9408488 L44.5229303,71.8552814 L44.5229303,71.8552814 L44.5229303,71.8552814 Z M44.0832524,63.6443771 L42.7185752,65.01026 L44.6309721,66.9246926 L46.4907925,65.0645947 C45.7916988,64.4489937 44.9903409,63.9651833 44.0832524,63.6443771 L44.0832524,63.6443771 L44.0832524,63.6443771 Z M40.8443107,63.1374455 L42.2216987,64.5137329 L43.3009607,63.4328184 C42.5735566,63.2524733 41.8120644,63.128197 40.9904849,63.128197 C40.941375,63.128197 40.8916873,63.1362894 40.8443107,63.1374455 L40.8443107,63.1374455 L40.8443107,63.1374455 Z M39.6997614,63.2079651 L37.7885201,65.1189295 L39.7020725,67.0333621 L41.7248222,65.01026 L39.9094896,63.1952484 C39.8384247,63.2021848 39.7702486,63.2004507 39.6997614,63.2079651 L39.6997614,63.2079651 L39.6997614,63.2079651 Z M36.6121938,63.9420621 L37.2922213,64.6218244 L38.504369,63.4108533 C37.8734513,63.5438 37.2431114,63.7160527 36.6121938,63.9420621 L36.6121938,63.9420621 L36.6121938,63.9420621 Z M33.2524996,65.6195027 L34.7743284,67.1420316 L36.7953448,65.1189295 L35.9055892,64.2281865 C35.0019672,64.6027494 34.1151004,65.0686409 33.2524996,65.6195027 L33.2524996,65.6195027 L33.2524996,65.6195027 Z M30.4278143,67.8333545 L32.2547022,69.6622387 L34.2774519,67.6391367 L32.6452703,66.0062043 C31.8699118,66.5449274 31.1321079,67.1634186 30.4278143,67.8333545 L30.4278143,67.8333545 L30.4278143,67.8333545 Z M28.0763173,70.5206121 L29.7373871,72.1818679 L31.7584035,70.1593438 L29.9228491,68.3212111 C29.2399328,69.0200483 28.6263481,69.7558795 28.0763173,70.5206121 L28.0763173,70.5206121 L28.0763173,70.5206121 Z M26.240763,73.7240497 L27.2177609,74.701497 L29.2399328,72.6783949 L27.6707274,71.1090457 C27.1114524,71.9558585 26.6284422,72.8298386 26.240763,73.7240497 L26.240763,73.7240497 L26.240763,73.7240497 Z M25.3411853,76.5789358 L26.7208843,75.1986021 L25.9634365,74.4408059 C25.6982431,75.1483136 25.4908261,75.8610235 25.3411853,76.5789358 L25.3411853,76.5789358 L25.3411853,76.5789358 Z M25.1961667,77.7182313 L27.1085636,79.6326639 L29.1313133,77.6095618 L27.2177609,75.6951292 L25.1961667,77.7182313 L25.1961667,77.7182313 L25.1961667,77.7182313 Z M25.0777252,78.5939454 C25.0355485,79.5864215 25.1274129,80.5257189 25.3446519,81.3973869 L26.6116871,80.1297689 L25.0777252,78.5939454 L25.0777252,78.5939454 L25.0777252,78.5939454 Z M29.0030498,89.2302602 C28.8880749,89.1892201 28.7725222,89.147602 28.6587028,89.1013597 C27.3263804,88.6048326 26.1350323,87.8533947 25.1355016,86.8539822 C24.042951,85.7603511 23.2618149,84.4326181 22.7712937,82.9465051 C21.3956391,87.7250722 19.6230609,91.5782146 17.4148492,94.5793421 C20.4065081,92.3753169 24.2428571,90.6065476 29.0030498,89.2302602 L29.0030498,89.2302602 L29.0030498,89.2302602 Z M29.8286737,86.5551412 L31.4319671,84.9516883 L29.5184147,83.0366776 L27.4956651,85.0597797 L27.644728,85.2089112 C28.2877787,85.7730677 29.0082497,86.2395372 29.8286737,86.5551412 L29.8286737,86.5551412 L29.8286737,86.5551412 Z M33.5899134,87.1112052 L31.9288437,85.4487933 L30.6040322,86.7736362 C31.395568,86.9921312 32.2287029,87.1383726 33.1352136,87.1383726 C33.2854321,87.1383726 33.4379617,87.1164075 33.5899134,87.1112052 L33.5899134,87.1112052 L33.5899134,87.1112052 Z M36.360289,84.8424407 L34.4478921,82.9285862 L32.4257202,84.9516883 L34.3392726,86.8649648 L36.360289,84.8424407 L36.360289,84.8424407 L36.360289,84.8424407 Z M37.7463434,86.2291327 L36.8565877,85.3395458 L35.2804492,86.9169874 C36.1002954,86.7666998 36.9264971,86.5406904 37.7463434,86.2291327 L37.7463434,86.2291327 L37.7463434,86.2291327 Z M41.0754161,84.5187444 L39.3762139,82.8199167 L37.354042,84.8430188 L38.4552591,85.9441643 C39.3473258,85.5563068 40.2249484,85.0776986 41.0754161,84.5187444 L41.0754161,84.5187444 L41.0754161,84.5187444 Z M43.8070815,82.2147201 L41.8935291,80.3002875 L39.8725127,82.3228116 L41.6693569,84.1210603 C42.0096595,83.8782881 42.3436068,83.6216431 42.6694653,83.3522815 L43.8070815,82.2147201 L43.8070815,82.2147201 L43.8070815,82.2147201 Z M46.1834223,79.5511617 L44.413733,77.7800804 L42.3909834,79.8031825 L44.3045358,81.7176151 L45.273445,80.7482601 C45.5952592,80.3580905 45.8980072,79.9580943 46.1834223,79.5511617 L46.1834223,79.5511617 L46.1834223,79.5511617 Z M47.9762222,76.3043719 L46.9322037,75.2598732 L44.909454,77.2829753 L46.5878567,78.9627281 C47.1413541,78.1026206 47.6012537,77.2107216 47.9762222,76.3043719 L47.9762222,76.3043719 L47.9762222,76.3043719 Z M48.8515337,73.3396603 L47.4290802,74.7627681 L48.2535486,75.5876157 C48.518742,74.8436922 48.7157593,74.0922543 48.8515337,73.3396603 L48.8515337,73.3396603 L48.8515337,73.3396603 Z M48.9537979,72.243717 L47.041401,70.3304405 L45.0192291,72.3523865 L46.9327815,74.2662411 L48.9537979,72.243717 L48.9537979,72.243717 L48.9537979,72.243717 Z M49.0491288,71.3454597 C49.0612619,70.3893994 48.9624643,69.4790035 48.7284701,68.6420173 L47.5382775,69.8333354 L49.0491288,71.3454597 L49.0491288,71.3454597 L49.0491288,71.3454597 Z" id="tennis_white" fill="#FFFFFF"></path>
                <g id="cricket_white" transform="translate(68.000000, 60.000000)" fill="#FFFFFF">
                    <path d="M13.6119118,51.4851485 L13.0668382,11.2906931 C13.0668382,10.3876436 13.7982353,9.78217822 14.7010294,9.78217822 L16.3352206,9.78217822 C17.2380147,9.78217822 17.9699265,10.3876436 17.9699265,11.2906931 L18.5144853,51.5479604" id="Shape"></path>
                    <path d="M22.6470588,51.4851485 L22.6470588,10.6198416 C22.6470588,9.71679208 23.6033824,8.75247525 24.5061765,8.75247525 L26.1403676,8.75247525 C27.0431618,8.75247525 27.7941176,9.71679208 27.7941176,10.6198416 L27.7941176,51.4851485" id="Shape"></path>
                    <path d="M4.89691176,51.4851485 L2.17308824,11.8209901 C2.17308824,10.9179406 2.90448529,10.2970297 3.80727941,10.2970297 L5.44147059,10.2970297 C6.34426471,10.2970297 7.07617647,10.9179406 7.07617647,11.8209901 L9.79948529,51.5402376" id="Shape"></path>
                    <path d="M11.1665441,1.31184158 L9.14477941,1.98063366 C9.14477941,1.98063366 8.73558824,1.47041584 8.46691176,1.5589703 L2.64404412,3.484 C2.37588235,3.57306931 2.35220588,4.22693069 2.35220588,4.22693069 L0.330441176,4.89572277 C0.106544118,4.96934653 0.0509558824,5.40027723 0.143088235,5.67932673 L0.21,5.88217822 C0.301617647,6.16174257 0.684044118,6.71623762 0.907426471,6.64209901 L2.92919118,5.97382178 C2.92919118,5.97382178 3.33889706,6.4840396 3.60654412,6.3949703 L9.43044118,4.46994059 C9.69757353,4.38138614 9.72227941,3.72752475 9.72227941,3.72752475 L11.7430147,3.05873267 C11.9674265,2.98510891 11.9432353,2.31065347 11.8511029,2.03211881 L11.7841912,1.82875248 C11.6925735,1.55021782 11.3899265,1.23718812 11.1665441,1.31184158 L11.1665441,1.31184158 L11.1665441,1.31184158 Z" id="Shape"></path>
                    <path d="M34.5980147,3.94376238 L32.5932353,3.22605941 C32.5932353,3.22605941 32.5839706,2.57168317 32.3178676,2.47643564 L26.5428676,0.409306931 C26.2772794,0.314574257 25.85625,0.815524752 25.85625,0.815524752 L23.8514706,0.0983366337 C23.6296324,0.019049505 23.3202941,0.324356436 23.2209559,0.600831683 L23.1488971,0.802138614 C23.0490441,1.07912871 23.0094118,1.75255446 23.23125,1.83081188 L25.2365441,2.54851485 C25.2365441,2.54851485 25.2458088,3.20289109 25.5113971,3.29762376 L31.2863971,5.36475248 C31.5519853,5.45948515 31.9740441,4.9590495 31.9740441,4.9590495 L33.9783088,5.67572277 C34.2006618,5.75552475 34.5964706,5.20926733 34.6952941,4.93330693 L34.7678676,4.73148515 C34.8651471,4.4550099 34.8193382,4.02253465 34.5980147,3.94376238 L34.5980147,3.94376238 L34.5980147,3.94376238 Z" id="Shape"></path>
                </g>
                <g id="badminton_white" transform="translate(121.000000, 60.000000)" fill="#FFFFFF">
                    <path d="M3.08489902,36.2972683 C-0.513080919,39.8952482 -1.04219562,45.2922181 2.02666963,48.3610834 C5.09553488,51.4299486 10.3866819,50.9008339 14.0904847,47.302854 L15.8894747,45.503864 C16.3127665,45.0805722 16.3127665,44.3398117 15.8894747,43.9165199 L6.57705603,34.6041012 C6.15376427,34.1808095 5.41300369,34.1808095 4.98971194,34.6041012 L3.08489902,36.2972683 L3.08489902,36.2972683 L3.08489902,36.2972683 Z" id="Shape"></path>
                    <path d="M49.4353465,25.7149743 L48.8004089,25.0800367 C48.588763,24.8683908 48.2712942,24.7625678 47.9538254,24.7625678 L43.9325537,24.7625678 C43.297616,24.7625678 42.7685013,24.2334531 42.7685013,23.5985155 L42.7685013,21.6937026 C42.7685013,21.058765 42.2393866,20.5296503 41.604449,20.5296503 L39.805459,20.5296503 C39.1705214,20.5296503 38.6414067,20.0005356 38.6414067,19.3655979 L38.6414067,17.460785 C38.6414067,16.8258474 38.112292,16.2967327 37.4773544,16.2967327 L35.6783644,16.2967327 C35.0434268,16.2967327 34.5143121,15.767618 34.5143121,15.1326803 L34.5143121,13.2278674 C34.5143121,12.5929298 33.9851974,12.0638151 33.3502597,12.0638151 L31.2338009,12.0638151 C30.5988633,12.0638151 30.0697486,11.5347004 30.0697486,10.8997628 L30.0697486,8.67748104 C30.0697486,8.0425434 29.5406339,7.51342871 28.9056963,7.51342871 L27.1067063,7.51342871 C26.4717687,7.51342871 25.942654,6.98431401 25.942654,6.34937637 L25.942654,2.64557349 C25.942654,2.32810467 25.836831,2.01063585 25.6251851,1.79898997 L24.6727787,0.846583516 C24.037841,0.211645879 23.0854346,0.423291758 22.7679658,1.16405233 L8.69351482,30.6886525 L7.63528542,31.7468819 C7.52946248,31.8527048 7.52946248,32.0643507 7.63528542,32.1701736 L18.1117564,42.6466446 C18.2175794,42.7524676 18.4292253,42.7524676 18.5350482,42.6466446 L19.5932776,41.5884152 L49.1178777,27.6197872 C49.8586383,27.3023184 49.9644612,26.244089 49.4353465,25.7149743 L49.4353465,25.7149743 L49.4353465,25.7149743 Z M17.6884647,39.3661335 C17.5826417,39.4719564 17.3709959,39.3661335 17.3709959,39.2603106 L17.3709959,39.2603106 C17.2651729,39.1544876 17.2651729,38.9428417 17.4768188,38.8370188 L20.7573299,36.8263829 C20.9689758,36.72056 21.1806217,36.72056 21.2864446,36.9322059 L21.2864446,36.9322059 C21.3922676,37.1438518 21.3922676,37.3554976 21.1806217,37.4613206 L17.6884647,39.3661335 L17.6884647,39.3661335 L17.6884647,39.3661335 Z M22.8737887,36.1914453 L22.8737887,36.1914453 C22.7679658,35.9797994 22.7679658,35.6623306 22.9796117,35.5565077 L26.4717687,33.5458718 C26.6834145,33.4400489 26.8950604,33.4400489 27.0008834,33.6516948 L27.1067063,33.7575177 C27.2125292,33.9691636 27.2125292,34.2866324 27.0008834,34.3924553 L23.4029034,36.2972683 C23.2970805,36.4030912 22.9796117,36.4030912 22.8737887,36.1914453 L22.8737887,36.1914453 L22.8737887,36.1914453 Z M38.5355838,26.9848496 C38.6414067,27.1964955 38.7472296,27.4081413 38.8530526,27.6197872 C38.9588755,27.8314331 38.8530526,28.043079 38.6414067,28.1489019 L35.2550726,29.9478919 C35.0434268,30.0537148 34.8317809,29.9478919 34.7259579,29.736246 C34.620135,29.5246001 34.5143121,29.4187772 34.4084891,29.2071313 C34.3026662,28.9954854 34.3026662,28.7838395 34.5143121,28.5721937 L37.9006461,26.5615578 C38.112292,26.6673808 38.4297608,26.7732037 38.5355838,26.9848496 L38.5355838,26.9848496 L38.5355838,26.9848496 Z M32.926968,30.2653607 C33.0327909,30.3711836 33.1386138,30.5828295 33.1386138,30.6886525 C33.2444368,30.9002983 33.1386138,31.1119442 32.926968,31.3235901 L29.434811,33.228403 C29.2231651,33.3342259 29.0115192,33.228403 28.9056963,33.1225801 C28.9056963,33.0167571 28.7998733,33.0167571 28.7998733,32.9109342 C28.6940504,32.6992883 28.6940504,32.3818195 28.9056963,32.2759966 L32.3978533,30.2653607 C32.5036762,29.9478919 32.7153221,30.0537148 32.926968,30.2653607 L32.926968,30.2653607 L32.926968,30.2653607 Z M35.8900103,22.6461091 C35.9958332,22.8577549 36.2074791,23.0694008 36.313302,23.2810467 C36.419125,23.4926926 36.419125,23.7043384 36.2074791,23.9159843 L32.821145,26.244089 C32.6094991,26.3499119 32.3978533,26.3499119 32.2920303,26.1382661 C32.1862074,26.0324431 32.0803844,25.8207972 31.9745615,25.7149743 C31.8687386,25.5033284 31.8687386,25.2916825 32.0803844,25.0800367 L35.3608956,22.6461091 C35.5725415,22.4344632 35.7841873,22.5402861 35.8900103,22.6461091 L35.8900103,22.6461091 L35.8900103,22.6461091 Z M30.4930404,26.7732037 C30.5988633,26.8790266 30.7046862,26.9848496 30.8105092,27.1964955 C30.9163321,27.4081413 30.9163321,27.6197872 30.7046862,27.8314331 L27.3183522,30.1595378 C27.1067063,30.2653607 26.8950604,30.2653607 26.7892375,30.0537148 C26.6834145,29.9478919 26.6834145,29.8420689 26.5775916,29.8420689 C26.4717687,29.6304231 26.4717687,29.4187772 26.6834145,29.2071313 L29.9639257,26.7732037 C30.0697486,26.5615578 30.2813945,26.5615578 30.4930404,26.7732037 L30.4930404,26.7732037 L30.4930404,26.7732037 Z M24.9902475,30.9002983 C24.9902475,31.0061213 25.0960704,31.0061213 25.0960704,31.1119442 C25.2018934,31.3235901 25.2018934,31.6410589 24.9902475,31.7468819 L21.7097364,34.0749865 C21.4980905,34.1808095 21.2864446,34.1808095 21.1806217,33.9691636 L21.1806217,33.9691636 C20.9689758,33.7575177 21.0747987,33.5458718 21.2864446,33.3342259 L24.5669557,30.9002983 C24.5669557,30.6886525 24.8844246,30.6886525 24.9902475,30.9002983 L24.9902475,30.9002983 L24.9902475,30.9002983 Z M19.4874546,35.027393 C19.5932776,35.2390389 19.5932776,35.4506847 19.3816317,35.5565077 L16.1011206,37.8846123 C15.9952976,37.9904353 15.7836518,37.9904353 15.6778288,37.8846123 L15.6778288,37.8846123 C15.5720059,37.7787894 15.5720059,37.5671435 15.6778288,37.4613206 L18.852517,35.027393 C19.1699858,34.8157471 19.3816317,34.8157471 19.4874546,35.027393 L19.4874546,35.027393 L19.4874546,35.027393 L19.4874546,35.027393 Z M23.6145493,26.6673808 C23.5087263,26.5615578 23.5087263,26.5615578 23.4029034,26.4557349 C23.1912575,26.244089 23.1912575,26.0324431 23.4029034,25.8207972 L26.2601228,22.8577549 C26.4717687,22.6461091 26.6834145,22.6461091 26.8950604,22.8577549 C27.0008834,22.9635779 27.1067063,23.0694008 27.2125292,23.1752238 L27.3183522,23.2810467 C27.4241751,23.3868696 27.4241751,23.5985155 27.3183522,23.7043384 L24.143664,26.7732037 C24.037841,26.8790266 23.8261952,26.8790266 23.7203722,26.7732037 C23.7203722,26.6673808 23.7203722,26.6673808 23.6145493,26.6673808 L23.6145493,26.6673808 L23.6145493,26.6673808 Z M22.344674,28.5721937 L19.2758088,31.535236 C19.1699858,31.6410589 18.95834,31.6410589 18.852517,31.535236 L18.852517,31.535236 L18.7466941,31.429413 C18.5350482,31.2177672 18.5350482,31.0061213 18.7466941,30.7944754 L21.6039134,27.8314331 C21.8155593,27.6197872 22.0272052,27.6197872 22.2388511,27.8314331 L22.450497,28.043079 L22.450497,28.043079 C22.450497,28.1489019 22.450497,28.3605478 22.344674,28.5721937 L22.344674,28.5721937 L22.344674,28.5721937 Z M16.9477041,32.5934654 C17.053527,32.4876424 17.2651729,32.4876424 17.3709959,32.5934654 L17.5826417,32.8051112 L17.5826417,32.8051112 C17.6884647,32.9109342 17.6884647,33.1225801 17.5826417,33.228403 L14.6195994,36.0856224 C14.5137765,36.1914453 14.3021306,36.1914453 14.1963077,36.0856224 L14.1963077,36.0856224 C14.0904847,35.9797994 14.0904847,35.7681536 14.1963077,35.6623306 L16.9477041,32.5934654 L16.9477041,32.5934654 L16.9477041,32.5934654 Z M32.2920303,18.9423062 L29.2231651,21.9053485 C29.0115192,22.1169944 28.7998733,22.0111714 28.5882274,21.9053485 L28.4824045,21.7995255 C28.3765816,21.6937026 28.2707586,21.5878797 28.1649357,21.4820567 C27.9532898,21.2704108 27.9532898,21.058765 28.1649357,20.8471191 L31.127978,17.7782538 C31.3396239,17.566608 31.5512698,17.566608 31.7629156,17.7782538 L32.2920303,18.3073685 C32.3978533,18.5190144 32.3978533,18.8364832 32.2920303,18.9423062 L32.2920303,18.9423062 L32.2920303,18.9423062 Z M15.1487141,30.5828295 C15.2545371,30.6886525 15.36036,30.9002983 15.2545371,31.1119442 L12.8206095,34.2866324 C12.7147865,34.3924553 12.5031406,34.4982783 12.3973177,34.2866324 L12.3973177,34.2866324 C12.2914948,34.1808095 12.2914948,33.9691636 12.3973177,33.8633406 L14.7254224,30.5828295 C14.6195994,30.4770066 14.9370682,30.4770066 15.1487141,30.5828295 C15.0428912,30.5828295 15.1487141,30.5828295 15.1487141,30.5828295 L15.1487141,30.5828295 L15.1487141,30.5828295 Z M16.2069435,28.9954854 C16.2069435,28.9954854 16.1011206,28.9954854 16.2069435,28.9954854 C15.9952976,28.7838395 15.9952976,28.5721937 16.1011206,28.3605478 L18.4292253,24.9742137 C18.5350482,24.7625678 18.852517,24.7625678 19.0641629,24.8683908 C19.1699858,24.8683908 19.1699858,24.9742137 19.2758088,24.9742137 C19.4874546,25.0800367 19.4874546,25.3975055 19.3816317,25.6091514 L16.9477041,28.8896625 C16.6302353,29.2071313 16.3127665,29.2071313 16.2069435,28.9954854 L16.2069435,28.9954854 L16.2069435,28.9954854 Z M20.3340382,23.5985155 C20.2282152,23.4926926 20.1223923,23.4926926 20.1223923,23.3868696 C19.9107464,23.2810467 19.9107464,22.9635779 20.0165693,22.8577549 L22.344674,19.4714209 C22.450497,19.259775 22.7679658,19.259775 22.9796117,19.3655979 C23.0854346,19.4714209 23.1912575,19.5772438 23.4029034,19.6830667 C23.6145493,19.7888897 23.6145493,20.1063585 23.5087263,20.3180044 L21.0747987,23.5985155 C20.7573299,23.7043384 20.4398611,23.7043384 20.3340382,23.5985155 L20.3340382,23.5985155 L20.3340382,23.5985155 Z M27.635821,14.6035657 L25.0960704,17.9898997 C24.9902475,18.2015456 24.6727787,18.2015456 24.4611328,18.0957227 C24.3553099,17.9898997 24.143664,17.8840768 24.037841,17.7782538 C23.8261952,17.6724309 23.8261952,17.3549621 23.9320181,17.1433162 L26.3659457,13.6511592 C26.4717687,13.4395133 26.7892375,13.4395133 27.0008834,13.5453363 C27.2125292,13.6511592 27.4241751,13.8628051 27.635821,13.968628 C27.7416439,14.1802739 27.7416439,14.4977427 27.635821,14.6035657 L27.635821,14.6035657 L27.635821,14.6035657 Z M22.6621428,11.0055857 C22.8737887,11.1114086 23.0854346,11.2172316 23.2970805,11.3230545 C23.5087263,11.4288775 23.6145493,11.7463463 23.5087263,11.9579922 L21.3922676,15.5559721 C21.2864446,15.767618 20.9689758,15.8734409 20.8631529,15.661795 C20.651507,15.5559721 20.545684,15.4501492 20.3340382,15.3443262 C20.1223923,15.2385033 20.0165693,15.0268574 20.1223923,14.8152115 L22.1330281,11.1114086 C22.1330281,10.8997628 22.450497,10.8997628 22.6621428,11.0055857 L22.6621428,11.0055857 L22.6621428,11.0055857 Z M19.3816317,17.0374933 C19.4874546,17.1433162 19.6991005,17.1433162 19.8049235,17.2491391 C20.0165693,17.3549621 20.1223923,17.6724309 19.9107464,17.8840768 L17.9001106,21.3762338 C17.7942876,21.5878797 17.4768188,21.6937026 17.2651729,21.4820567 C17.15935,21.4820567 17.15935,21.3762338 17.053527,21.3762338 C16.8418812,21.2704108 16.8418812,21.058765 16.9477041,20.8471191 L18.852517,17.3549621 C18.95834,17.0374933 19.1699858,16.9316703 19.3816317,17.0374933 L19.3816317,17.0374933 L19.3816317,17.0374933 Z M16.5244123,23.5985155 L14.5137765,27.0906725 C14.4079536,27.3023184 14.0904847,27.4081413 13.8788389,27.1964955 L13.8788389,27.1964955 C13.667193,27.0906725 13.667193,26.8790266 13.7730159,26.6673808 L15.6778288,23.0694008 C15.7836518,22.8577549 16.1011206,22.751932 16.3127665,22.9635779 L16.4185894,23.0694008 C16.6302353,23.1752238 16.6302353,23.3868696 16.5244123,23.5985155 L16.5244123,23.5985155 L16.5244123,23.5985155 Z M13.0322553,28.8896625 L13.0322553,28.8896625 C13.1380783,28.9954854 13.2439012,29.2071313 13.1380783,29.4187772 L11.1274424,32.8051112 C11.0216195,32.9109342 10.9157965,32.9109342 10.7041507,32.8051112 L10.7041507,32.8051112 C10.5983277,32.6992883 10.5983277,32.5934654 10.5983277,32.4876424 L12.3973177,29.1013084 C12.6089636,28.8896625 12.8206095,28.7838395 13.0322553,28.8896625 L13.0322553,28.8896625 L13.0322553,28.8896625 Z" id="Shape"></path>
                </g>
                <g id="tabletennis_white" transform="translate(183.000000, 64.000000)" fill="#FFFFFF">
                    <ellipse id="Oval" cx="4.87326733" cy="4.88888889" rx="4.55445545" ry="4.58333333"></ellipse>
                    <path d="M8.77135491,19.0861455 L26.2880095,35.8944295 C24.2406083,35.8944295 21.9657181,35.4578507 19.9183169,34.8029825 C19.0083609,34.5846931 15.8235146,34.1481143 14.4585804,35.2395613 C11.5012232,38.0773235 8.99884393,41.7882434 7.6339098,43.0979798 C6.26897568,44.4077162 4.22157449,43.9711374 2.17417329,42.0065328 C0.354261125,40.2602176 -0.328205938,38.0773235 1.03672819,36.7675871 C2.62915134,35.6761401 6.4964647,33.0566673 9.45382197,30.4371944 C10.8187561,29.127458 10.136289,25.6348276 9.90880001,25.1982488 C8.99884393,23.2336441 8.77135491,21.0507501 8.77135491,19.0861455 L8.77135491,19.0861455 L8.77135491,19.0861455 Z M40.6198179,5.33391308 C32.2027241,-2.96108423 20.828273,0.094967408 13.7761134,6.6436495 C11.2737341,9.04483293 9.45382197,12.1008846 8.99884393,15.3752256 L30.1553229,35.6761401 C33.5676582,35.0212719 36.7525045,33.4932461 39.2548837,31.0920626 C46.0795544,24.3250911 49.2644007,13.410621 40.6198179,5.33391308 L40.6198179,5.33391308 L40.6198179,5.33391308 Z" id="Shape"></path>
                </g>
                <g id="snooker_white" transform="translate(244.000000, 64.000000)" fill="#FFFFFF">
                    <path d="M24.2018333,0.173554217 C12.6834643,-1.31383133 2.15307143,6.93077108 0.683904762,18.5894699 C-0.788845238,30.2471325 7.35658333,40.9018072 18.8754643,42.3891928 C30.3969048,43.8802048 40.9232024,35.6366386 42.3959524,23.9763855 C43.8687024,12.3187229 35.7196905,1.66145783 24.2018333,0.173554217 L24.2018333,0.173554217 L24.2018333,0.173554217 Z M19.6233571,30.0507831 C13.8685238,30.5807711 8.78019048,26.3035663 8.25088095,20.4726627 C7.72669048,14.6562651 11.9662857,9.50610843 17.7185595,8.97145783 C23.4708333,8.43318072 28.5642857,12.7248916 29.0879643,18.5516506 C29.6126667,24.3706386 25.3766548,29.5176867 19.6233571,30.0507831 L19.6233571,30.0507831 L19.6233571,30.0507831 Z" id="Shape"></path>
                    <path d="M19.9023452,18.1858916 C20.5309643,17.7413855 20.9855357,17.0373253 20.8954405,16.0452169 C20.7628571,14.6324337 19.4457262,13.4128916 17.484619,13.5973253 C15.5142976,13.7688072 14.4362262,15.2178554 14.5621548,16.6353012 C14.6507143,17.6237831 15.2240476,18.2309639 15.9038571,18.5537229 C14.7305714,19.1790361 13.9529881,20.2483373 14.0804524,21.6844337 C14.2626905,23.6924819 16.0569167,25.0420602 18.495119,24.8151446 C20.9292262,24.5897831 22.4557262,22.932988 22.2734881,20.9233855 C22.1419286,19.4940241 21.1846667,18.5863614 19.9023452,18.1858916 L19.9023452,18.1858916 L19.9023452,18.1858916 Z M16.6445833,16.5612169 C16.5913452,15.9094819 16.9757857,15.4126506 17.6417738,15.358253 C18.3087857,15.2986747 18.775131,15.7058795 18.8355357,16.3602048 C18.8959405,17.020747 18.5099643,17.5362289 17.8434643,17.5958072 C17.1749167,17.659012 16.7101071,17.2233133 16.6445833,16.5612169 L16.6445833,16.5612169 L16.6445833,16.5612169 Z M18.3318214,22.9708072 C17.1472738,23.0842651 16.3297619,22.3423855 16.2330119,21.2751566 C16.13575,20.2162169 16.813,19.364506 17.9960119,19.2588193 C19.1657143,19.1536506 19.9919286,19.8608193 20.0856071,20.9239036 C20.1838929,21.9812892 19.5025476,22.8682289 18.3318214,22.9708072 L18.3318214,22.9708072 L18.3318214,22.9708072 Z" id="Shape"></path>
                </g>
                <path d="M313.278992,44.9252293 C314.287682,45.4531739 315.127343,45.7486318 315.706421,45.9527385 C323.643809,47.9392437 330.806277,47.3255857 337.075222,42.1461861 C343.211676,36.9982243 346.118917,28.8357704 344.604996,21.0041442 C344.188562,18.849939 343.241944,16.3238888 342.129363,14.3977461 C341.567129,13.4243691 340.344794,11.7372301 339.613295,10.9259918 C338.394482,9.57431499 336.642156,8.10627537 335.092118,7.13770481 C331.37678,4.81611012 326.656143,3.68978683 322.252817,4.07393464 C316.265076,4.59628448 310.643391,7.84937895 306.924313,12.2686434 C303.543236,16.2862686 301.749363,21.9292131 302.028302,27.1904465 C302.136426,29.2301283 302.348654,30.4399098 302.925762,32.3214471 C303.748612,35.0042181 304.638401,36.7912509 306.217141,38.9256283 C308.246638,41.6694115 310.152194,43.288171 313.278992,44.9252293 L313.278992,44.9252293 Z M311.074337,42.6847374 C310.793326,42.5390629 310.46714,42.3131695 310.051405,41.9782949 C308.27823,40.4547089 306.85342,38.6937149 305.843626,36.8375476 C305.843626,36.8375476 306.330424,33.7738921 306.630139,32.2667893 C308.373316,32.3961716 310.167771,32.7722306 311.766289,32.9911007 C312.086881,33.0331452 312.385358,33.074473 312.605151,33.1084907 C312.714974,33.1256907 312.805858,33.1409796 312.868113,33.1524463 C312.886952,33.1572241 312.897985,33.1586574 312.909934,33.1610463 C313.003993,33.2256897 313.247332,33.4425531 313.557281,33.7602276 C313.877902,34.0888433 314.276692,34.5205635 314.713651,35.0128181 C315.587588,35.9973751 316.617877,37.2238788 317.510701,38.3613726 L318.322764,39.3959529 C318.172121,40.9402746 317.795225,42.3966373 317.815085,43.7746445 C315.696805,43.4780399 313.928029,43.1500453 311.832312,42.9135453 L311.830385,42.9137364 L311.828939,42.9141186 C311.589662,42.8969186 311.07385,42.6848807 311.07385,42.6848807 L311.074337,42.6847374 Z M318.588416,43.8972901 L318.585043,43.8972901 L318.590728,43.8972901 L318.588416,43.8972901 Z M318.598148,43.8419634 C318.57902,42.3517262 318.73782,41.0281379 319.117713,39.6138675 C319.207648,39.3798518 319.260392,39.3442096 319.463586,39.2207995 C319.621851,39.1247662 319.98557,38.9568272 320.46713,38.7555394 C320.94869,38.5542515 321.550279,38.318277 322.193395,38.0800091 C323.479791,37.6034734 324.95618,37.1016632 326.076997,36.7753409 L327.204159,36.4475852 L333.900634,38.9041283 C333.900634,38.9041283 333.293384,42.1677339 332.812831,43.8120545 C332.738786,44.0262901 332.716064,44.0484112 332.632528,44.1256679 C329.778199,45.6183418 327.83429,46.3663987 325.267661,46.3537376 C323.520254,45.8636807 321.695815,45.2381261 320.082472,44.5891125 L320.081508,44.5886347 L320.080063,44.5890647 C319.542608,44.3882547 319.090472,44.1360357 318.597565,43.8419634 L318.598148,43.8419634 Z M306.48098,31.3874868 L304.450827,23.4623452 C304.450827,23.4623452 307.405117,18.9746868 308.891209,16.7372193 L309.17343,16.7590537 C311.199786,16.9116512 313.040654,17.0768334 313.70843,17.1657813 C313.931065,17.1954513 314.16522,17.2326272 314.360464,17.2683793 C314.555294,17.3040694 314.72705,17.3447808 314.764202,17.3571266 C314.824852,17.3773366 314.855308,17.3887077 314.867059,17.3943455 C314.878767,17.4000788 314.868023,17.3900455 314.874864,17.4001266 C314.872937,17.3967822 314.877755,17.4065766 314.882573,17.4212922 C314.88744,17.43596 314.893462,17.4572688 314.900352,17.4848127 C314.914132,17.5399579 314.930851,17.6209174 314.949275,17.7308732 L314.949675,17.7323065 L314.950157,17.7342176 C315.59295,20.5635135 316.194737,22.8140674 316.895222,25.4772303 L315.597031,27.6920177 C314.897847,28.884647 314.265581,29.9426385 313.77385,30.7467388 C313.282167,31.5506958 312.914984,32.1191082 312.805883,32.2587149 C312.778275,32.2940705 312.762857,32.311366 312.755138,32.3176727 C312.747381,32.3238838 312.745598,32.3243616 312.724977,32.3296171 C312.698622,32.3367838 312.59073,32.3439505 312.404818,32.3292349 L312.402409,32.3289482 C310.371982,32.0134237 306.48112,31.3873435 306.48112,31.3873435 L306.48098,31.3874868 Z M302.964133,23.3429676 C302.967506,23.3234742 302.96977,23.3064653 302.974396,23.2815922 C303.008556,23.0963529 303.066031,22.8126675 303.115971,22.5793399 C303.23465,22.0248738 303.322306,21.4651474 303.49029,20.9305855 C304.113035,18.9488438 304.800506,16.9617558 305.830218,15.1607097 C306.627841,13.7656507 307.792218,12.388752 308.768771,11.3207415 C309.246757,10.7979999 309.521702,10.514926 309.699109,10.3835848 C309.879605,10.2499647 309.93406,10.2477096 310.155572,10.242067 C310.161595,10.2419428 310.166509,10.2418711 310.17205,10.2417994 C310.167184,10.2515461 310.164437,10.2590472 310.157836,10.2713261 C310.042501,10.5033017 309.876873,10.8238333 309.690124,11.1740159 C309.081789,12.3155898 308.959911,12.6080329 308.725919,13.4786017 C308.587408,13.9939712 308.468493,14.5422166 308.388319,15.0149827 C308.30976,15.4782075 308.26672,15.8460153 308.287033,16.1013255 L308.28366,16.1076322 L308.285106,16.1219177 L308.284648,16.1228733 C308.292164,16.2048839 308.25651,16.2632492 308.25651,16.2632492 C306.765894,18.6015184 305.169655,20.8743606 303.710569,23.2322951 C303.466941,23.2810045 303.196269,23.3141432 302.963849,23.3432017 L302.964133,23.3429676 Z M327.44148,35.6957539 C327.437144,32.9828351 326.50576,27.8867123 326.50576,27.8867123 C326.50576,27.8867123 326.524213,27.8652123 326.537271,27.8499234 C328.679637,25.7853015 332.699128,21.5594177 332.699128,21.5594177 L333.135181,21.6489963 C334.178215,21.862348 335.139336,22.1390723 336.447437,22.6037495 C337.149397,22.8531114 338.136603,23.2500063 338.611355,23.4716809 L339.375333,23.82839 C339.602647,26.7402363 340.12504,31.8550403 340.12504,31.8550403 C338.420707,34.2464145 336.06234,36.4774941 334.149706,38.1203336 L327.44148,35.6957539 Z M317.580737,25.1652891 C317.580737,25.1652891 316.090598,19.6475415 315.623343,17.3435434 L315.596988,17.1418972 L316.764873,15.9692438 C317.546789,15.1845508 318.709625,14.0578883 319.694475,13.1199959 C320.186904,12.6510425 320.635721,12.2290069 320.969037,11.9215711 C321.14141,11.7582571 321.309981,11.6124297 321.484878,11.4594595 L329.613068,13.3519236 C329.613068,13.3519236 331.72815,18.8429587 332.048183,21.153488 C332.048183,21.153488 328.838225,24.8144567 326.941736,26.523134 C326.459453,26.954663 326.069823,27.3469665 326.069823,27.3469665 C324.212857,27.1149098 320.51205,26.1368028 320.51205,26.1368028 C320.51205,26.1368028 318.521786,25.5918015 317.580742,25.1652891 L317.580737,25.1652891 Z M341.005506,31.9999981 C340.598357,29.3497161 340.384269,26.2801361 340.080454,23.6560077 L340.409405,21.790151 C340.587661,20.7791299 340.793269,19.6752861 340.968836,18.7753579 C341.144393,17.8754966 341.298086,17.1533304 341.34328,16.997613 C341.355999,16.9538486 341.362215,16.9318039 341.362215,16.9318039 C341.733016,16.8410309 342.106044,16.8038072 342.46002,16.7653938 L342.833537,17.8336193 L342.8345,17.834078 C344.408292,21.9642629 344.47178,26.4399529 343.52506,30.2498975 C343.303085,31.1431989 343.072038,31.9246048 342.807403,32.7596173 C342.772665,32.8693151 342.753848,32.9106907 342.734628,32.959424 C342.141775,32.6407461 341.521443,32.326846 341.005737,32.0000459 L341.005506,31.9999981 Z M311.133556,9.28048156 C311.533628,8.97230523 312.018479,8.6097721 312.41088,8.33440478 C314.007061,7.21427828 314.798502,6.83499904 317.16573,6.0568421 C317.737239,5.86897982 318.427924,5.65990419 318.726151,5.58161549 L318.619314,5.76523511 L318.255455,6.39337933 L317.430379,6.67046187 C316.326811,7.041982 313.702325,8.14836761 312.007378,8.95333267 C311.494182,9.19706153 311.331725,9.22761065 311.133561,9.28048156 L311.133556,9.28048156 Z M321.386102,10.6455696 L320.934776,9.80516774 C320.612363,9.20493531 320.236276,8.54585019 319.906857,7.99502478 C319.577549,7.44437614 319.309387,7.01713277 319.145577,6.81850137 L319.052582,6.70529666 L319.294673,6.25468995 C319.614056,5.66021952 319.768057,5.39641921 319.916117,5.28431339 C320.065001,5.17157691 320.305512,5.12639345 320.891745,5.03532419 C324.40719,4.48916189 327.173367,4.78112244 331.139681,6.12270857 C332.481157,6.65200053 334.841654,7.84109906 334.841654,7.84109906 L335.072123,10.4122181 C335.072123,10.4122181 332.072095,12.0541545 330.497793,12.5604319 C330.25988,12.6348411 330.073641,12.6486154 330.073641,12.6486154 C330.073641,12.6486154 324.220209,11.1753584 321.386035,10.6455314 L321.386102,10.6455696 Z M341.309938,16.1669292 C339.537593,14.1036786 335.812353,10.5776535 335.812353,10.5776535 L335.811948,10.5762201 L335.808576,10.5689579 C335.808576,10.5689579 335.742331,9.21319131 335.71176,8.53677241 C335.71176,8.53677241 335.827588,8.62412933 335.938115,8.71682303 L335.939561,8.71873414 L335.941488,8.7196897 C338.77015,10.7293671 340.888855,13.4386547 341.935054,15.7794226 L341.935536,15.7813337 C341.979959,15.8572383 342.01728,15.9419005 342.052457,16.0109872 C341.811344,16.0835044 341.309254,16.1661695 341.309254,16.1661695 L341.309938,16.1669292 Z" id="Shape" fill="#4A90E2"></path>
                <path d="M313.278992,104.925229 C314.287682,105.453174 315.127343,105.748632 315.706421,105.952739 C323.643809,107.939244 330.806277,107.325586 337.075222,102.146186 C343.211676,96.9982243 346.118917,88.8357704 344.604996,81.0041442 C344.188562,78.849939 343.241944,76.3238888 342.129363,74.3977461 C341.567129,73.4243691 340.344794,71.7372301 339.613295,70.9259918 C338.394482,69.574315 336.642156,68.1062754 335.092118,67.1377048 C331.37678,64.8161101 326.656143,63.6897868 322.252817,64.0739346 C316.265076,64.5962845 310.643391,67.8493789 306.924313,72.2686434 C303.543236,76.2862686 301.749363,81.9292131 302.028302,87.1904465 C302.136426,89.2301283 302.348654,90.4399098 302.925762,92.3214471 C303.748612,95.0042181 304.638401,96.7912509 306.217141,98.9256283 C308.246638,101.669412 310.152194,103.288171 313.278992,104.925229 L313.278992,104.925229 Z M311.074337,102.684737 C310.793326,102.539063 310.46714,102.31317 310.051405,101.978295 C308.27823,100.454709 306.85342,98.6937149 305.843626,96.8375476 C305.843626,96.8375476 306.330424,93.7738921 306.630139,92.2667893 C308.373316,92.3961716 310.167771,92.7722306 311.766289,92.9911007 C312.086881,93.0331452 312.385358,93.074473 312.605151,93.1084907 C312.714974,93.1256907 312.805858,93.1409796 312.868113,93.1524463 C312.886952,93.1572241 312.897985,93.1586574 312.909934,93.1610463 C313.003993,93.2256897 313.247332,93.4425531 313.557281,93.7602276 C313.877902,94.0888433 314.276692,94.5205635 314.713651,95.0128181 C315.587588,95.9973751 316.617877,97.2238788 317.510701,98.3613726 L318.322764,99.3959529 C318.172121,100.940275 317.795225,102.396637 317.815085,103.774644 C315.696805,103.47804 313.928029,103.150045 311.832312,102.913545 L311.830385,102.913736 L311.828939,102.914119 C311.589662,102.896919 311.07385,102.684881 311.07385,102.684881 L311.074337,102.684737 Z M318.588416,103.89729 L318.585043,103.89729 L318.590728,103.89729 L318.588416,103.89729 Z M318.598148,103.841963 C318.57902,102.351726 318.73782,101.028138 319.117713,99.6138675 C319.207648,99.3798518 319.260392,99.3442096 319.463586,99.2207995 C319.621851,99.1247662 319.98557,98.9568272 320.46713,98.7555394 C320.94869,98.5542515 321.550279,98.318277 322.193395,98.0800091 C323.479791,97.6034734 324.95618,97.1016632 326.076997,96.7753409 L327.204159,96.4475852 L333.900634,98.9041283 C333.900634,98.9041283 333.293384,102.167734 332.812831,103.812054 C332.738786,104.02629 332.716064,104.048411 332.632528,104.125668 C329.778199,105.618342 327.83429,106.366399 325.267661,106.353738 C323.520254,105.863681 321.695815,105.238126 320.082472,104.589113 L320.081508,104.588635 L320.080063,104.589065 C319.542608,104.388255 319.090472,104.136036 318.597565,103.841963 L318.598148,103.841963 Z M306.48098,91.3874868 L304.450827,83.4623452 C304.450827,83.4623452 307.405117,78.9746868 308.891209,76.7372193 L309.17343,76.7590537 C311.199786,76.9116512 313.040654,77.0768334 313.70843,77.1657813 C313.931065,77.1954513 314.16522,77.2326272 314.360464,77.2683793 C314.555294,77.3040694 314.72705,77.3447808 314.764202,77.3571266 C314.824852,77.3773366 314.855308,77.3887077 314.867059,77.3943455 C314.878767,77.4000788 314.868023,77.3900455 314.874864,77.4001266 C314.872937,77.3967822 314.877755,77.4065766 314.882573,77.4212922 C314.88744,77.43596 314.893462,77.4572688 314.900352,77.4848127 C314.914132,77.5399579 314.930851,77.6209174 314.949275,77.7308732 L314.949675,77.7323065 L314.950157,77.7342176 C315.59295,80.5635135 316.194737,82.8140674 316.895222,85.4772303 L315.597031,87.6920177 C314.897847,88.884647 314.265581,89.9426385 313.77385,90.7467388 C313.282167,91.5506958 312.914984,92.1191082 312.805883,92.2587149 C312.778275,92.2940705 312.762857,92.311366 312.755138,92.3176727 C312.747381,92.3238838 312.745598,92.3243616 312.724977,92.3296171 C312.698622,92.3367838 312.59073,92.3439505 312.404818,92.3292349 L312.402409,92.3289482 C310.371982,92.0134237 306.48112,91.3873435 306.48112,91.3873435 L306.48098,91.3874868 Z M302.964133,83.3429676 C302.967506,83.3234742 302.96977,83.3064653 302.974396,83.2815922 C303.008556,83.0963529 303.066031,82.8126675 303.115971,82.5793399 C303.23465,82.0248738 303.322306,81.4651474 303.49029,80.9305855 C304.113035,78.9488438 304.800506,76.9617558 305.830218,75.1607097 C306.627841,73.7656507 307.792218,72.388752 308.768771,71.3207415 C309.246757,70.7979999 309.521702,70.514926 309.699109,70.3835848 C309.879605,70.2499647 309.93406,70.2477096 310.155572,70.242067 C310.161595,70.2419428 310.166509,70.2418711 310.17205,70.2417994 C310.167184,70.2515461 310.164437,70.2590472 310.157836,70.2713261 C310.042501,70.5033017 309.876873,70.8238333 309.690124,71.1740159 C309.081789,72.3155898 308.959911,72.6080329 308.725919,73.4786017 C308.587408,73.9939712 308.468493,74.5422166 308.388319,75.0149827 C308.30976,75.4782075 308.26672,75.8460153 308.287033,76.1013255 L308.28366,76.1076322 L308.285106,76.1219177 L308.284648,76.1228733 C308.292164,76.2048839 308.25651,76.2632492 308.25651,76.2632492 C306.765894,78.6015184 305.169655,80.8743606 303.710569,83.2322951 C303.466941,83.2810045 303.196269,83.3141432 302.963849,83.3432017 L302.964133,83.3429676 Z M327.44148,95.6957539 C327.437144,92.9828351 326.50576,87.8867123 326.50576,87.8867123 C326.50576,87.8867123 326.524213,87.8652123 326.537271,87.8499234 C328.679637,85.7853015 332.699128,81.5594177 332.699128,81.5594177 L333.135181,81.6489963 C334.178215,81.862348 335.139336,82.1390723 336.447437,82.6037495 C337.149397,82.8531114 338.136603,83.2500063 338.611355,83.4716809 L339.375333,83.82839 C339.602647,86.7402363 340.12504,91.8550403 340.12504,91.8550403 C338.420707,94.2464145 336.06234,96.4774941 334.149706,98.1203336 L327.44148,95.6957539 Z M317.580737,85.1652891 C317.580737,85.1652891 316.090598,79.6475415 315.623343,77.3435434 L315.596988,77.1418972 L316.764873,75.9692438 C317.546789,75.1845508 318.709625,74.0578883 319.694475,73.1199959 C320.186904,72.6510425 320.635721,72.2290069 320.969037,71.9215711 C321.14141,71.7582571 321.309981,71.6124297 321.484878,71.4594595 L329.613068,73.3519236 C329.613068,73.3519236 331.72815,78.8429587 332.048183,81.153488 C332.048183,81.153488 328.838225,84.8144567 326.941736,86.523134 C326.459453,86.954663 326.069823,87.3469665 326.069823,87.3469665 C324.212857,87.1149098 320.51205,86.1368028 320.51205,86.1368028 C320.51205,86.1368028 318.521786,85.5918015 317.580742,85.1652891 L317.580737,85.1652891 Z M341.005506,91.9999981 C340.598357,89.3497161 340.384269,86.2801361 340.080454,83.6560077 L340.409405,81.790151 C340.587661,80.7791299 340.793269,79.6752861 340.968836,78.7753579 C341.144393,77.8754966 341.298086,77.1533304 341.34328,76.997613 C341.355999,76.9538486 341.362215,76.9318039 341.362215,76.9318039 C341.733016,76.8410309 342.106044,76.8038072 342.46002,76.7653938 L342.833537,77.8336193 L342.8345,77.834078 C344.408292,81.9642629 344.47178,86.4399529 343.52506,90.2498975 C343.303085,91.1431989 343.072038,91.9246048 342.807403,92.7596173 C342.772665,92.8693151 342.753848,92.9106907 342.734628,92.959424 C342.141775,92.6407461 341.521443,92.326846 341.005737,92.0000459 L341.005506,91.9999981 Z M311.133556,69.2804816 C311.533628,68.9723052 312.018479,68.6097721 312.41088,68.3344048 C314.007061,67.2142783 314.798502,66.834999 317.16573,66.0568421 C317.737239,65.8689798 318.427924,65.6599042 318.726151,65.5816155 L318.619314,65.7652351 L318.255455,66.3933793 L317.430379,66.6704619 C316.326811,67.041982 313.702325,68.1483676 312.007378,68.9533327 C311.494182,69.1970615 311.331725,69.2276107 311.133561,69.2804816 L311.133556,69.2804816 Z M321.386102,70.6455696 L320.934776,69.8051677 C320.612363,69.2049353 320.236276,68.5458502 319.906857,67.9950248 C319.577549,67.4443761 319.309387,67.0171328 319.145577,66.8185014 L319.052582,66.7052967 L319.294673,66.2546899 C319.614056,65.6602195 319.768057,65.3964192 319.916117,65.2843134 C320.065001,65.1715769 320.305512,65.1263934 320.891745,65.0353242 C324.40719,64.4891619 327.173367,64.7811224 331.139681,66.1227086 C332.481157,66.6520005 334.841654,67.8410991 334.841654,67.8410991 L335.072123,70.4122181 C335.072123,70.4122181 332.072095,72.0541545 330.497793,72.5604319 C330.25988,72.6348411 330.073641,72.6486154 330.073641,72.6486154 C330.073641,72.6486154 324.220209,71.1753584 321.386035,70.6455314 L321.386102,70.6455696 Z M341.309938,76.1669292 C339.537593,74.1036786 335.812353,70.5776535 335.812353,70.5776535 L335.811948,70.5762201 L335.808576,70.5689579 C335.808576,70.5689579 335.742331,69.2131913 335.71176,68.5367724 C335.71176,68.5367724 335.827588,68.6241293 335.938115,68.716823 L335.939561,68.7187341 L335.941488,68.7196897 C338.77015,70.7293671 340.888855,73.4386547 341.935054,75.7794226 L341.935536,75.7813337 C341.979959,75.8572383 342.01728,75.9419005 342.052457,76.0109872 C341.811344,76.0835044 341.309254,76.1661695 341.309254,76.1661695 L341.309938,76.1669292 Z" id="Shape-Copy" fill="#FFFFFF"></path>
            </g>
        </g>
    </g>
</svg>